<?xml version="1.0" encoding="UTF-8"?>
<svg width="108px" height="104px" viewBox="0 0 108 104" version="1.1" xmlns="http://www.w3.org/2000/svg" xmlns:xlink="http://www.w3.org/1999/xlink">
    <!-- Generator: Sketch 63.1 (92452) - https://sketch.com -->
    <title>disease-symbol</title>
    <desc>Created with Sketch.</desc>
    <g id="Page-1" stroke="none" stroke-width="1" fill="none" fill-rule="evenodd">
        <g id="disease-symbol" transform="translate(26.000000, 0.000000)" fill="#1ADD21" fill-rule="nonzero">
            <path d="M55.1,97.5 C54.9,97.3 47.7,87.9 35.7,73.7 C48,58.5 55.4,40 56,27.4 C56.7,11.2 43.7,0 28.6,0 C13.5,0 0.8,11 1.2,27.4 C1.5,40.7 9.2,58.5 21.3,73.4 C9.7,87.3 1.6,96.6 1.4,96.9 C-1.11022302e-16,98.6 0.5,101.3 1.6,102.4 C2.6,103.6 5.8,103.6 7.5,101.2 C8.4,100.3 17.3,89.8 28.5,76.3 C40.1,90 48.2,100.6 49.1,101.5 C50.7,103.5 53.3,103.5 54.9,102.6 C55.7,102.2 57,100 55.1,97.5 Z M28.5,70.9 C17.2,56.4 9,39.3 9.1,27.8 C9.2,16.5 17.8,8 28.5,8 C39.8,8 47.9,16.2 48.1,27.6 C48.1,38.5 39,56.4 28.5,70.9 Z" id="Shape"></path>
        </g>
    </g>
</svg>