<?xml version="1.0" encoding="utf-8"?>
<!-- Generator: Adobe Illustrator 21.0.2, SVG Export Plug-In . SVG Version: 6.00 Build 0)  -->
<svg version="1.1" id="Capa_1" xmlns="http://www.w3.org/2000/svg" xmlns:xlink="http://www.w3.org/1999/xlink" x="0px" y="0px"
	 viewBox="0 0 103.5 103.5" style="enable-background:new 0 0 103.5 103.5;" xml:space="preserve">
<g>
	<path d="M78.1,97.5c-0.2-0.2-7.4-9.6-19.4-23.8C71,58.5,78.4,40,79,27.4C79.7,11.2,66.7,0,51.6,0C36.5,0,23.8,11,24.2,27.4
		c0.3,13.3,8,31.1,20.1,46C32.7,87.3,24.6,96.6,24.4,96.9c-1.4,1.7-0.9,4.4,0.2,5.5c1,1.2,4.2,1.2,5.9-1.2c0.9-0.9,9.8-11.4,21-24.9
		c11.6,13.7,19.7,24.3,20.6,25.2c1.6,2,4.2,2,5.8,1.1C78.7,102.2,80,100,78.1,97.5z M51.5,70.9C40.2,56.4,32,39.3,32.1,27.8
		C32.2,16.5,40.8,8,51.5,8c11.3,0,19.4,8.2,19.6,19.6C71.1,38.5,62,56.4,51.5,70.9z"/>
</g>
</svg>
