<?xml version="1.0" encoding="UTF-8"?>
<svg width="307px" height="414px" viewBox="0 0 307 414" version="1.1" xmlns="http://www.w3.org/2000/svg" xmlns:xlink="http://www.w3.org/1999/xlink">
    <!-- Generator: Sketch 52.6 (67491) - http://www.bohemiancoding.com/sketch -->
    <title>ic-bird</title>
    <desc>Created with Sketch.</desc>
    <g id="Page-1" stroke="none" stroke-width="1" fill="none" fill-rule="evenodd">
        <g id="Desktop-HD" transform="translate(-948.000000, -93.000000)" fill="#FFFFFF">
            <g id="ic-bird" transform="translate(948.000000, 93.000000)">
                <g>
                    <polygon id="ic-component-7" fill-rule="nonzero" points="307 0 252 161 196 212 185 195"></polygon>
                    <polygon id="ic-component-6" fill-rule="nonzero" points="296 41 275 170 197 217 256 165"></polygon>
                    <polygon id="ic-component-5" fill-rule="nonzero" points="259 357 247 315 280 357 274 414"></polygon>
                    <polygon id="ic-component-4" fill-rule="nonzero" points="279 174 293 78 288 184 200 219"></polygon>
                    <polygon id="ic-component-3" fill-rule="nonzero" points="114 194 147 162 178 194 147 226"></polygon>
                    <polygon id="ic-component-2" fill-rule="nonzero" points="151 229 181 198 285 354 247 308"></polygon>
                    <polygon id="ic-component-1" fill-rule="nonzero" points="109.612743 196 121 206 106 206 -4.97379915e-14 206"></polygon>
                </g>
            </g>
        </g>
    </g>
</svg>