<?xml version="1.0" encoding="UTF-8" standalone="no"?>
<svg
   xmlns:dc="http://purl.org/dc/elements/1.1/"
   xmlns:cc="http://creativecommons.org/ns#"
   xmlns:rdf="http://www.w3.org/1999/02/22-rdf-syntax-ns#"
   xmlns:svg="http://www.w3.org/2000/svg"
   xmlns="http://www.w3.org/2000/svg"
   viewBox="0 0 261.32001 85.080002"
   height="85.080002"
   width="261.32001"
   xml:space="preserve"
   id="svg2"
   version="1.1"><metadata
     id="metadata8"><rdf:RDF><cc:Work
         rdf:about=""><dc:format>image/svg+xml</dc:format><dc:type
           rdf:resource="http://purl.org/dc/dcmitype/StillImage" /></cc:Work></rdf:RDF></metadata><defs
     id="defs6" /><g
     transform="matrix(1.3333333,0,0,-1.3333333,0,85.08)"
     id="g10"><g
       transform="scale(0.1)"
       id="g12"><path
         id="path14"
         style="fill:#ab1839;fill-opacity:1;fill-rule:nonzero;stroke:none"
         d="m 709.484,165.078 c 0,0 77.621,-58.508 85.598,-162.8905 2.731,-35.4727 63.844,372.1285 317.928,368.0705 8.28,-0.149 8.23,-0.957 8.23,-0.957 l 51.54,268.789 c 0,0 -285.675,-175.27 -372.909,-476.082 -1.211,-4.102 -2.297,-5.762 -2.797,-2.977 -0.519,2.785 -15.511,67.414 -38.097,81.68 -2.34,1.516 -13.414,-13.816 -13.414,-13.816 l -36.079,-61.817" /><path
         id="path16"
         style="fill:#ffffff;fill-opacity:1;fill-rule:nonzero;stroke:none"
         d="m 1189.7,150.223 c -1.3,0 -2.53,0.574 -3.34,1.593 -0.82,1.004 -1.14,2.332 -0.87,3.606 l 38.53,181.137 c 2.36,11.793 1.83,19.914 -1.6,24.093 -2.45,2.989 -6.69,4.438 -12.98,4.438 -20.33,0 -34.58,-14.539 -40.13,-40.906 l -36.13,-170.555 c -0.42,-1.992 -2.17,-3.406 -4.2,-3.406 h -66.48 c -1.31,0 -2.54,0.574 -3.34,1.593 -0.83,1.004 -1.14,2.344 -0.86,3.606 l 38.56,181.137 c 2.36,11.785 1.81,19.902 -1.61,24.082 -2.44,2.988 -6.69,4.449 -12.98,4.449 -20.35,0 -34.61,-14.539 -40.17,-40.906 l -36.12,-170.555 c -0.42,-1.992 -2.17,-3.406 -4.2,-3.406 h -66.432 c -1.301,0 -2.532,0.574 -3.34,1.593 -0.805,1.004 -1.149,2.332 -0.871,3.594 l 54.914,259.211 c 0.418,1.988 2.168,3.406 4.199,3.406 h 63.61 c 1.27,0 2.5,-0.578 3.31,-1.574 0.81,-1.004 1.15,-2.316 0.89,-3.574 l -2.79,-13.809 c 19.41,17.668 40.36,25.676 66.49,25.676 28.84,0 48.26,-12.906 53.82,-35.066 16.7,22.699 42.05,35.066 72.38,35.066 20.46,0 35.56,-5.816 44.87,-17.297 11.26,-13.886 13.79,-35.898 7.53,-65.449 l -39.98,-188.371 c -0.43,-1.992 -2.19,-3.406 -4.2,-3.406 h -66.48" /><path
         id="path18"
         style="fill:#ffffff;fill-opacity:1;fill-rule:nonzero;stroke:none"
         d="m 1462.6,317.813 c 3.52,20.132 5.47,39.324 -1.39,47.531 -3.09,3.711 -8.25,5.511 -15.76,5.511 -28.81,0 -38.3,-36.792 -40.53,-48.082 l -1.2,-4.96 z m -65.83,-174.317 c -32.74,0 -55.35,8.18 -69.04,25.063 -22.59,27.765 -15.68,72.07 -5.93,118.843 14.61,67.934 42.14,137.344 135.73,137.344 30.31,0 51.28,-7.68 64.1,-23.519 17.03,-21.02 19.21,-55.93 7.02,-113.192 l -2.81,-14.832 c -0.39,-2.027 -2.16,-3.508 -4.24,-3.508 h -128.01 l -3.63,-17.308 c -5.12,-23.02 -4.21,-41.004 2.52,-49.371 3.04,-3.801 7.28,-5.641 12.98,-5.641 18.47,0 30.43,13.254 41.23,45.703 0.59,1.758 2.23,2.942 4.08,2.942 h 59.78 c 1.32,0 2.57,-0.602 3.39,-1.641 0.8,-1.051 1.1,-2.414 0.78,-3.691 -16.02,-64.489 -55.71,-97.192 -117.95,-97.192" /><path
         id="path20"
         style="fill:#ffffff;fill-opacity:1;fill-rule:nonzero;stroke:none"
         d="m 1685.51,275.715 c -7.76,-3.91 -16.34,-7.051 -24.23,-8.813 -25.94,-5.367 -38.37,-16.539 -42.96,-38.57 -2.67,-12.09 -1.9,-21.508 2.13,-26.527 2.41,-2.981 5.98,-4.43 10.97,-4.43 15.02,0 39.51,9.746 45.41,36.598 z m -89.7,-132.231 c -18.46,0 -32.53,5.879 -41.84,17.481 -11.39,14.168 -14.72,36.765 -9.13,61.945 9.95,47.703 33.12,70.535 85.51,84.16 l 40.03,10.125 c 19.38,4.969 26.58,11.535 29.59,27.004 2.1,9.582 1.43,16.504 -1.94,20.688 -3.18,3.957 -9.22,5.965 -17.93,5.965 -17.38,0 -29.72,-11.051 -33.85,-30.329 l -1.45,-7.14 c -0.38,-2 -2.16,-3.449 -4.21,-3.449 h -59.72 c -1.29,0 -2.54,0.601 -3.35,1.613 -0.82,1.039 -1.13,2.375 -0.83,3.637 l 1.41,6.238 c 11.25,53.711 51.07,83.332 112.08,83.332 37.79,0 62.22,-7.512 74.68,-22.969 13.98,-17.32 10.91,-42.09 6.65,-61.722 l -28.94,-136.321 c -5.13,-23.492 -5.65,-33.879 -2.39,-48.269 0.28,-1.282 -0.02,-2.61 -0.84,-3.629 -0.82,-1.031 -2.05,-1.621 -3.37,-1.621 h -63.57 c -1.91,0 -3.6,1.257 -4.11,3.09 -1.64,5.542 -2.26,11.691 -2.47,17.75 -21.01,-22.836 -42.04,-27.579 -70.01,-27.579" /><path
         id="path22"
         style="fill:#ffffff;fill-opacity:1;fill-rule:nonzero;stroke:none"
         d="m 1852.56,147.34 c -26.46,0 -41.15,4.18 -49.09,13.98 -9.86,12.141 -8.19,31.832 -2.32,59.629 l 30.19,143.168 h -28.4 c -1.3,0 -2.53,0.594 -3.34,1.602 -0.82,1.011 -1.15,2.332 -0.86,3.597 l 9.61,45.305 c 0.42,1.988 2.18,3.406 4.2,3.406 h 30.27 l 15.16,70.774 c 0.41,1.976 2.18,3.398 4.19,3.398 h 66.51 c 1.3,0 2.52,-0.59 3.34,-1.601 0.81,-0.996 1.14,-2.34 0.87,-3.598 l -14.81,-68.973 h 33.2 c 1.3,0 2.54,-0.589 3.35,-1.589 0.81,-1.004 1.14,-2.329 0.86,-3.598 l -9.59,-45.297 c -0.43,-1.992 -2.18,-3.426 -4.21,-3.426 h -35.06 l -28.69,-136.758 c -2.32,-10.839 -2.32,-16.925 0,-19.789 1.89,-2.32 6.19,-3.461 13.15,-3.461 5.21,0 10.47,0.5 14.48,0.942 l 0.47,0.039 c 1.2,0 2.36,-0.52 3.18,-1.422 0.92,-1.02 1.31,-2.426 1.02,-3.758 l -9.65,-46.269 c -0.38,-1.84 -1.93,-3.207 -3.8,-3.399 l -3.87,-0.371 c -13.41,-1.301 -26.09,-2.531 -40.36,-2.531" /><path
         id="path24"
         style="fill:#231f20;fill-opacity:1;fill-rule:nonzero;stroke:none"
         d="m 1247.96,429.055 c -28.89,0 -53.47,-10.742 -70.86,-30.61 -8.37,19.266 -28.2,30.61 -55.35,30.61 -22.74,0 -42.24,-6.145 -59.89,-19.082 l 0.42,2.05 c 0.51,2.532 -0.15,5.153 -1.8,7.149 -1.61,2.004 -4.05,3.148 -6.64,3.148 h -63.59 c -4.074,0 -7.562,-2.836 -8.414,-6.804 L 926.938,156.313 c -0.54,-2.543 0.089,-5.2 1.73,-7.211 1.629,-2 4.082,-3.176 6.68,-3.176 h 66.432 c 4.06,0 7.57,2.836 8.41,6.804 l 36.11,170.551 c 5.11,24.184 17.88,37.5 35.96,37.5 4.85,0 8.11,-0.968 9.67,-2.871 1.43,-1.758 3.46,-6.773 0.69,-20.547 l -38.54,-181.05 c -0.54,-2.543 0.1,-5.176 1.74,-7.2 1.62,-2.011 4.08,-3.187 6.68,-3.187 h 66.47 c 4.06,0 7.59,2.836 8.42,6.804 l 36.12,170.551 c 5.09,24.184 17.84,37.5 35.93,37.5 4.84,0 8.09,-0.961 9.66,-2.859 1.43,-1.77 3.44,-6.785 0.7,-20.559 l -38.52,-181.05 c -0.53,-2.543 0.11,-5.176 1.72,-7.2 1.65,-2.011 4.1,-3.187 6.69,-3.187 h 66.48 c 4.07,0 7.57,2.836 8.42,6.804 l 39.99,188.372 c 6.53,30.89 3.71,54.109 -8.41,69.062 -10.15,12.527 -26.39,18.891 -48.21,18.891 m 0,-8.614 c 43.86,0 58.8,-27.445 48.21,-77.546 l -40,-188.372 h -66.48 l 38.54,181.149 c 4.34,21.668 0,33.711 -18.79,33.711 -21.16,0 -38.08,-14.449 -44.34,-44.309 l -36.13,-170.551 h -66.47 l 38.57,181.149 c 4.33,21.668 0,33.711 -18.81,33.711 -21.2,0 -38.08,-14.449 -44.37,-44.309 L 1001.78,154.523 H 935.348 L 990.25,413.73 h 63.59 l -5.34,-26.515 h 1 c 21.68,23.605 44.32,33.226 72.25,33.226 30.37,0 49.61,-14.918 51.07,-41.406 h 0.94 c 15.93,27.445 42.9,41.406 74.2,41.406" /><path
         id="path26"
         style="fill:#231f20;fill-opacity:1;fill-rule:nonzero;stroke:none"
         d="m 1409.17,322.117 c 2.14,10.656 10.9,44.446 36.28,44.446 9.15,0 11.65,-3 12.47,-3.977 5.38,-6.449 3.89,-23.32 1.05,-40.469 z m 48.35,106.93 c -96.64,0 -124.96,-71.125 -139.92,-140.715 -10,-47.887 -16.98,-93.238 6.79,-122.5 14.58,-17.93 38.25,-26.648 72.37,-26.648 64.36,0 105.4,33.64 122.02,100.031 0.25,0.797 0.38,1.629 0.38,2.512 0,4.734 -3.85,8.609 -8.6,8.609 h -0.02 -59.77 c -3.68,0 -6.98,-2.379 -8.15,-5.898 -11.82,-35.485 -23.41,-42.766 -37.16,-42.766 -5.72,0 -8.24,2.301 -9.62,4.043 -5.82,7.23 -6.44,24.312 -1.69,45.699 l 2.94,13.981 h 124.51 c 4.14,0 7.68,2.949 8.47,7 l 2.83,14.918 c 12.61,59.261 10.24,94.195 -7.92,116.621 -13.69,16.898 -35.75,25.113 -67.46,25.113 m 53.02,-187.32 h 0.02 m -112.29,71.777 h 67.93 c 7.19,39.512 6.73,61.648 -20.75,61.648 -26.45,0 -39.99,-27.449 -44.75,-51.539 l -2.43,-10.109 m 59.25,106.953 c 77.53,0 83.84,-52.031 66.93,-131.523 l -2.85,-14.938 h -131.51 l -4.35,-20.715 c -6.74,-30.336 -4.82,-60.207 19.72,-60.207 22.21,0 34.74,16.86 45.31,48.653 h 59.77 c -14.95,-60.219 -51.09,-93.942 -113.78,-93.942 -96.28,0 -84.23,74.192 -70.76,138.738 14.92,69.364 41.93,133.934 131.52,133.934" /><path
         id="path28"
         style="fill:#231f20;fill-opacity:1;fill-rule:nonzero;stroke:none"
         d="m 1631.42,201.676 c -4.78,0 -6.63,1.613 -7.62,2.824 -3.11,3.867 -3.58,12.418 -1.29,22.855 4.2,20.172 15.66,30.379 39.57,35.313 5.7,1.277 11.68,3.207 17.5,5.609 l -6.97,-33.468 c -5.34,-24.297 -27.57,-33.133 -41.19,-33.133 m 58.75,227.375 c -63.25,0 -104.58,-30.832 -116.31,-86.824 l -1.37,-6.098 c -0.58,-2.555 0.03,-5.219 1.67,-7.262 1.65,-2.039 4.11,-3.23 6.72,-3.23 h 59.7 c 4.11,0 7.65,2.89 8.45,6.91 l 1.43,7.211 c 2.14,9.93 8.86,26.801 29.63,26.801 5.07,0 11.68,-0.762 14.59,-4.36 3.14,-3.902 2.33,-11.383 1.11,-16.98 l -0.05,-0.203 c -2.38,-12.289 -6.76,-18.61 -26.46,-23.657 l -39.96,-10.101 c -54.31,-14.153 -78.34,-37.863 -88.69,-87.52 -5.86,-26.359 -2.22,-50.25 9.98,-65.461 6.99,-8.711 20.51,-19.089 45.19,-19.089 25.58,0 46.49,4.101 66.45,22.289 0.41,-3.219 1.02,-6.399 1.91,-9.379 1.06,-3.66 4.43,-6.176 8.24,-6.176 h 63.57 c 2.63,0 5.1,1.195 6.74,3.226 1.61,2.051 2.24,4.731 1.68,7.27 -3.12,13.66 -2.59,23.637 2.37,46.383 l 28.97,136.387 c 4.43,20.531 7.61,46.55 -7.52,65.3 -13.32,16.52 -38.87,24.563 -78.04,24.563 m 1.48,-144.934 c -10.61,-6.738 -22.61,-11.078 -31.31,-13.012 -27.97,-5.796 -41.41,-18.781 -46.24,-41.91 -4.35,-19.757 -0.52,-36.129 17.32,-36.129 17.82,0 43.37,11.571 49.62,39.973 l 10.61,51.078 m -1.48,136.34 c 79.06,0 87.25,-32.75 77.14,-79.488 l -28.94,-136.332 c -5.29,-24.086 -5.78,-35.168 -2.4,-50.11 h -63.57 c -2.41,8.192 -2.41,18.313 -2.41,26.981 h -0.95 c -21.24,-26.981 -41.48,-33.719 -73.24,-33.719 -46.29,0 -54.46,39.481 -46.76,74.191 10.15,48.649 34.23,68.387 82.38,80.926 l 40,10.114 c 20.68,5.296 29.41,13.027 32.76,30.367 4.32,19.718 -1.93,31.769 -24.09,31.769 -20.25,0 -33.73,-13.48 -38.06,-33.718 l -1.45,-7.211 h -59.7 l 1.41,6.25 c 12.53,59.742 57.8,79.98 107.88,79.98" /><path
         id="path30"
         style="fill:#231f20;fill-opacity:1;fill-rule:nonzero;stroke:none"
         d="m 1928.69,496.496 h -66.52 c -4.05,0 -7.56,-2.828 -8.39,-6.797 l -14.44,-67.383 h -26.78 c -4.08,0 -7.57,-2.836 -8.42,-6.796 l -9.61,-45.301 c -0.54,-2.551 0.1,-5.192 1.72,-7.207 1.64,-2.024 4.1,-3.196 6.69,-3.196 h 23.09 l -29.1,-137.988 c -6.12,-29.039 -7.73,-49.75 3.19,-63.219 8.86,-10.921 24.53,-15.582 52.43,-15.582 14.49,0 27.27,1.25 40.79,2.563 l 3.85,0.379 c 3.76,0.351 6.84,3.109 7.62,6.797 l 9.55,45.82 0.28,2.191 c 0,4.75 -3.83,8.59 -8.57,8.602 h -0.04 -0.14 l -0.91,-0.063 c -3.89,-0.437 -8.95,-0.921 -13.89,-0.921 -8.07,0 -9.65,1.683 -9.81,1.886 -0.6,0.754 -1.75,3.848 0.86,16.157 l 27.97,133.378 h 31.58 c 4.07,0 7.56,2.852 8.42,6.832 l 9.49,44.868 0.29,2.211 c 0,4.75 -3.85,8.589 -8.6,8.589 h -0.01 -27.89 l 13.69,63.782 c 0.55,2.531 -0.06,5.179 -1.71,7.211 -1.64,2.011 -4.1,3.187 -6.68,3.187 m -22.66,-295.719 h 0.03 m 45.22,212.95 h 0.01 m -22.6,74.16 -15.93,-74.16 h 38.52 l -9.59,-45.297 h -38.57 l -29.39,-140.18 c -4.31,-20.25 -1.93,-28.434 17.36,-28.434 5.28,0 10.6,0.473 14.94,0.961 l -9.66,-46.257 c -14.92,-1.442 -28.41,-2.883 -43.82,-2.883 -52.04,0 -58.29,15.898 -47.19,68.41 l 31.28,148.383 h -33.7 l 9.62,45.297 h 33.73 l 15.88,74.16 h 66.52" /><path
         id="path32"
         style="fill:#231f20;fill-opacity:1;fill-rule:nonzero;stroke:none"
         d="m 64.293,238.332 -1.4492,-8.613 c -4.754,-22.457 3.8515,-37.289 26.2968,-37.289 20.0824,0 35.3824,10.062 40.1724,30.597 3.339,16.735 -6.211,24.403 -17.692,29.172 l -43.0351,16.723 c -33.4648,12.91 -47.3242,35.379 -39.6757,71.73 9.0937,42.528 43.0156,77.45 110.9138,77.45 59.754,0 82.239,-26.789 72.668,-73.149 l -2.379,-10.531 H 150.82 c 2.883,12.918 2.883,22.469 -0.468,29.16 -2.891,6.219 -9.571,9.57 -20.563,9.57 -16.746,0 -32.996,-9.57 -36.8046,-27.718 -2.8633,-12.446 1.8984,-22.942 22.4686,-30.133 l 36.797,-13.399 c 38.723,-13.843 49.246,-34.894 41.133,-73.609 -11.492,-54.016 -57.371,-80.789 -112.8322,-80.789 -74.10939,0 -87.94924,32.508 -77.44924,81.726 l 1.91016,9.102 H 64.293" /><path
         id="path34"
         style="fill:#231f20;fill-opacity:1;fill-rule:nonzero;stroke:none"
         d="m 354.508,282.801 c -10.528,-6.692 -22.481,-10.992 -31.078,-12.93 -27.742,-5.723 -41.102,-18.644 -45.899,-41.594 -4.293,-19.589 -0.48,-35.847 17.196,-35.847 17.691,0 43.043,11.468 49.253,39.691 z m -109.957,49.719 1.437,6.222 c 12.43,59.27 57.352,79.348 107.071,79.348 78.421,0 86.531,-32.512 76.511,-78.899 L 400.891,203.898 c -5.27,-23.894 -5.743,-34.886 -2.434,-49.699 h -63.066 c -2.395,8.121 -2.395,18.172 -2.395,26.762 h -0.969 C 311,154.199 290.91,147.504 259.359,147.504 c -45.882,0 -54.023,39.187 -46.371,73.617 10.051,48.281 33.95,67.879 81.739,80.317 l 39.691,10.042 c 20.562,5.258 29.16,12.911 32.531,30.129 4.293,19.598 -1.937,31.532 -23.953,31.532 -20.035,0 -33.445,-13.395 -37.738,-33.461 l -1.438,-7.16 h -59.269" /><path
         id="path36"
         style="fill:#231f20;fill-opacity:1;fill-rule:nonzero;stroke:none"
         d="m 484.566,366.469 h -33.48 l 9.559,44.922 h 33.492 l 6.199,29.175 c 10.059,46.372 39.687,61.661 82.219,61.661 11.953,0 23.422,-0.465 34.902,-1.438 l -10.039,-46.851 c -4.293,0.468 -8.605,0.468 -12.91,0.468 -18.633,0 -26.285,-5.726 -29.637,-20.554 l -4.789,-22.461 h 38.262 l -9.551,-44.922 h -38.27 L 505.578,154.195 h -65.965 l 44.953,212.274" /><path
         id="path38"
         style="fill:#231f20;fill-opacity:1;fill-rule:nonzero;stroke:none"
         d="m 715.035,311.965 c 7.11,39.203 6.66,61.172 -20.59,61.172 -26.3,0 -39.699,-27.242 -44.449,-51.129 l -2.394,-10.043 z m -75.582,-39.199 -4.277,-20.555 c -6.699,-30.125 -4.789,-59.773 19.57,-59.773 21.996,0 34.438,16.738 44.957,48.277 h 59.274 c -14.793,-59.754 -50.68,-93.207 -112.825,-93.207 -95.621,0 -83.668,73.605 -70.257,137.648 14.808,68.867 41.562,132.934 130.503,132.934 76.957,0 83.196,-51.621 66.446,-130.516 l -2.86,-14.808 H 639.453" /></g></g></svg>