<?xml version="1.0" encoding="utf-8"?>
<!-- Generator: Adobe Illustrator 25.2.1, SVG Export Plug-In . SVG Version: 6.00 Build 0)  -->
<svg version="1.1" id="Layer_1" xmlns="http://www.w3.org/2000/svg" xmlns:xlink="http://www.w3.org/1999/xlink" x="0px" y="0px"
	 viewBox="0 0 1120.96 532.89" style="enable-background:new 0 0 1120.96 532.89;" xml:space="preserve">
<style type="text/css">
	.st0{fill:#121B21;}
	.st1{fill:#59595C;}
	.st2{fill:#003E6A;}
</style>
<g>
	<g>
		<g>
			<path class="st0" d="M0,290.38h12.4v90.17H0V290.38z"/>
		</g>
		<g>
			<path class="st0" d="M85.38,334.76c0-10.28-5.92-16.34-16.2-16.34c-6.62,0-13.39,2.54-18.6,7.33v54.81h-12.4v-70.87h11.41v8.88
				h0.28c6.34-6.06,14.93-10.15,24.79-10.15c14.51,0,23.11,8.74,23.11,25.78v46.35h-12.4V334.76z"/>
		</g>
		<g>
			<path class="st0" d="M151.17,372.52c4.09,0,8.18-0.84,11.27-1.69v9.72c-2.82,0.85-8.45,1.83-14.65,1.83
				c-11.41,0-20.01-5.21-20.01-20.15v-43.39h-12.54v-9.16h12.54v-19.3h12.4v19.3h22.12v9.16h-22.12v43.11
				C140.18,369.56,144.55,372.52,151.17,372.52z"/>
		</g>
		<g>
			<path class="st0" d="M235.7,342.65v6.06h-46.92c0.14,15.92,8.88,23.95,23.96,23.95c7.61,0,14.79-2.11,20.85-4.79v9.58
				c-5.36,2.68-14.09,4.93-22.97,4.93c-20.14,0-34.37-12.4-34.37-37.05c0-21.7,11.69-36.91,31.42-36.91
				C226.12,308.41,235.7,321.66,235.7,342.65z M188.79,339.69h35.64c0-13.81-5.91-21.56-16.48-21.56
				C196.12,318.13,189.21,327.01,188.79,339.69z"/>
		</g>
		<g>
			<path class="st0" d="M303.33,370.68c-5.91,6.34-13.52,9.86-21.7,9.86c-18.03,0-28.6-13.24-28.6-35.51
				c0-22.54,11.56-36.63,29.87-36.63c7.89,0,15.78,3.38,21.28,9.44h0.14v-8.17h11.41v72c0,19.16-10.28,28.46-31.28,28.46
				c-8.87,0-16.76-1.55-24.51-5.07v-10.14c8.31,3.8,15.22,5.63,22.54,5.63c14.65,0,21.14-5.35,21.14-17.05v-12.82H303.33z
				 M285.43,370.68c6.06,0,12.12-2.68,17.9-8.03V325.6c-5.49-5.21-10.99-7.47-17.61-7.47c-12.26,0-19.87,10.15-19.87,26.77
				C265.85,361.39,273.03,370.68,285.43,370.68z"/>
		</g>
		<g>
			<path class="st0" d="M353.91,330.39v50.16h-12.4v-70.87h11.41v12.68h0.28c8.74-10,16.2-14.09,25.36-14.09v11.98
				C370.11,320.25,361.38,323.77,353.91,330.39z"/>
		</g>
		<g>
			<path class="st0" d="M396.74,309.68h12.4v70.87h-12.4V309.68z"/>
		</g>
		<g>
			<path class="st0" d="M396.74,290.38h12.4v10.34h-12.4V290.38z"/>
		</g>
		<g>
			<path class="st0" d="M462.95,372.52c4.08,0,8.17-0.84,11.27-1.69v9.72c-2.82,0.85-8.45,1.83-14.65,1.83
				c-11.41,0-20.01-5.21-20.01-20.15v-43.39h-12.54v-9.16h12.54v-19.3h12.4v19.3h22.12v9.16h-22.12v43.11
				C451.96,369.56,456.33,372.52,462.95,372.52z"/>
		</g>
		<g>
			<path class="st0" d="M495.64,409.71c-4.37,0-7.61-0.42-11.41-1.27v-10.71c3.94,1.55,7.04,2.11,10.99,2.11
				c9.44,0,12.82-4.93,17.19-17.61l-26.49-72.56h12.12l20.99,58.19h0.28l21-58.19h11.41l-27.2,74.11
				C517.62,402.81,510.01,409.71,495.64,409.71z"/>
		</g>
		<g>
			<path class="st0" d="M632.41,382.38c-7.18,0-16.65-1.4-24.36-4.56v-12.26c7.18,3.15,14.72,5.61,22.96,5.61
				c9.12,0,21.33-2.98,21.33-14.9c0-18.58-43.76-10.34-43.76-41.18c0-17,12.61-24.71,29.97-24.71c8.94,0,16.47,1.93,21.02,3.85
				v12.09c-5.6-2.8-12.26-4.55-18.93-4.55c-10.16,0-20.98,3.85-20.98,13.49c0,19.63,44.11,10.52,44.11,41.36
				C663.79,375.19,649.41,382.38,632.41,382.38z"/>
		</g>
		<g>
			<path class="st0" d="M684.92,409.71c-4.37,0-7.61-0.42-11.41-1.27v-10.71c3.94,1.55,7.04,2.11,10.99,2.11
				c9.44,0,12.82-4.93,17.19-17.61l-26.49-72.56h12.12l20.99,58.19h0.28l21-58.19H741l-27.2,74.11
				C706.9,402.81,699.29,409.71,684.92,409.71z"/>
		</g>
		<g>
			<path class="st0" d="M772.41,382.38c-5.78,0-13.38-1.13-19.58-3.67v-9.86c5.78,2.53,11.84,4.51,18.46,4.51
				c7.33,0,13.81-2.39,13.81-11.98c0-14.93-31.84-8.31-31.84-33.11c0-13.67,10.14-19.87,24.09-19.87c7.18,0,13.24,1.55,16.9,3.1
				v9.72c-4.5-2.25-9.86-3.66-15.22-3.66c-8.17,0-13.52,3.1-13.52,10.85c0,15.78,32.13,8.45,32.13,33.25
				C797.63,376.6,786.07,382.38,772.41,382.38z"/>
		</g>
		<g>
			<path class="st0" d="M846.24,372.52c4.09,0,8.18-0.84,11.27-1.69v9.72c-2.82,0.85-8.45,1.83-14.65,1.83
				c-11.41,0-20.01-5.21-20.01-20.15v-43.39h-12.54v-9.16h12.54v-19.3h12.4v19.3h22.12v9.16h-22.12v43.11
				C835.25,369.56,839.61,372.52,846.24,372.52z"/>
		</g>
		<g>
			<path class="st0" d="M930.77,342.65v6.06h-46.92c0.15,15.92,8.88,23.95,23.96,23.95c7.61,0,14.79-2.11,20.85-4.79v9.58
				c-5.35,2.68-14.09,4.93-22.97,4.93c-20.14,0-34.37-12.4-34.37-37.05c0-21.7,11.7-36.91,31.42-36.91
				C921.19,308.41,930.77,321.66,930.77,342.65z M883.85,339.69h35.64c0-13.81-5.91-21.56-16.48-21.56
				C891.18,318.13,884.28,327.01,883.85,339.69z"/>
		</g>
		<g>
			<path class="st0" d="M1055.32,334.2v46.35h-12.4v-43.11c0-12.12-5.07-19.02-15.79-19.02c-6.05,0-12.54,2.68-17.46,7.61
				c0.42,1.55,0.56,3.1,0.56,4.79v49.74h-12.4v-43.11c0-12.82-5.5-19.02-15.78-19.02c-6.34,0-12.26,2.68-17.05,7.33v54.81h-12.41
				v-70.87h11.42v8.88h0.28c6.91-6.48,14.94-10.15,22.55-10.15c10.84,0,17.75,4.93,20.99,11.55c7.47-7.47,15.92-11.55,24.09-11.55
				C1047.43,308.41,1055.32,317.43,1055.32,334.2z"/>
		</g>
		<g>
			<path class="st0" d="M1095.75,382.38c-5.78,0-13.38-1.13-19.58-3.67v-9.86c5.78,2.53,11.84,4.51,18.46,4.51
				c7.32,0,13.81-2.39,13.81-11.98c0-14.93-31.84-8.31-31.84-33.11c0-13.67,10.14-19.87,24.09-19.87c7.18,0,13.24,1.55,16.9,3.1
				v9.72c-4.5-2.25-9.86-3.66-15.22-3.66c-8.17,0-13.52,3.1-13.52,10.85c0,15.78,32.12,8.45,32.12,33.25
				C1120.96,376.6,1109.41,382.38,1095.75,382.38z"/>
		</g>
	</g>
	<g>
		<g>
			<path class="st1" d="M130.42,508.14v23.88h-5.9v-33.74h5.43v6.04h0.13c4.16-4.76,7.72-6.71,12.07-6.71v5.7
				C138.13,503.31,133.96,504.99,130.42,508.14z"/>
		</g>
		<g>
			<path class="st1" d="M174.48,513.98v2.88h-22.34c0.07,7.58,4.23,11.4,11.41,11.4c3.62,0,7.04-1,9.93-2.28v4.56
				c-2.55,1.27-6.71,2.35-10.93,2.35c-9.59,0-16.37-5.9-16.37-17.64c0-10.33,5.56-17.57,14.96-17.57
				C169.91,497.68,174.48,503.98,174.48,513.98z M152.14,512.57h16.97c0-6.57-2.81-10.26-7.85-10.26
				C155.62,502.31,152.34,506.53,152.14,512.57z"/>
		</g>
		<g>
			<path class="st1" d="M195.59,497.68c3.76,0,6.78,1.21,9.72,3.89h0.07v-18.31h5.9v48.76h-5.5v-4.16h-0.07
				c-3.29,3.29-6.97,4.89-11.07,4.89c-8.38,0-13.61-6.51-13.61-17.04C181.04,504.52,186.54,497.68,195.59,497.68z M196.73,528.06
				c3.02,0,6.24-1.27,8.66-3.62v-18.65c-2.81-2.41-5.43-3.49-8.52-3.49c-5.97,0-9.72,5.16-9.72,13.41
				C187.14,523.5,190.69,528.06,196.73,528.06z"/>
		</g>
		<g>
			<path class="st1" d="M288.87,509.95v22.07h-5.9v-20.53c0-5.77-2.42-9.05-7.52-9.05c-2.88,0-5.97,1.27-8.31,3.62
				c0.2,0.74,0.26,1.48,0.26,2.28v23.68h-5.9v-20.53c0-6.1-2.62-9.05-7.52-9.05c-3.02,0-5.83,1.27-8.11,3.49v26.09h-5.9v-33.74h5.43
				v4.22h0.13c3.29-3.08,7.11-4.83,10.73-4.83c5.17,0,8.45,2.35,10,5.5c3.56-3.56,7.58-5.5,11.47-5.5
				C285.11,497.68,288.87,501.97,288.87,509.95z"/>
		</g>
		<g>
			<path class="st1" d="M325.41,513.98v2.88h-22.34c0.07,7.58,4.23,11.4,11.41,11.4c3.62,0,7.04-1,9.93-2.28v4.56
				c-2.55,1.27-6.71,2.35-10.93,2.35c-9.59,0-16.37-5.9-16.37-17.64c0-10.33,5.56-17.57,14.96-17.57
				C320.85,497.68,325.41,503.98,325.41,513.98z M303.07,512.57h16.97c0-6.57-2.81-10.26-7.84-10.26
				C306.56,502.31,303.27,506.53,303.07,512.57z"/>
		</g>
		<g>
			<path class="st1" d="M360.94,528.6c0.4,0,1.01-0.07,1.54-0.14v3.62c-1.14,0.4-2.41,0.74-3.89,0.74c-2.88,0-4.7-1.21-5.29-4.23
				c-2.49,2.62-6.11,4.23-10.73,4.23c-6.91,0-10.8-3.62-10.8-9.86c0-7.25,4.7-10.87,13.41-10.87h7.52v-2.35
				c0-5.16-2.15-7.38-7.72-7.38c-2.35,0-5.36,0.33-9.65,1.41l0.06-4.49c3.69-1.08,7.38-1.61,10.67-1.61
				c8.79,0,12.54,3.56,12.54,12.01v16.7C358.59,527.93,359.47,528.6,360.94,528.6z M344.44,528.19c3.08,0,5.83-0.81,8.25-2.95v-9.32
				h-6.24c-5.83,0-8.79,1.94-8.79,6.51C337.67,526.18,339.82,528.19,344.44,528.19z"/>
		</g>
		<g>
			<path class="st1" d="M383.26,528.19c1.94,0,3.9-0.4,5.37-0.81v4.63c-1.34,0.4-4.02,0.87-6.97,0.87c-5.43,0-9.53-2.48-9.53-9.59
				v-20.66h-5.97v-4.36h5.97v-9.19h5.9v9.19h10.53v4.36h-10.53v20.53C378.03,526.79,380.12,528.19,383.26,528.19z"/>
		</g>
		<g>
			<path class="st1" d="M428.73,532.89c-9.65,0-16.5-6.1-16.5-17.44c0-11.74,7.25-17.78,17.1-17.78c2.75,0,5.57,0.4,8.45,1.27v4.9
				c-2.75-1.01-5.3-1.48-7.78-1.48c-6.97,0-11.67,4.09-11.67,12.68c0,8.85,4.63,13.15,11.47,13.15c2.68,0,5.63-0.67,8.72-1.94v4.83
				C435.11,532.29,431.82,532.89,428.73,532.89z"/>
		</g>
		<g>
			<path class="st1" d="M451.8,520.15c0,4.83,3.08,7.78,8.18,7.78c3.01,0,6.17-1.27,8.38-3.42l0.06-26.23h5.9v33.74h-5.43v-4.16
				h-0.13c-2.95,3.02-7.18,4.83-11.13,4.83c-7.65,0-11.74-4.36-11.74-12.34v-22.07h5.9V520.15z"/>
		</g>
		<g>
			<path class="st1" d="M492.09,532.89c-2.75,0-6.37-0.53-9.32-1.74v-4.7c2.75,1.21,5.63,2.15,8.79,2.15c3.49,0,6.57-1.14,6.57-5.7
				c0-7.11-15.16-3.96-15.16-15.76c0-6.51,4.83-9.46,11.47-9.46c3.42,0,6.31,0.74,8.05,1.48v4.63c-2.15-1.07-4.7-1.74-7.25-1.74
				c-3.89,0-6.44,1.48-6.44,5.16c0,7.51,15.3,4.03,15.3,15.83C504.1,530.14,498.6,532.89,492.09,532.89z"/>
		</g>
		<g>
			<path class="st1" d="M525.55,528.19c1.94,0,3.89-0.4,5.37-0.81v4.63c-1.34,0.4-4.02,0.87-6.97,0.87c-5.43,0-9.52-2.48-9.52-9.59
				v-20.66h-5.97v-4.36h5.97v-9.19h5.9v9.19h10.53v4.36h-10.53v20.53C520.32,526.79,522.41,528.19,525.55,528.19z"/>
		</g>
		<g>
			<path class="st1" d="M551.98,532.89c-9.59,0-16.16-7.18-16.16-17.64c0-10.46,6.64-17.57,16.43-17.57c9.99,0,16.5,7.04,16.5,17.84
				C568.74,525.71,561.77,532.89,551.98,532.89z M552.31,502.37c-6.17,0-10.39,5.03-10.39,12.74c0,7.98,4.15,13.08,10.39,13.08
				c6.11,0,10.33-5.16,10.33-12.74C562.64,507.54,558.42,502.37,552.31,502.37z"/>
		</g>
		<g>
			<path class="st1" d="M626.02,509.95v22.07h-5.9v-20.53c0-5.77-2.42-9.05-7.52-9.05c-2.88,0-5.97,1.27-8.31,3.62
				c0.2,0.74,0.26,1.48,0.26,2.28v23.68h-5.9v-20.53c0-6.1-2.62-9.05-7.52-9.05c-3.02,0-5.83,1.27-8.11,3.49v26.09h-5.9v-33.74h5.43
				v4.22h0.13c3.29-3.08,7.11-4.83,10.73-4.83c5.17,0,8.45,2.35,10,5.5c3.56-3.56,7.58-5.5,11.47-5.5
				C622.26,497.68,626.02,501.97,626.02,509.95z"/>
		</g>
		<g>
			<path class="st1" d="M662.55,513.98v2.88h-22.34c0.07,7.58,4.23,11.4,11.41,11.4c3.62,0,7.04-1,9.93-2.28v4.56
				c-2.55,1.27-6.71,2.35-10.93,2.35c-9.59,0-16.37-5.9-16.37-17.64c0-10.33,5.56-17.57,14.95-17.57
				C657.99,497.68,662.55,503.98,662.55,513.98z M640.21,512.57h16.97c0-6.57-2.81-10.26-7.85-10.26
				C643.7,502.31,640.41,506.53,640.21,512.57z"/>
		</g>
		<g>
			<path class="st1" d="M677.16,508.14v23.88h-5.9v-33.74h5.43v6.04h0.13c4.16-4.76,7.72-6.71,12.07-6.71v5.7
				C684.87,503.31,680.71,504.99,677.16,508.14z"/>
		</g>
		<g>
			<path class="st1" d="M740.8,528.6c0.4,0,1.01-0.07,1.54-0.14v3.62c-1.14,0.4-2.41,0.74-3.89,0.74c-2.88,0-4.7-1.21-5.29-4.23
				c-2.49,2.62-6.11,4.23-10.73,4.23c-6.91,0-10.8-3.62-10.8-9.86c0-7.25,4.7-10.87,13.41-10.87h7.52v-2.35
				c0-5.16-2.15-7.38-7.72-7.38c-2.35,0-5.36,0.33-9.65,1.41l0.06-4.49c3.69-1.08,7.38-1.61,10.67-1.61
				c8.79,0,12.54,3.56,12.54,12.01v16.7C738.45,527.93,739.32,528.6,740.8,528.6z M724.3,528.19c3.08,0,5.83-0.81,8.25-2.95v-9.32
				h-6.24c-5.83,0-8.79,1.94-8.79,6.51C717.53,526.18,719.67,528.19,724.3,528.19z"/>
		</g>
		<g>
			<path class="st1" d="M757.02,532.89c-2.75,0-6.37-0.53-9.32-1.74v-4.7c2.75,1.21,5.63,2.15,8.79,2.15c3.49,0,6.57-1.14,6.57-5.7
				c0-7.11-15.16-3.96-15.16-15.76c0-6.51,4.83-9.46,11.47-9.46c3.42,0,6.31,0.74,8.05,1.48v4.63c-2.15-1.07-4.7-1.74-7.24-1.74
				c-3.89,0-6.44,1.48-6.44,5.16c0,7.51,15.3,4.03,15.3,15.83C769.03,530.14,763.53,532.89,757.02,532.89z"/>
		</g>
		<g>
			<path class="st1" d="M784.31,532.89c-2.75,0-6.37-0.53-9.32-1.74v-4.7c2.75,1.21,5.63,2.15,8.79,2.15c3.49,0,6.57-1.14,6.57-5.7
				c0-7.11-15.16-3.96-15.16-15.76c0-6.51,4.83-9.46,11.47-9.46c3.42,0,6.31,0.74,8.05,1.48v4.63c-2.15-1.07-4.7-1.74-7.25-1.74
				c-3.89,0-6.44,1.48-6.44,5.16c0,7.51,15.3,4.03,15.3,15.83C796.32,530.14,790.82,532.89,784.31,532.89z"/>
		</g>
		<g>
			<path class="st1" d="M810.13,520.15c0,4.83,3.08,7.78,8.18,7.78c3.01,0,6.17-1.27,8.38-3.42l0.06-26.23h5.9v33.74h-5.43v-4.16
				h-0.13c-2.95,3.02-7.18,4.83-11.13,4.83c-7.65,0-11.74-4.36-11.74-12.34v-22.07h5.9V520.15z"/>
		</g>
		<g>
			<path class="st1" d="M849.15,508.14v23.88h-5.9v-33.74h5.43v6.04h0.13c4.16-4.76,7.72-6.71,12.07-6.71v5.7
				C856.86,503.31,852.7,504.99,849.15,508.14z"/>
		</g>
		<g>
			<path class="st1" d="M893.35,528.6c0.4,0,1.01-0.07,1.54-0.14v3.62c-1.14,0.4-2.41,0.74-3.89,0.74c-2.88,0-4.7-1.21-5.29-4.23
				c-2.49,2.62-6.11,4.23-10.73,4.23c-6.91,0-10.8-3.62-10.8-9.86c0-7.25,4.7-10.87,13.41-10.87h7.52v-2.35
				c0-5.16-2.15-7.38-7.72-7.38c-2.35,0-5.36,0.33-9.65,1.41l0.06-4.49c3.69-1.08,7.38-1.61,10.67-1.61
				c8.79,0,12.54,3.56,12.54,12.01v16.7C891,527.93,891.87,528.6,893.35,528.6z M876.85,528.19c3.08,0,5.83-0.81,8.25-2.95v-9.32
				h-6.24c-5.84,0-8.79,1.94-8.79,6.51C870.08,526.18,872.22,528.19,876.85,528.19z"/>
		</g>
		<g>
			<path class="st1" d="M924.86,510.22c0-4.89-2.82-7.78-7.72-7.78c-3.15,0-6.37,1.21-8.85,3.49v26.09h-5.9v-33.74h5.43v4.22h0.13
				c3.02-2.88,7.11-4.83,11.81-4.83c6.9,0,11,4.16,11,12.27v22.07h-5.9V510.22z"/>
		</g>
		<g>
			<path class="st1" d="M955.5,532.89c-9.65,0-16.5-6.1-16.5-17.44c0-11.74,7.24-17.78,17.1-17.78c2.75,0,5.57,0.4,8.45,1.27v4.9
				c-2.75-1.01-5.3-1.48-7.78-1.48c-6.98,0-11.67,4.09-11.67,12.68c0,8.85,4.63,13.15,11.47,13.15c2.68,0,5.63-0.67,8.72-1.94v4.83
				C961.88,532.29,958.58,532.89,955.5,532.89z"/>
		</g>
		<g>
			<path class="st1" d="M998.35,513.98v2.88h-22.34c0.07,7.58,4.23,11.4,11.41,11.4c3.62,0,7.04-1,9.93-2.28v4.56
				c-2.55,1.27-6.71,2.35-10.93,2.35c-9.59,0-16.37-5.9-16.37-17.64c0-10.33,5.56-17.57,14.96-17.57
				C993.78,497.68,998.35,503.98,998.35,513.98z M976.01,512.57h16.97c0-6.57-2.81-10.26-7.85-10.26
				C979.5,502.31,976.21,506.53,976.01,512.57z"/>
		</g>
	</g>
	<g>
		<g>
			<path class="st2" d="M636.11,147.57H489.77c-40.68,0-73.79-33.1-73.79-73.79S449.09,0,489.77,0h146.33
				c6.75,0,12.22,5.47,12.22,12.22s-5.47,12.22-12.22,12.22H489.77c-27.21,0-49.34,22.13-49.34,49.34s22.13,49.34,49.34,49.34
				h146.33c6.75,0,12.22,5.47,12.22,12.22C648.33,142.1,642.86,147.57,636.11,147.57z"/>
		</g>
		<g>
			<path class="st2" d="M631.19,209.14H484.86c-6.75,0-12.22-5.47-12.22-12.22s5.47-12.22,12.22-12.22h146.33
				c27.21,0,49.34-22.13,49.34-49.34s-22.13-49.34-49.34-49.34H484.86c-6.75,0-12.22-5.47-12.22-12.22s5.47-12.22,12.22-12.22
				h146.33c40.69,0,73.79,33.1,73.79,73.79S671.88,209.14,631.19,209.14z"/>
		</g>
	</g>
	<g>
		<path class="st1" d="M1048.1,447.7H72.86c-2.01,0-3.65-1.63-3.65-3.65s1.63-3.65,3.65-3.65h975.23c2.01,0,3.65,1.63,3.65,3.65
			S1050.11,447.7,1048.1,447.7z"/>
	</g>
</g>
</svg>
