<?xml version="1.0" encoding="UTF-8"?>
<svg width="108px" height="104px" viewBox="0 0 108 104" version="1.1" xmlns="http://www.w3.org/2000/svg" xmlns:xlink="http://www.w3.org/1999/xlink">
    <!-- Generator: Sketch 63.1 (92452) - https://sketch.com -->
    <title>Path 2</title>
    <desc>Created with Sketch.</desc>
    <g id="Page-1" stroke="none" stroke-width="1" fill="none" fill-rule="evenodd">
        <path d="M79.2949484,59.9058719 C77.7199234,60.0036601 75.9192712,60.1305409 75.0910568,58.6710972 L75.0469146,58.5905959 C74.2567353,57.0983727 74.8189593,55.2635829 76.2997503,54.4473081 L76.3814291,54.4038023 L103.350367,40.5316819 C104.805122,39.8679599 105.983476,39.825653 106.885429,40.4047612 C107.787382,40.9838693 108.141914,42.0103812 107.949025,43.4842968 L105.972895,73.4033006 C105.859936,75.1135082 104.36169,76.4096549 102.626467,76.2983252 C100.921162,76.188915 100.256905,75.0294826 99.6845227,73.0883851 L99.689097,73.0001402 C97.6371768,65.4246478 95.3401266,63.4534301 92.7979462,67.086487 C72.8983619,89.895997 42.9255256,101.173068 3.13497275,100.997993 C1.39609455,100.990342 -0.00725172971,99.5948217 0,97.8810114 C0.00827396858,96.167201 1.42420631,94.7840856 3.16308452,94.7917365 C40.8509627,94.9575605 68.8681646,84.5597393 87.462636,63.6761801 C89.8055263,60.1390057 87.0829637,58.8822363 79.2949484,59.9058719 Z" id="Path-2" fill="#1ADD21" fill-rule="nonzero"></path>
    </g>
</svg>