<?xml version="1.0" encoding="utf-8"?>
<!-- Generator: Adobe Illustrator 21.0.2, SVG Export Plug-In . SVG Version: 6.00 Build 0)  -->
<svg version="1.1" id="Слой_1" xmlns="http://www.w3.org/2000/svg" xmlns:xlink="http://www.w3.org/1999/xlink" x="0px" y="0px"
	 viewBox="0 0 531 419.6" style="enable-background:new 0 0 531 419.6;" xml:space="preserve">
<style type="text/css">
	.st0{fill:url(#SVGID_1_);}
	.st1{fill:url(#SVGID_2_);}
	.st2{fill:#6B6B6B;}
	.st3{fill:url(#SVGID_3_);}
	.st4{fill:#A0A4B0;}
	.st5{fill:#8B8E99;}
	.st6{fill:url(#SVGID_4_);}
	.st7{fill:#B5B9C7;}
	.st8{fill:#9295A1;}
	.st9{fill:url(#SVGID_5_);}
	.st10{fill:url(#SVGID_6_);}
	.st11{fill:url(#SVGID_7_);}
	.st12{fill:url(#SVGID_8_);}
	.st13{fill:url(#SVGID_9_);}
	.st14{fill:url(#SVGID_10_);}
	.st15{fill:url(#SVGID_11_);}
	.st16{fill:url(#SVGID_12_);}
	.st17{fill:url(#SVGID_13_);}
	.st18{fill:url(#SVGID_14_);}
	.st19{fill:url(#SVGID_15_);}
	.st20{fill:url(#SVGID_16_);}
	.st21{fill:#609A3E;}
	.st22{fill:url(#SVGID_17_);}
	.st23{fill:url(#SVGID_18_);}
	.st24{fill:url(#SVGID_19_);}
	.st25{fill:#FFFFFF;}
	.st26{fill:#EEA886;}
	.st27{fill:#3F74A0;}
	.st28{fill:#3C4585;}
	.st29{fill:#DB9C7C;}
	.st30{fill:#4E5AAD;}
	.st31{fill:#C24646;}
	.st32{fill:#5360B8;}
	.st33{fill:#EB4747;}
	.st34{fill:#665249;}
	.st35{fill:#A77860;}
	.st36{fill:url(#SVGID_20_);}
	.st37{fill:#FF8447;}
	.st38{fill:#152B3D;}
	.st39{fill:#CF8C6C;}
	.st40{fill:#323657;}
	.st41{fill:#443C7D;}
	.st42{fill:#DEDEDE;}
	.st43{fill:#202338;}
	.st44{fill:#1A598C;}
	.st45{fill:url(#SVGID_21_);}
	.st46{fill:#206DAB;}
	.st47{fill:#FBE7DF;}
	.st48{fill:#FFEBE3;}
	.st49{fill:#0E2D3D;}
	.st50{fill:#78C2FF;}
	.st51{fill:#163342;}
	.st52{fill:#1D3B54;}
	.st53{fill:#285173;}
	.st54{fill:#FF7E55;}
	.st55{fill:#183C59;}
	.st56{fill:#616161;}
	.st57{fill:#E0CEC7;}
	.st58{fill:#EEA987;}
	.st59{fill:#292C47;}
	.st60{fill:#E2D2CA;}
	.st61{fill:#424773;}
	.st62{fill:#3A3F47;}
	.st63{fill:#FFCE55;}
	.st64{fill:#967932;}
	.st65{fill:#F5F5F5;}
	.st66{fill:#E8E8E8;}
</style>
<g>
	<linearGradient id="SVGID_1_" gradientUnits="userSpaceOnUse" x1="58.5418" y1="68.4626" x2="219.9614" y2="134.9073">
		<stop  offset="0" style="stop-color:#FFEBE3"/>
		<stop  offset="1" style="stop-color:#C4B4B0"/>
	</linearGradient>
	<path class="st0" d="M187.8,97.8l4.1-8.6l-5.8-5.8l2.7-3.2l-5.4-6.7l-11.5-38L86.3,72.7l14.2,35.6l11.2,9.5l-0.8,14.4l5.2,6.1
		l18.8,40.9c1.9,3.4,21.7-4,44.1-16.6c22.4-12.6,39-25.7,37.1-29.1L187.8,97.8z"/>
	<linearGradient id="SVGID_2_" gradientUnits="userSpaceOnUse" x1="81.6742" y1="45.2326" x2="149.9959" y2="57.9959">
		<stop  offset="0" style="stop-color:#FFEBE3"/>
		<stop  offset="1" style="stop-color:#C4B4B0"/>
	</linearGradient>
	<path class="st1" d="M171.8,35.5c1.6,3.6-16.3,14.9-39.9,25.1c-23.6,10.3-44,15.6-45.6,12c-1.6-3.6,16.3-14.9,39.9-25.1
		C149.8,37.3,170.2,31.9,171.8,35.5z"/>
	
		<ellipse transform="matrix(0.9172 -0.3985 0.3985 0.9172 -14.1068 51.3041)" class="st2" cx="116.4" cy="59.6" rx="21.4" ry="3.3"/>
</g>
<g>
	
		<linearGradient id="SVGID_3_" gradientUnits="userSpaceOnUse" x1="3235.769" y1="-6189.7422" x2="3423.0435" y2="-6189.7422" gradientTransform="matrix(0.7152 0.6989 -0.6989 0.7152 -6499.769 2208.6843)">
		<stop  offset="0" style="stop-color:#FFEBE3"/>
		<stop  offset="1" style="stop-color:#E3D1CB"/>
	</linearGradient>
	<path class="st3" d="M205.9,5.5c0,0-14.9-7.2-32.3,3.8c0,0,35.1,99,35.9,201.2c0,0.3,0,0.7,0,1c0,0,0,0,0,0c0,0,0,0,0,0
		c0,0,0,0.1,0,0.1c0.8,3.7,8.1,5.3,16.5,3.6c8.4-1.7,17.4-6.8,16.6-10.5c0-0.1-0.1-0.2-0.1-0.3C240.5,197.3,206.8,81,205.9,5.5z"/>
	<path class="st4" d="M205.9,5.5c0.2,2.3-2.8,4.5-7.1,6.1c-2.8,1-6.1,1.8-9.5,2.1c-2.4,0.2-4.7,0.2-6.7-0.1c-5.3-0.7-9-2.7-9.2-5.4
		c-0.3-3.8,6.3-7.4,14.8-8.1C196.7-0.6,205.6,1.8,205.9,5.5z"/>
	<path class="st5" d="M200.8,8.9c0.1,0.9-0.7,1.9-2,2.7c-2.8,1-6.1,1.8-9.5,2.1c-2.4,0.2-4.7,0.2-6.7-0.1c-1.9-0.7-3.1-1.7-3.2-2.9
		c-0.2-2.5,4.1-4.9,9.7-5.3C194.7,4.9,200.5,6.5,200.8,8.9z"/>
	
		<linearGradient id="SVGID_4_" gradientUnits="userSpaceOnUse" x1="3204.8186" y1="-6240.1709" x2="3306.4341" y2="-6183.3535" gradientTransform="matrix(0.7152 0.6989 -0.6989 0.7152 -6499.769 2208.6843)">
		<stop  offset="0" style="stop-color:#FFEBE3"/>
		<stop  offset="1" style="stop-color:#E3D1CB"/>
	</linearGradient>
	<path class="st6" d="M179.7,13.2c0,0-15.6-5.6-31.7,7c0,0,45,94.9,56.1,196.6c0,0.3,0,0.7,0.1,1c0,0,0,0,0,0c0,0,0,0,0,0
		c0,0,0,0.1,0,0.1c1.1,3.6,8.6,4.5,16.8,1.9c8.2-2.5,16.6-8.5,15.5-12.1c0-0.1-0.1-0.2-0.1-0.3C233.5,200.4,188.2,88.2,179.7,13.2z"
		/>
	<path class="st7" d="M179.7,13.2c0.4,2.2-2.3,4.8-6.5,6.8c-2.7,1.3-5.9,2.4-9.2,3c-2.4,0.4-4.6,0.6-6.7,0.6
		c-5.3-0.1-9.2-1.7-9.7-4.4c-0.7-3.7,5.5-8,13.9-9.6C169.9,8,179,9.5,179.7,13.2z"/>
	<path class="st8" d="M174.9,17.1c0.2,0.9-0.5,1.9-1.7,2.9c-2.7,1.3-5.9,2.4-9.2,3c-2.4,0.4-4.6,0.6-6.7,0.6
		c-1.9-0.5-3.3-1.3-3.5-2.6c-0.5-2.4,3.6-5.3,9.1-6.3C168.5,13.7,174.5,14.6,174.9,17.1z"/>
	
		<linearGradient id="SVGID_5_" gradientUnits="userSpaceOnUse" x1="3206.8584" y1="-6184.5967" x2="3382.9011" y2="-6184.5967" gradientTransform="matrix(0.7152 0.6989 -0.6989 0.7152 -6499.769 2208.6843)">
		<stop  offset="0" style="stop-color:#FFEBE3"/>
		<stop  offset="1" style="stop-color:#E3D1CB"/>
	</linearGradient>
	<path class="st9" d="M233.9,25.8c0,0-14.1-10.4-33.2-3.4c0,0,21,105.7,6.7,206.9c-0.1,0.3-0.1,0.6-0.1,1c0,0,0,0,0,0c0,0,0,0,0,0
		c0,0,0,0.1,0,0.1c0.2,3.8,7.5,7.1,16.2,7.2c8.7,0.2,18.6-2.8,18.4-6.7c0-0.1,0-0.2-0.1-0.4C240.7,223,223.7,100.6,233.9,25.8z"/>
	<path class="st7" d="M233.9,25.8c-0.1,2.3-3.5,3.9-8.1,4.5c-3,0.4-6.4,0.4-9.9-0.1c-2.5-0.3-4.8-0.9-6.8-1.6
		c-5.2-1.8-8.7-4.6-8.6-7.4c0.2-3.8,7.5-5.9,16.2-4.7C225.5,17.7,234.1,22,233.9,25.8z"/>
	<path class="st8" d="M228.2,28c-0.1,1-1,1.7-2.4,2.3c-3,0.4-6.4,0.4-9.9-0.1c-2.5-0.3-4.8-0.9-6.8-1.6c-1.8-1.1-2.9-2.3-2.8-3.6
		c0.1-2.5,4.9-3.9,10.6-3.1C222.6,22.7,228.3,25.5,228.2,28z"/>
	
		<linearGradient id="SVGID_6_" gradientUnits="userSpaceOnUse" x1="3280.271" y1="-6198.6416" x2="3442.2402" y2="-6198.6416" gradientTransform="matrix(0.7152 0.6989 -0.6989 0.7152 -6499.769 2208.6843)">
		<stop  offset="0" style="stop-color:#FFEBE3"/>
		<stop  offset="1" style="stop-color:#E3D1CB"/>
	</linearGradient>
	<path class="st10" d="M261.1,23.9c0,0-12.9-11.9-32.7-7c0,0,9.6,107.3-15.4,206.4c-0.1,0.3-0.2,0.6-0.2,0.9c0,0,0,0,0,0
		c0,0,0,0,0,0c0,0,0,0.1,0,0.1c-0.2,3.8,6.7,7.8,15.3,8.9c8.7,1.1,18.8-0.8,19-4.7c0-0.1,0-0.2,0-0.4
		C246.8,220.7,242.9,97.2,261.1,23.9z"/>
	<path class="st7" d="M261.1,23.9c-0.4,2.3-3.9,3.5-8.5,3.6c-3,0.1-6.5-0.3-9.8-1.1c-2.4-0.6-4.6-1.4-6.6-2.3
		c-5-2.4-8.2-5.6-7.7-8.2c0.6-3.7,8.1-5.1,16.6-3C253.6,14.9,261.7,20.2,261.1,23.9z"/>
	<path class="st8" d="M255.2,25.5c-0.2,0.9-1.1,1.6-2.6,2c-3,0.1-6.5-0.3-9.8-1.1c-2.4-0.6-4.6-1.4-6.6-2.3
		c-1.7-1.3-2.6-2.6-2.4-3.9c0.4-2.5,5.3-3.3,10.9-2C250.2,19.6,255.6,23,255.2,25.5z"/>
</g>
<g>
	
		<linearGradient id="SVGID_7_" gradientUnits="userSpaceOnUse" x1="3263.4792" y1="-7601.1514" x2="3431.731" y2="-7601.1514" gradientTransform="matrix(0.5841 0.8117 -0.8117 0.5841 -7818.4541 1826.8351)">
		<stop  offset="0" style="stop-color:#FFEBE3"/>
		<stop  offset="1" style="stop-color:#EDDAD4"/>
	</linearGradient>
	<path class="st11" d="M399.6,141.1l-86-125.9c0,0-102.5,38.2-95.5,58.1c0.3,1,0.9,1.7,1.6,2.3l84.4,123.6L399.6,141.1z"/>
	
		<linearGradient id="SVGID_8_" gradientUnits="userSpaceOnUse" x1="3467.3809" y1="-7565.6987" x2="3438.1003" y2="-7591.6011" gradientTransform="matrix(0.5841 0.8117 -0.8117 0.5841 -7818.4541 1826.8351)">
		<stop  offset="0" style="stop-color:#FFEBE3"/>
		<stop  offset="1" style="stop-color:#C4B4B0"/>
	</linearGradient>
	<path class="st12" d="M399.6,141.1c0,0-102.5,38.2-95.5,58.1c7,20,97.6-46.7,97.6-46.7L399.6,141.1z"/>
	
		<linearGradient id="SVGID_9_" gradientUnits="userSpaceOnUse" x1="3229.0996" y1="-7625.7393" x2="3463.3411" y2="-7612.7881" gradientTransform="matrix(0.5841 0.8117 -0.8117 0.5841 -7818.4541 1826.8351)">
		<stop  offset="0" style="stop-color:#FFEBE3"/>
		<stop  offset="1" style="stop-color:#C4B4B0"/>
	</linearGradient>
	<path class="st13" d="M311.1,26.6c0,0-45.9,17.7-54.8,24.5L331.5,159c0,0,43.3-21.8,54.5-23.6L311.1,26.6z"/>
	
		<linearGradient id="SVGID_10_" gradientUnits="userSpaceOnUse" x1="3217.0579" y1="-7576.8301" x2="3443.4177" y2="-7568.9468" gradientTransform="matrix(0.5841 0.8117 -0.8117 0.5841 -7818.4541 1826.8351)">
		<stop  offset="0" style="stop-color:#FFEBE3"/>
		<stop  offset="1" style="stop-color:#C4B4B0"/>
	</linearGradient>
	<path class="st14" d="M252.3,54l73.9,108.5c0,0-16.2,8.4-19.3,13.9L232.6,68.1C232.6,68.1,234.3,62.7,252.3,54z"/>
</g>
<g>
	
		<linearGradient id="SVGID_11_" gradientUnits="userSpaceOnUse" x1="1879.9244" y1="-1757.0491" x2="1969.0333" y2="-1609.2721" gradientTransform="matrix(0.9664 0.257 -0.257 0.9664 -1912.9336 1217.8479)">
		<stop  offset="0" style="stop-color:#FFEBE3"/>
		<stop  offset="1" style="stop-color:#E3D1CB"/>
	</linearGradient>
	<path class="st15" d="M429,58.4c-9.4-7.9-2.5-18.5-2.5-18.5l-20.8-5.5l-20.8-5.5c0,0,0.7,12.5-11.4,14.8
		c-12.1,2.3-22.1-2.1-37.2,54.7c-15.1,56.8-2.4,58.2,34.2,67.9c36.6,9.7,48.4,14.8,63.5-41.9C449.2,67.5,438.3,66.3,429,58.4z"/>
	<linearGradient id="SVGID_12_" gradientUnits="userSpaceOnUse" x1="383.0308" y1="29.5534" x2="430.8492" y2="29.5534">
		<stop  offset="0" style="stop-color:#FFEBE3"/>
		<stop  offset="1" style="stop-color:#E3D1CB"/>
	</linearGradient>
	<polygon class="st16" points="428.3,40.4 383,28.4 385.6,18.7 430.8,30.7 	"/>
</g>
<g>
	<linearGradient id="SVGID_13_" gradientUnits="userSpaceOnUse" x1="410.8651" y1="178.6134" x2="474.5024" y2="178.6134">
		<stop  offset="5.181350e-03" style="stop-color:#3C6127"/>
		<stop  offset="1" style="stop-color:#639C38"/>
	</linearGradient>
	<path class="st17" d="M438.7,209.4c-10.8,4.8-21,7.4-25.5,3.7c-0.3-0.2-0.5-0.5-0.7-0.7c-2.4-2.8-2.4-8.3,1.4-17.5
		c10.1-24.5,26.9-25.5,43.3-30.3c16.3-4.7,13.7-21.9,13.7-22.3C484.3,182.5,457,201.3,438.7,209.4z"/>
	<g>
		
			<linearGradient id="SVGID_14_" gradientUnits="userSpaceOnUse" x1="3500.6372" y1="-6704.6504" x2="3500.6372" y2="-6757.9966" gradientTransform="matrix(0.6524 0.7579 -0.7579 0.6524 -6958.5757 1939.1954)">
			<stop  offset="5.181350e-03" style="stop-color:#3C6127"/>
			<stop  offset="1" style="stop-color:#639C38"/>
		</linearGradient>
		<path class="st18" d="M413.3,213.2c-0.3-0.2-0.5-0.5-0.7-0.7c2.8-4.6,8.9-13.4,15.6-17.5c3.2-1.9,6.7-3.5,10.5-5.3
			c7.1-3.2,14.4-6.6,20.1-12.5l0.7,0.7c-5.8,6.1-13.2,9.4-20.4,12.7c-3.7,1.7-7.2,3.3-10.3,5.2C422.1,199.8,416,208.7,413.3,213.2z"
			/>
	</g>
</g>
<g>
	<linearGradient id="SVGID_15_" gradientUnits="userSpaceOnUse" x1="386.9781" y1="224.7681" x2="487.854" y2="224.7681">
		<stop  offset="5.181350e-03" style="stop-color:#3C6127"/>
		<stop  offset="1" style="stop-color:#639C38"/>
	</linearGradient>
	<path class="st19" d="M461.6,240.9c-13.5-0.4-20-12.4-38.8,3.8c-16.2,13.9-31.1-7.8-34.9-14.1c-0.6-1-0.9-1.6-0.9-1.6
		s0.3,0.1,0.8,0.3c3.1,1.3,15.2,5.8,19.9-3.1c5.5-10.2,18-23.2,30-16.8c12,6.4,16.6-2.7,27.4-8.1c10.8-5.4,22.8,10.8,22.8,10.8
		S475.1,241.3,461.6,240.9z"/>
	<g>
		
			<linearGradient id="SVGID_16_" gradientUnits="userSpaceOnUse" x1="3029.8452" y1="-9448.2959" x2="3029.8452" y2="-9514.04" gradientTransform="matrix(0.3905 0.9206 -0.9206 0.3905 -9491.1602 1139.7292)">
			<stop  offset="5.181350e-03" style="stop-color:#3C6127"/>
			<stop  offset="1" style="stop-color:#639C38"/>
		</linearGradient>
		<path class="st20" d="M421.2,229.3c-3.3,3.8-6.8,7.8-13.1,9.1c-8.6,1.8-16-3.7-20.2-7.9c-0.6-1-0.9-1.6-0.9-1.6s0.3,0.1,0.8,0.3
			c3.9,4.1,11.4,10.2,20.2,8.4c6.1-1.3,9.4-5.1,12.7-8.9c3.8-4.3,7.6-8.8,15.6-9.1c3.5-0.1,6.5,0.7,9.3,1.5c4.1,1.2,8,2.2,12.9,0.1
			l0.3,0.7c-5.1,2.3-9.2,1.1-13.4,0c-2.8-0.8-5.7-1.6-9.1-1.5C428.6,220.8,425,224.9,421.2,229.3z"/>
	</g>
</g>
<g>
	<g>
		<path class="st21" d="M137.6,227.8c-5.4,17.2,19.7,54.6,23.5,60c0.3,0.4,0.5,0.7,0.5,0.7s-1-0.2-2.6-0.5
			c-11-2.4-52.9-13.5-55.2-42.8c-2.6-33.8-18-21.3-41-45.6c-23-24.3-1.1-52.3-1.1-52.3C103.8,160.3,143.5,209.2,137.6,227.8z"/>
		<g>
			
				<linearGradient id="SVGID_17_" gradientUnits="userSpaceOnUse" x1="-4038.9773" y1="2429.302" x2="-4038.9773" y2="2342.0591" gradientTransform="matrix(0.8619 -0.507 0.507 0.8619 2404.7971 -3850.3501)">
				<stop  offset="5.181350e-03" style="stop-color:#3C6127"/>
				<stop  offset="1" style="stop-color:#639C38"/>
			</linearGradient>
			<path class="st22" d="M161.6,288.5c0,0-1-0.2-2.6-0.5c-0.5-0.4-1.1-0.8-1.7-1.3c-10.8-8.3-24.5-20-28.5-28.6
				c-2.4-5.1-4.4-11.3-6.3-17.3c-4-12.5-8.1-25.5-16.8-30.4c-13.2-7.4-20.2-25.6-20.5-26.3l1.4-0.5c0.1,0.2,7.1,18.4,19.8,25.6
				c9.2,5.1,13.4,18.4,17.4,31.2c1.9,5.9,3.8,12.1,6.2,17.1c4,8.4,18.3,20.7,31,30.3C161.4,288.2,161.6,288.5,161.6,288.5z"/>
		</g>
	</g>
	<g>
		<path class="st21" d="M152.2,260.6c1.6,16,12.7,22,16.2,23.5c0.6,0.3,1,0.4,1,0.4c-0.6,0.3-1.4,0.5-2.4,0.7
			c-11.7,2.5-45-0.1-55.2-17.6c-11-18.9-23.4-1.7-43.2-13.5c-26.9-16.1-9.8-43.3-9.8-43.3c-1.6,11.5,22.6,29.5,43.9,27.1
			C124,235.3,150.3,241.6,152.2,260.6z"/>
		<g>
			
				<linearGradient id="SVGID_18_" gradientUnits="userSpaceOnUse" x1="-9076.585" y1="2112.3081" x2="-9076.585" y2="2043.2804" gradientTransform="matrix(0.418 -0.9084 0.9084 0.418 2045.9896 -8843.7754)">
				<stop  offset="5.181350e-03" style="stop-color:#3C6127"/>
				<stop  offset="1" style="stop-color:#639C38"/>
			</linearGradient>
			<path class="st23" d="M132.4,266.4c4.9,6.3,9.4,12.2,16.4,13c6.1,0.7,13.2,2.6,19.6,4.7c0.6,0.3,1,0.4,1,0.4
				c-0.6,0.3-1.4,0.5-2.4,0.7c-6.1-1.9-12.7-3.7-18.4-4.3c-7.6-0.8-12.3-7-17.4-13.5c-5.7-7.4-11.7-15-22.2-15.5
				c-20.2-1-32.9-7.8-33-7.9l0.7-1.3c0.1,0.1,12.5,6.8,32.4,7.7C120.3,250.8,126.5,258.7,132.4,266.4z"/>
		</g>
	</g>
</g>
<linearGradient id="SVGID_19_" gradientUnits="userSpaceOnUse" x1="529.786" y1="247.6115" x2="230.9051" y2="247.6115">
	<stop  offset="0" style="stop-color:#FFAE70"/>
	<stop  offset="1" style="stop-color:#FFD970"/>
</linearGradient>
<path class="st24" d="M467.4,117.4c0,0-46,98.7-83.4,260.4H159.9c-37.4-161.7-83.4-260.4-83.4-260.4H467.4z"/>
<g>
	<path class="st25" d="M334.8,261l-12.7,13.9c4.7,4.3,8.2,11.4,7.6,15.3c-0.1,0.6-0.3,2-3.4,3.3c-7.7,3.3-30.3,2-46.2-0.1l1.1-9
		l-37.6,13.4l33.1,23.7l1.1-9.5c6.9,0.9,18.9,2.2,30.6,2.2c9.5,0,18.9-0.9,25.2-3.6c8.1-3.4,13.2-9.6,14.6-17.4
		C350.2,281.5,342.7,268.3,334.8,261z"/>
	<path class="st25" d="M236.3,240.4l8.2,5.9l6.3-39.4l-36.7,17.7l7,5c-7.5,10.3-24.1,34.4-25.6,49.5c-0.9,8.7,2.1,16.2,8.3,21.2
		c5.5,4.4,13,6.1,20.2,6.1c5.2,0,10.4-0.9,14.6-2.3l-6.1-17.8c-6,2.1-14,1.7-17.1-0.7c-0.5-0.4-1.6-1.2-1.3-4.6
		C215,272.5,226.9,253.4,236.3,240.4z"/>
	<path class="st25" d="M321.9,223.6c-4.6-11.3-16.7-39.2-29-48.7c-7-5.3-14.9-6.8-22.4-4.1c-11.4,4.1-19.1,17.2-21.5,27.7l18.3,4.2
		c1.4-6.2,5.9-12.8,9.6-14.2c0.6-0.2,1.9-0.7,4.5,1.3c6.8,5.2,17.1,26,23.1,41l-8.7,3.6l30.3,26.1l4.3-40.5L321.9,223.6z"/>
</g>
<g>
	<g>
		<path class="st26" d="M230,239.3c0,0-0.3-2.7,0.3-3.7c0.7-1,2.8-1.8,5.7-2.5c2.7-0.7,8.8-2.8,9-2.5c0.2,0.3-0.1,1.9-4.5,4.5
			c-4.5,2.6-6,3.1-6.3,4.7C233.9,241.6,230,239.3,230,239.3z"/>
		<path class="st26" d="M173.2,242.6c0,0-0.2-4.5-0.8-5.4c-0.7-1-2.8-1.8-5.7-2.5c-2.7-0.7-8.3-3.6-8.5-3.3c-0.2,0.3-0.5,2.7,4,5.3
			c4.5,2.6,6,3.1,6.3,4.7C168.7,243.1,173.2,242.6,173.2,242.6z"/>
		<path class="st26" d="M206.2,274.8c0,0-9.5,6.5-9,2.5c0.5-4-0.6-8.1-0.6-8.1s9.4-4.1,9-1.1c-0.1,0.7-0.1,1.4-0.1,2.1
			c0,0.8,0.1,1.7,0.2,2.4C205.9,273.9,206.2,274.8,206.2,274.8z"/>
		<path class="st27" d="M236.7,409.7c0,0,2.9,1.6,4.1,2.8c1.2,1.1,6.6,0.5,7.7,3.5c1.1,3-3.9,4.5-9.4,2.9c-5.5-1.6-6.4-2.7-8.3-3.6
			c-1.9-0.9,0.1-5.9,0.1-5.9L236.7,409.7z"/>
		<path class="st27" d="M181.5,402.2c0,0,0,2.3,0.4,4.6c0.3,2.3,3.1,7.1,2.9,8.9c-0.2,1.8-3.6,4.5-7.3,0.2
			c-2.8-3.3-1.8-8.6-2.7-10.1c-0.9-1.5-0.7-4.9,1.3-7C178.1,396.5,181.5,402.2,181.5,402.2z"/>
		<path class="st28" d="M221.3,324.8c0,0,14.5,27.4,15,31.3c0.5,3.8,1.1,45.1,1.7,47.8c0.6,2.7-0.9,4-0.9,4s-4.8,1.9-6.3-0.3
			c-1.4-2.2-1-3.5-1-3.5s-4.8-33.2-5.4-38.6c-0.6-5.5-16.1-28.7-17.4-26.6c-1.4,2.1-4,22.1-5.1,25c-1.2,2.9-18.6,36.7-19.9,36.7
			c-1.3,0-6.4-0.8-5.6-4.7c0.8-4,12.1-33.3,12.1-36.6c0-3.3,3.5-34.5,4.4-38.7C193.7,316.4,221.3,324.8,221.3,324.8z"/>
		<path class="st29" d="M236.7,410.1l0.1-1.7l-6-0.5l0.1,1.8c0,0,0.1,1,3,1.2C236.8,411,236.7,410.1,236.7,410.1z"/>
		<path class="st29" d="M181.9,400.6c0,0-0.5,2-0.6,2.4c-0.1,0.4-3.6,0.9-4.6-1c-1-1.9-0.5-2.3-0.4-3.2c0.1-0.6,0.4-1.2,0.4-1.2
			L181.9,400.6z"/>
		<path class="st30" d="M238.3,407.9c0,0-3.6,1.8-8.4,0.5c0,0-0.8-2.3-0.2-4.2c0,0,3.3,1.7,8.1-0.8
			C237.9,403.3,238.7,405.3,238.3,407.9z"/>
		<g>
			<g>
				<path class="st31" d="M196.6,328.7c0.1-1,0.1-1.4,0.1-1.4l-0.4-0.1c0,0,0,0.4-0.1,1.4L196.6,328.7z"/>
			</g>
			<g>
				<path class="st32" d="M179,392.6c0.4-0.9,0.9-1.9,1.4-3l0.4,0.2c-0.5,1.1-1,2.1-1.4,3L179,392.6z M181.8,386.6
					c0.4-1,0.9-2,1.4-3l0.4,0.2c-0.5,1-0.9,2-1.4,3L181.8,386.6z M184.5,380.6c0.5-1,0.9-2,1.4-3l0.4,0.2c-0.4,1-0.9,2-1.4,3
					L184.5,380.6z M187.2,374.5c0.5-1.1,0.9-2.1,1.3-3l0.4,0.2c-0.4,0.9-0.9,2-1.3,3L187.2,374.5z M189.9,368.5
					c0.5-1.2,0.9-2.2,1.3-3.1l0.4,0.2c-0.3,0.8-0.8,1.9-1.3,3.1L189.9,368.5z M192.1,362.2c0.2-0.9,0.4-2,0.7-3.3l0.4,0.1
					c-0.2,1.3-0.4,2.4-0.7,3.3L192.1,362.2z M193.3,355.6c0.1-1,0.3-2.2,0.5-3.4l0.4,0.1c-0.2,1.2-0.3,2.3-0.5,3.4L193.3,355.6z
					 M194.2,348.9c0.1-1.1,0.3-2.2,0.4-3.4l0.4,0.1c-0.1,1.2-0.3,2.3-0.4,3.4L194.2,348.9z M194.9,342.1c0.1-1.1,0.2-2.2,0.3-3.4
					l0.4,0.1c-0.1,1.2-0.2,2.3-0.3,3.4L194.9,342.1z M195.6,335.4c0.1-1.1,0.2-2.3,0.3-3.4l0.4,0.1c-0.1,1.1-0.2,2.3-0.3,3.4
					L195.6,335.4z"/>
			</g>
			<g>
				<path class="st31" d="M177.3,397.2c0,0,0.2-0.5,0.7-1.5l-0.4-0.2c-0.4,0.9-0.7,1.5-0.7,1.5L177.3,397.2z"/>
			</g>
		</g>
		<path class="st30" d="M183.1,400.8c0,0-6.6,0.1-7.6-4.4c0,0,0.8-2.4,1.5-3.1c0,0,1.1,3.7,7.2,4
			C184.2,397.3,183.8,399.6,183.1,400.8z"/>
		<path class="st26" d="M198.5,251.3c0,0,8.4-3,8.8,7.4c0.4,10.5-0.8,11.7-4.2,12.5c-3.4,0.8-7.2-0.4-10.2-8.2
			C190.1,255.5,193.2,251.9,198.5,251.3z"/>
		<path class="st33" d="M235.4,263.4c-0.7,1.7-8,12.7-8.9,14.8c-0.9,2-4.5,7.2-4.8,7.9c-0.3,0.8-1.3,9.2-2.3,11.6
			c-0.9,2.4,0,19.2,0.3,21.9c0.4,2.7,1.5,5.2,1.5,5.2s-14.9,3.2-29.7,4.4c0,0,1-7.1,0.8-9.8c-0.2-2.7-3.5-19.6-4.8-22.2
			c-1.4-2.6-14.1-21.2-14.6-22c-0.5-0.8-5.9-9.4-6.2-11.4c-0.3-2,1.2-17.9,1.2-20c0-2.6,0-2.3,0-2.3l5.7,0.4c0,0,0.4,9,0.8,11.5
			c0.4,2.5,2.4,10.6,2.8,12.1c0.4,1.4,9.3,13.7,10.9,13.7c1,0,3.8-1,6-1.9c1.4-0.5,2.5-1.1,3-1.3c1.2-0.6,7.9-2.4,10.2-2.1
			c0,0,0.6,0.1,1.4,0.2c1.9,0.2,5.3,0.4,7.1-0.2c2.5-0.8,3.8-2.8,5.3-4.5c1.5-1.6,6.5-7.4,6.8-8.6c0.4-1.2,0.6-11.8,0.8-14.8
			c0.1-3,0.1-6.3,0-6.7c-0.1-0.4,6.5-0.8,6.4,0.3c-0.1,1.1-0.2,9.7,0,13.6C235.7,257,236.1,261.7,235.4,263.4z"/>
		<path class="st34" d="M193.9,265.1c0,0-0.7-1.6-0.1-2c0.8-0.5,1.3,0.2,1.3,0.2l0.8-0.1c0,0-1.6-3.1,1-3.6c2.6-0.6,8.1-1,9.5-2.1
			c0,0,0.6,2.4,0.6,2.8c0.1,0.5,0.4-0.1,0.4-0.1s0.5-7.5-4.3-10c-4.8-2.5-10.1,0.5-11,3.4C191.1,256.4,190.9,259.2,193.9,265.1z"/>
		<path class="st26" d="M194,261.2c0,0-0.9-0.7-1.1,0c-0.1,0.8,1.6,4,2,4C195.4,265.3,195.1,262.1,194,261.2z"/>
		<path class="st35" d="M205.7,272.6c-5.7,1.1-7.8-2.3-7.8-2.3c3.7,2.5,7.5-0.1,7.6-0.1C205.5,271.1,205.6,271.9,205.7,272.6z"/>
		<path class="st26" d="M205.6,288.4c-6.9,0.4-11.2-11.1-11.2-11.1c1.4-0.5,2.5-1.1,3-1.3c1.2-0.6,7.8-2.4,10.2-2.1
			c0,0,0.6,0.1,1.4,0.2C208.9,274.1,212.4,288,205.6,288.4z"/>
	</g>
	<linearGradient id="SVGID_20_" gradientUnits="userSpaceOnUse" x1="160.4502" y1="243.5837" x2="208.0311" y2="170.1007">
		<stop  offset="0" style="stop-color:#4D8FFF"/>
		<stop  offset="1" style="stop-color:#54EDFF"/>
	</linearGradient>
	<path class="st36" d="M159.1,194.7c7.4-4.8,86.8,1.6,86.8,1.6l-0.7,39.6c0,0-3.9,0.2-10,0.4c-21.6,0.7-71.3,2-76.9-2
		c-7.2-5.1-13.6-15.4-32.7-16.4c-19.1-1-23.1-0.4-23.1-0.4l0.1-7.9c0,0,4,0.7,23.1,0.4C145,209.6,151.8,199.5,159.1,194.7z"/>
</g>
<g>
	<g>
		<g>
			<path class="st37" d="M375.8,298.2c0,0,9.5,27.8,10.1,31c0.7,3.4,8.1,28.2,8.1,28.2s15.7-15.3,20.6-19.2S382.6,297.4,375.8,298.2
				z"/>
		</g>
	</g>
	<g>
		<g>
			<path class="st38" d="M370.9,406.1c0,0-3.2-1.3-4.5-1.8c-1.3-0.5-1.5-1.8-2-1c-0.5,0.8-3.3,3.3-4.7,3.6s-11,1.8-11.2,3.9
				c-0.2,2.2,4.2,2.9,10.5,3.2c6.2,0.3,6.4,1.9,10.6,0.9C370.9,414.6,370.9,406.1,370.9,406.1z"/>
		</g>
	</g>
	<g>
		<g>
			<path class="st38" d="M463,371c0,0-1.6,2.9-2.2,4.1c-0.7,1.2-1.9,1.3-1.1,1.9s2.8,3.5,3,4.9c0.2,1.4,0.6,10.8,2.6,11.2
				c2.1,0.4,3.3-3.8,4.2-9.8c1-6,2.5-6,1.9-10.1C471.2,371.9,463,371,463,371z"/>
		</g>
	</g>
	<g>
		<g>
			<path class="st26" d="M358.1,304.6c0,0-1.5-2.8-1.8-3.2c-0.2-0.4-1.5-1-2.9-1.5c-1.5-0.5-3.7-0.6-3.9-0.5
				c-0.2,0.2-0.5,0.2-0.7,0.9c-0.2,0.6-0.1,1.3-0.1,1.3s-0.7,0.7-0.4,1.5c0,0-0.6,0.7-0.1,1.5c0,0-0.6,0.7-0.2,1.3
				c0,0,1.2,0.6,1.6,0.9c0.4,0.3,3,1.4,5.7,2C355.4,308.8,358.3,309.6,358.1,304.6z"/>
		</g>
	</g>
	<g>
		<g>
			<path class="st39" d="M353.8,303.5c0,0,0.2,1.6,0.4,2c0.3,0.4-3,1.8-3,1.8S351.9,303.7,353.8,303.5z"/>
		</g>
	</g>
	<g>
		<g>
			<path class="st40" d="M409,323.8c2.6,1.9,6.1,9.6,8.5,15.6c0.1,0.1,5.8,11.8,8,15.1c3.3,4.9,7.4,4.5,14.5,7.2
				c5.7,2.2,23.9,8.8,23.9,8.8l-4.3,8.5c0,0-27.5-6.3-36.3-10c-4.5-1.9-19.2-14.3-19.2-14.3l0,0c-1.8-1.5-3.5-3-4.9-4.3h0
				c-1.1-1-2.1-2-2.9-2.7c-1.4-1.4-2.2-2.2-2.2-2.2S406.8,322.1,409,323.8z"/>
		</g>
	</g>
	<g>
		<g>
			<path class="st37" d="M386.6,287.2l-7.8,19.7c0,0-0.4,2.7-6.1,0.9c-5.8-1.9-15.1-4.4-15.1-4.4s-3.3,6.9-2.6,7.3
				c2,1.2,18,7.1,24.7,9c5.3,1.4,16.2-27,16.2-27L386.6,287.2z"/>
		</g>
	</g>
	<g>
		<g>
			<path class="st40" d="M372.8,364.7c-0.1-3.3,3.6-12.6,6.4-18.2l0,0c4.4-9,8.8-18.4,8.8-18.4s25.4,0,25.4,2.7
				c-0.1,5.2-12,17.7-14,20l-1.3-0.1c0,0-4.7,4.5-6.6,8c-2.8,5.1-4.2,8.6-6,15.2c-1.6,5.9-12.9,33.8-12.9,33.8l-10.5-3.6
				C362,404.1,373,369.8,372.8,364.7z"/>
		</g>
	</g>
	<g>
		<g>
			<path class="st41" d="M414.7,329.2c0,0-17.3-18.5-15.8-30.5c0.1-1,0.2-1.9,0.2-2.9c0-1.2-0.1-2.4-0.3-3.6
				c-1.1-7-5.3-12.8-10.6-15.7c0,0,0-1.5-7.3,5.5c-0.4,0.4-4.5,7.5-5,15.3c-0.7,9.5,2,11.4,5.4,18.7c2.5,5.3,6,9.9,6.7,12
				C388,328.1,390,331.2,414.7,329.2z"/>
		</g>
	</g>
	<g>
		<g>
			<path class="st26" d="M380.5,276c0,0,0.1,0.4,0.2,1c0.1,0.4,0.2,1,0.3,1.6c0.3,1.6,0.6,3.6,0.5,4.6c-0.2,1.8,6.5-6.3,6.5-6.3
				s-1.2-5.5-1.6-11.9C386,258.7,380.5,276,380.5,276z"/>
		</g>
	</g>
	<g>
		<g>
			<path class="st35" d="M380.7,276.9c0.1,0.4,0.2,1.1,0.3,1.7c2.7-1.9,4-3.2,5.1-4.5C384.8,275.4,380.7,276.9,380.7,276.9z"/>
		</g>
	</g>
	<g>
		<g>
			<path class="st37" d="M382.9,305.1c0.1,0.2,0.1,0.3,0.2,0.5c0.2,0.6,0.9,1.3,1.5,2.3c5.2,8.9,10.7,21,12.9,29.5
				c2.5,9.7,3.8,17.3,3.8,17.3l19.4-17.7c0,0-6.7-14.4-13.8-23c-7.8-9.5-5.6-31.2-5.6-31.2l-11.1-5.2l-1.7-1.8l-6.1,4.6l-3.3,2.2
				C379,282.6,380.6,297.9,382.9,305.1z"/>
		</g>
	</g>
	<g>
		<g>
			<g>
				
					<rect x="406.8" y="190.2" transform="matrix(-6.062324e-02 0.9982 -0.9982 -6.062324e-02 724.8168 -98.082)" class="st42" width="3.5" height="203.6"/>
			</g>
		</g>
	</g>
	<g>
		<g>
			<g>
				
					<rect x="404.8" y="223.4" transform="matrix(-6.090924e-02 0.9981 -0.9981 -6.090924e-02 755.8863 -60.7758)" class="st42" width="3.5" height="203.6"/>
			</g>
		</g>
	</g>
	<g>
		<g>
			<g>
				
					<rect x="306.5" y="301.3" transform="matrix(6.096306e-02 -0.9981 0.9981 6.096306e-02 1.6516 608.0972)" class="st42" width="35" height="3.7"/>
			</g>
		</g>
		<g>
			<g>
				
					<rect x="333.9" y="303" transform="matrix(6.097768e-02 -0.9981 0.9981 6.097768e-02 25.6966 637.0041)" class="st42" width="35" height="3.7"/>
			</g>
		</g>
		<g>
			<g>
				
					<rect x="361.3" y="304.6" transform="matrix(6.126148e-02 -0.9981 0.9981 6.126148e-02 49.6427 665.8229)" class="st42" width="35" height="3.7"/>
			</g>
		</g>
		<g>
			<g>
				
					<rect x="388.7" y="306.3" transform="matrix(6.097930e-02 -0.9981 0.9981 6.097930e-02 73.7925 694.8278)" class="st42" width="35" height="3.7"/>
			</g>
		</g>
		<g>
			<g>
				
					<rect x="416.1" y="308" transform="matrix(6.096306e-02 -0.9981 0.9981 6.096306e-02 97.848 723.7446)" class="st42" width="35" height="3.7"/>
			</g>
		</g>
		<g>
			<g>
				
					<rect x="443.5" y="309.7" transform="matrix(6.096241e-02 -0.9981 0.9981 6.096241e-02 121.8976 752.6579)" class="st42" width="35" height="3.7"/>
			</g>
		</g>
		<g>
			<g>
				
					<rect x="470.9" y="311.3" transform="matrix(6.097930e-02 -0.9981 0.9981 6.097930e-02 145.939 781.5638)" class="st42" width="35" height="3.7"/>
			</g>
		</g>
	</g>
	<g>
		<g>
			<g>
				<g>
					<g>
						<g>
							<path class="st26" d="M407.7,329.5c0,0,0.6-0.5,0.8-0.9c0,0,0.2-0.7,0.4-1.1c0.1-0.1,0.1-0.3,0.2-0.4c0.2-0.3,0.7-1,0.9-1.9
								c0.2-0.9,0.2-5.1,0.2-5.1l-2.3-0.6l-2-0.9c0,0-4.1,4.1-4.4,4.9c0,0.1-0.1,0.2-0.1,0.2c-0.2,0.7,0,1.3-0.1,1.7
								c0,0.1-0.1,1.6,0.2,1.9c0.4,0.4,0.9,0.5,1.3,0.4c0,0,0.9,0.8,1.7,0.8c0,0,0.8,0.8,1.8,0.5
								C406.2,329.1,407.1,329.8,407.7,329.5z"/>
						</g>
					</g>
				</g>
			</g>
		</g>
	</g>
	<g>
		<g>
			<path class="st37" d="M388.9,289.1c0,0-4.4-0.3-2.2-7c3-9,11.8,0.1,30.4,7.7c0,0,5.2,2.1,3.7,7.7c-1.5,5.6-8.1,23.3-8.5,25
				l-7.5-4.1c0,0,3.4-8.8,4.3-13.4c0.9-4.6,1.5-8.9,1.5-8.9L388.9,289.1z"/>
		</g>
	</g>
	<g>
		<g>
			<path class="st29" d="M350,299.5c0,0,3.7,1.5,3.5,2.1c-0.2,0.6-0.6,0.7-0.6,0.7l1.2,1.3c0,0,0.3,1.3-1.2,1.3c0,0,0.4,1.2-1,1
				c0,0-0.1,0.9-0.8,0.9c-0.7,0-3-1-3-1s-0.4-0.4,0.1-1.3c0,0-0.5-0.8,0.1-1.6c0,0-0.3-0.7,0.4-1.5c0,0-0.4-1.6,0.9-2.2
				C349.6,299.4,349.8,299.4,350,299.5z"/>
		</g>
	</g>
	<g>
		<g>
			<path class="st26" d="M356.3,301.3c0,0-2.7,0.2-4.1,1c-0.3,0.2-0.6,0.4-0.6,0.8c0,0.4,0.6,0.8,1.8,0.7c1.2,0,2.7,0.4,2.7,0.4
				S357.3,303.9,356.3,301.3z"/>
		</g>
	</g>
	<g>
		<g>
			<path class="st26" d="M373.9,261.9c0,0-2.1,3.8-1,4.4c0.8,0.5-1,4.2-1.2,4.9c-0.2,0.6,1.5,1.1,1.9,1.4c0.4,0.4,1.5,5.2,3,5.4
				c1.5,0.1,8-2.2,9.8-4c1.8-1.9,3.2-10.3,2-13.8C387.1,256.6,377.5,255.2,373.9,261.9z"/>
		</g>
	</g>
	<g>
		<g>
			<path class="st43" d="M373.4,262.6c0,0-0.8-2.8,3-5.9c3.8-3.1,9.6,0.6,10.4,1.2c0.6,0.5,4.5,3.7,3,8.4c-2.5,7.9-2.4,7.5-2.4,7.5
				s-1.1-4.7-2.5-5.1c-1.6-0.4-3.7-0.6-3.7-0.6s1.3-3.6-0.8-4.1C378.4,263.7,375.6,261.9,373.4,262.6z"/>
		</g>
	</g>
	<g>
		<g>
			<path class="st26" d="M382.2,268.5c0.1-0.4,0.6-2.3,2.1-2c1.5,0.3,1,2.6-0.2,3.9C382.9,271.8,381.6,270.9,382.2,268.5z"/>
		</g>
	</g>
	<g>
		<path class="st43" d="M387.1,258.2c0,0,5.1,1,4.3,4.9c-0.8,3.9-3.1,8.2-3.4,9.1C387.7,273.1,387.1,258.2,387.1,258.2z"/>
	</g>
</g>
<g>
	<g>
		<g>
			<g>
				<polygon class="st44" points="87.6,417.7 88.3,417.7 84.7,327.3 147,327.3 150.6,417.7 151.3,417.7 147.7,326.6 83.9,326.6 				
					"/>
			</g>
		</g>
	</g>
	<g>
		<g>
			<g>
				<polygon class="st44" points="81.7,417.7 85.3,327.3 147.6,327.3 144,417.7 144.7,417.7 148.4,326.6 84.6,326.6 81,417.7 				
					"/>
			</g>
		</g>
	</g>
	<g>
		<g>
			<polygon class="st44" points="144.4,388.3 81.4,388.3 85,297.5 148,297.5 			"/>
		</g>
	</g>
	<g>
		<g>
			<linearGradient id="SVGID_21_" gradientUnits="userSpaceOnUse" x1="118.0035" y1="333.1599" x2="127.5761" y2="400.1683">
				<stop  offset="0" style="stop-color:#FFEBE3"/>
				<stop  offset="1" style="stop-color:#E3D1CB"/>
			</linearGradient>
			<polygon class="st45" points="89.7,388.3 152.7,388.3 149.1,297.5 86.1,297.5 			"/>
		</g>
	</g>
	<g>
		<g>
			<g>
				<rect x="139.4" y="353.2" class="st46" width="3.2" height="24.1"/>
			</g>
		</g>
	</g>
	<g>
		<g>
			<g>
				<rect x="133.1" y="355.9" class="st46" width="3.2" height="21.4"/>
			</g>
		</g>
	</g>
	<g>
		<g>
			<g>
				<rect x="126.3" y="359.4" class="st46" width="3.2" height="17.9"/>
			</g>
		</g>
	</g>
	<g>
		<g>
			<g>
				<rect x="119.4" y="363.8" class="st46" width="3.2" height="13.5"/>
			</g>
		</g>
	</g>
	<g>
		<g>
			<polygon class="st46" points="100.5,361 99.8,360.7 105.7,344 118.7,340.5 123.4,322.1 133.4,317.7 135.6,303.4 136.3,303.5 
				134,318.2 124,322.7 119.3,341.1 106.3,344.6 			"/>
		</g>
	</g>
	<g>
		
			<ellipse transform="matrix(0.7743 -0.6328 0.6328 0.7743 -188.8344 152.2429)" class="st47" cx="119" cy="340.8" rx="1.9" ry="1.9"/>
	</g>
	<g>
		<path class="st46" d="M120.5,342.6c-1,0.8-2.4,0.7-3.2-0.3c-0.8-1-0.7-2.4,0.3-3.2c1-0.8,2.4-0.7,3.2,0.3
			C121.6,340.4,121.4,341.8,120.5,342.6z M118,339.6c-0.7,0.6-0.8,1.5-0.2,2.2c0.6,0.7,1.5,0.8,2.2,0.2c0.7-0.6,0.8-1.5,0.2-2.2
			C119.7,339.2,118.7,339.1,118,339.6z"/>
	</g>
	<g>
		
			<ellipse transform="matrix(0.7743 -0.6328 0.6328 0.7743 -176.1623 151.0631)" class="st48" cx="123.7" cy="322.5" rx="1.9" ry="1.9"/>
	</g>
	<g>
		<path class="st46" d="M125.2,324.3c-1,0.8-2.4,0.7-3.2-0.3c-0.8-1-0.7-2.4,0.3-3.2c1-0.8,2.4-0.7,3.2,0.3
			C126.3,322,126.2,323.5,125.2,324.3z M122.7,321.3c-0.7,0.6-0.8,1.5-0.2,2.2c0.6,0.7,1.5,0.8,2.2,0.2c0.7-0.6,0.8-1.5,0.2-2.2
			C124.4,320.8,123.4,320.7,122.7,321.3z"/>
	</g>
	<g>
		
			<ellipse transform="matrix(0.7744 -0.6328 0.6328 0.7744 -171.0682 156.2613)" class="st48" cx="133.6" cy="318" rx="1.9" ry="1.9"/>
	</g>
	<g>
		<path class="st46" d="M135,319.8c-1,0.8-2.4,0.7-3.2-0.3c-0.8-1-0.7-2.4,0.3-3.2c1-0.8,2.4-0.7,3.2,0.3
			C136.2,317.5,136,319,135,319.8z M132.6,316.8c-0.7,0.6-0.8,1.5-0.2,2.2c0.6,0.7,1.5,0.8,2.2,0.2c0.7-0.6,0.8-1.5,0.2-2.2
			C134.2,316.3,133.2,316.2,132.6,316.8z"/>
	</g>
	<g>
		
			<ellipse transform="matrix(0.7743 -0.6328 0.6328 0.7743 -194.0064 144.8656)" class="st47" cx="106.1" cy="344.4" rx="1.9" ry="1.9"/>
	</g>
	<g>
		<path class="st46" d="M107.6,346.2c-1,0.8-2.4,0.7-3.2-0.3c-0.8-1-0.7-2.4,0.3-3.2c1-0.8,2.4-0.7,3.2,0.3
			C108.7,344,108.5,345.4,107.6,346.2z M105.1,343.2c-0.7,0.6-0.8,1.5-0.2,2.2c0.6,0.7,1.5,0.8,2.2,0.2c0.7-0.6,0.8-1.5,0.2-2.2
			C106.8,342.8,105.8,342.7,105.1,343.2z"/>
	</g>
	<g>
		<g>
			<g>
				<path class="st46" d="M112.5,325H95.8c-0.8,0-1.4-0.6-1.4-1.4v-1.2c0-0.8,0.6-1.4,1.4-1.4h16.7c0.8,0,1.4,0.6,1.4,1.4v1.2
					C113.9,324.3,113.3,325,112.5,325z"/>
			</g>
		</g>
	</g>
	<g>
		<g>
			<g>
				<path class="st46" d="M112.5,317.9H95.8c-0.8,0-1.4-0.6-1.4-1.4v-1.2c0-0.8,0.6-1.4,1.4-1.4h16.7c0.8,0,1.4,0.6,1.4,1.4v1.2
					C113.9,317.3,113.3,317.9,112.5,317.9z"/>
			</g>
		</g>
	</g>
</g>
<g>
	<g>
		<g>
			<g>
				<g>
					<g>
						<path class="st49" d="M56.7,251.1c0,0,5.3,2.6,4,9.7c-1.3,7.1-1.9,8.1-0.4,10.8c1.5,2.8,3.2,14.6,1.9,16.9
							c-1.3,2.2-16.4-9.9-18.5-20c-2.1-10.2,1.3-14.7,2.5-16.4C47.4,250.4,52,248.7,56.7,251.1z"/>
					</g>
				</g>
			</g>
		</g>
	</g>
	<g>
		<g>
			<polygon class="st50" points="0,206.8 43,206.8 43,238 43,244.6 36.4,238 0,238 			"/>
		</g>
	</g>
	<g>
		<path class="st51" d="M59,402.2c0,0,0.5,1.3,1.6,2.6c0.7,1,3.1,5,4.1,5.3c1,0.3,4.2,0.8,4.5,2.6c0.3,1.8,0.4,3-2.7,3.2
			c-3.1,0.1-5.2,0.3-6.7-1.9c-1.5-2.2-3.9-3.8-3.9-3.8v5.7h-1.2c0,0-0.6-5.9-0.9-6.4c-0.3-0.4-1.2-5,1.7-7.4
			C58.4,399.9,59,402.2,59,402.2z"/>
	</g>
	<g>
		<path class="st26" d="M64.7,410.1c0,0-2.8,0.7-3.9,0c-1.1-0.7-4.7-6.8-5.9-7.2c0,0,1.2-2.4,4.1-0.6
			C59,402.2,63.9,409.1,64.7,410.1z"/>
	</g>
	<g>
		<g>
			<g>
				<g>
					<path class="st26" d="M91.9,304.8c0,0,1.9,0.4,2.6-0.5c0.6-0.8,1.8-1.4,2.2-1.6c0.5-0.2,1.9-1.6,2.2-0.9
						c0.3,0.7-2.1,2.3-2.5,2.8c-0.4,0.5,2.4,0.7,2.9,1.1c0.5,0.4-0.1,5.1-2,4.7c-1.9-0.4-3.7-2-4.1-2c-0.3,0-1.4-0.2-1.4-0.2
						L91.9,304.8z"/>
				</g>
			</g>
		</g>
	</g>
	<g>
		<g>
			<g>
				<g>
					<path class="st26" d="M98.8,305.5c0,0,5.8,1.5,6.1,1.9c0.3,0.4,0.2,0.7-0.3,0.6c-0.5-0.1-5.6-1.3-5.6-1.3s6.6,2.9,6.9,3.2
						c0.2,0.2,0,0.8-0.3,0.7c-0.3,0-7-2.6-7-2.6s6.1,2.7,6.3,3.1c0.2,0.3-0.1,0.8-0.6,0.6c-0.5-0.2-6.3-2.4-6.3-2.4s4.3,2.3,4.3,2.6
						c0,0.2-0.1,0.8-1.2,0.1c-1.1-0.6-3.8-1.8-3.8-1.8L98.8,305.5z"/>
				</g>
			</g>
		</g>
	</g>
	<g>
		<path class="st51" d="M43.4,405.9c0,0,3.1,4.6,4.4,5.7c0,0,2.8,1,3.1,3c0.3,2,0.2,3.3-3.1,3.4c-3.3,0.1-5.5-0.5-6.1-2.5
			c-0.6-2-1.9-3.4-1.9-3.4v4.2H39c0,0-0.2-4-0.2-4.8c0-0.7-0.5-3.6,1-4.9C41.4,405.4,43.4,405.9,43.4,405.9z"/>
	</g>
	<g>
		<path class="st52" d="M41.3,316.6c0,0-3.9,5.1-5,11.2c-1.1,6.1,0.6,26.5,0.6,29.5c0,3-2.8,10.5-2.3,16.1
			c0.6,5.7,2.8,33.8,2.8,33.8l6-1.2c0,0-0.3-28.7,0-31.1c0.3-2.4,1-11,1.2-12c0.1-1,8.9-26.6,8.9-31
			C53.4,327.5,50.8,309.4,41.3,316.6z"/>
	</g>
	<g>
		<path class="st52" d="M61.1,318.6c0,0,6.5,24.7,7.2,28.1c0.8,3.4,1.9,6.2,1.9,7.7c0,3.4-1.3,8.8-1.3,8.8l-8.2,39.3h-7.8
			c0,0,4.4-23.6,4.5-28.2c0.1-4.6,3.7-11.2,3-13.1c-0.7-2-11.2-24.5-11.2-24.5S41.1,311.4,61.1,318.6z"/>
	</g>
	<g>
		<path class="st26" d="M47.8,411.7c0,0-3.2,1.8-5.2-0.5c-1.7-1.9-2.7-4.5-2.7-4.5l3.6-0.7L47.8,411.7z"/>
	</g>
	<g>
		<g>
			<path class="st53" d="M58.4,276.6c0,0,2.7,0.3,4.7,2.4c2,2.2,3.9,5.6,4.4,6.8c0.5,1.2,7.9,11.8,8.3,12.1c0.4,0.2,4.1,1.5,6.6,2.3
				c3.8,1.3,11.4,4,11.4,4l-1.5,4.8c0,0-14.3-4.7-17.9-5.6c-4.4-1.1-14.5-14-14.5-14S52.4,280.5,58.4,276.6z"/>
		</g>
	</g>
	<g>
		<g>
			<path class="st54" d="M53.7,274.7c0,0,3.5,1.6,4.7,1.9c1.2,0.2,5.9,6.3,6.7,8.5c0.8,2.2,0,5.5-1.7,9.4c-1.7,3.9-0.1,5.2-0.9,9.1
				c-0.8,3.9-0.5,18.4-0.4,20.6c0.1,2.2-22.5,5.4-26.9,1.5c0,0,3-13.1,6.6-16.8c0.8-0.8,0.7-6.2,0.2-7.5c-0.5-1.3-6.5-11.4-6.5-11.4
				s-0.4-10.2,2.2-12.2c2.3-1.8,8.4-2.4,9.5-2.8C48.3,274.6,51.5,274.4,53.7,274.7z"/>
		</g>
	</g>
	<g>
		<g>
			<path class="st26" d="M55.4,270.7c0,0-0.1,1-0.2,2.2c0,0.5-0.1,1.1-0.1,1.6c-0.1,1.7-0.2,3.6-0.2,4.5c0,0-3.6,3.6-7.7-4.2
				c0,0,1.7-3.2,0.4-7.6C46.3,263,55.4,270.7,55.4,270.7z"/>
		</g>
	</g>
	<g>
		<path class="st55" d="M65.4,295.9c0,0,0.9-5.7-0.1-9.2c0,0,0,3-1.6,7.3L65.4,295.9z"/>
	</g>
	<g>
		<path class="st26" d="M44.4,275.5c0,0,2.5,7.3,9.2,6.8c6.8-0.5,3.2-6.2,3.2-6.2s-1.7-1-2.2-1.1c-0.5-0.1-7.5-0.2-7.5-0.2
			L44.4,275.5z"/>
	</g>
	<g>
		<path class="st53" d="M56.9,276.1c0,0,3.6,9.8,3.6,19.8c0,10,0.3,26.3,1.5,31.5c1.2,5.2,4.8,21.1,4.8,21.1l2.8-1.4
			c0,0-6.7-25.4-7.2-27.2c-0.5-1.8,0.4-21.2,0.9-22.8c0.5-1.6,2.5-8.8,2.2-10.8c-0.4-2.5-2.8-6.3-6.6-9.5L56.9,276.1z"/>
	</g>
	<g>
		<path class="st53" d="M45.8,275.2c0,0,2.2,7.1,3.3,16.1c1.1,9-3.4,51.1-6.5,60.6L30.8,350c0,0,2.5-29.7,6-35.1
			c3.5-5.4,4.6-10.2,0.8-21.5c-3.7-11.3,1.6-16.9,1.6-16.9S44.7,275.3,45.8,275.2z"/>
	</g>
	<g>
		<polygon class="st56" points="58.5,305.2 44.2,330 28.2,320.8 42,295.6 		"/>
	</g>
	<g>
		<polygon class="st57" points="56.8,306 44.1,328.1 29.9,319.9 42.1,297.5 		"/>
	</g>
	<g>
		<polygon class="st56" points="52.1,304 53,302.5 47.3,299.2 46.1,300.6 		"/>
	</g>
	<g>
		<g>
			<g>
				<g>
					<g>
						<g>
							<path class="st26" d="M51.4,321.7c0,0-0.7,0-0.9-0.1c0,0-0.5-0.3-0.9-0.5c-0.1-0.1-0.2-0.1-0.3-0.1c-0.3-0.1-1-0.2-1.6-0.7
								c-0.6-0.4-2.9-3-2.9-3l1.1-1.6l0.8-1.7c0,0,4.7,0.3,5.4,0.6c0.1,0,0.1,0.1,0.2,0.1c0.5,0.3,0.7,0.8,1,1
								c0.1,0.1,0.9,0.9,0.9,1.3c0,0.5-0.3,0.8-0.6,1c0,0-0.1,1-0.6,1.4c0,0-0.1,0.9-0.8,1.3C52.1,320.6,51.9,321.5,51.4,321.7z"/>
						</g>
					</g>
				</g>
			</g>
		</g>
	</g>
	<g>
		<g>
			<path class="st53" d="M41.7,276.6c0,0-4.4-1.2-6.8,3.6c-2.5,4.8-2.5,6.8-2.8,9.2c-0.3,2.2-1.7,8.3-1.9,8.9
				c-0.1,0.6-3.4,8.1-1.9,10.7c1.5,2.6,16.6,10.3,16.5,10.9c-0.1,0.6,2.6-5.8,2.6-5.8s-6.1-3.4-7.1-4.4c-1.6-1.7-5-3.5-4.3-5.6
				c0.8-2.5,3.3-10.8,3.9-12.1C40.3,290.6,45.4,278.2,41.7,276.6z"/>
		</g>
	</g>
	<g>
		<g>
			<g>
				<g>
					<g>
						<path class="st58" d="M55.9,251.8c0,0,7.8,2.4,3.5,15.8c-4.2,13.4-14.8-1.6-13.7-9.7C46.9,249.8,55.9,251.8,55.9,251.8z"/>
					</g>
				</g>
			</g>
		</g>
	</g>
	<g>
		<g>
			<g>
				<g>
					<g>
						<path class="st49" d="M60.3,259.7c0,0-3.9,3.8-10.3,4.3c0,0-2.5,2.9-2.7,4c0,0-5.8-9.8,1.3-15.7
							C55.7,246.4,62.9,257.2,60.3,259.7z"/>
					</g>
				</g>
			</g>
		</g>
	</g>
	<g>
		<g>
			<g>
				<g>
					<g>
						<path class="st58" d="M50,264.2c0-1-0.6-3.2-2.1-2.6c-1.4,0.6,0.1,5.1,1,4.9C49,266.5,50.2,266.5,50,264.2z"/>
					</g>
				</g>
			</g>
		</g>
	</g>
	<g>
		<path class="st35" d="M55.2,273c0,0.5-0.1,1.1-0.1,1.6c0,0-3.4-0.2-5.7-5.3C49.5,269.6,52,273.2,55.2,273z"/>
	</g>
</g>
<g>
	<g>
		<polygon class="st59" points="484.6,292.4 469,300.9 453.4,276.3 472.3,269.8 		"/>
	</g>
	<g>
		<polygon class="st60" points="483.6,291.6 469,299.6 454.4,276.6 472.1,270.5 		"/>
	</g>
	<g>
		<path class="st26" d="M488.9,287.3c0,0-2.7-1.3-3.9-2c-1.2-0.7-4.2-1.6-4.5-1.8c-0.2-0.2-9.1-0.8-9.6-1.2
			c-0.5-0.5-1.1,1.1,1.2,1.6c2.3,0.5,5.5,1.7,5.6,2.6c0.2,0.9-2.3,1.1-2.6,1.8c-0.3,0.7,0.1,0.6,0.4,0.7c0.4,0.2,3-1.3,4.2-0.9
			c1.2,0.4,2.9-0.2,3.8,0.1c0.9,0.3,5.2,1.8,5.2,1.8L488.9,287.3z"/>
	</g>
	<g>
		<path class="st26" d="M468.3,297.8c0,0-2.3-2-3.4-2.9c-1.1-0.9-3.2-3.4-3.5-3.5c-0.3-0.1-4.3-8.2-4.9-8.6c-0.6-0.3,0.6-1.4,2,0.5
			c1.4,2,3.8,4.5,4.7,4.3c0.9-0.2,0.1-2.6,0.7-3.2c0.6-0.5,0.6-0.2,0.9,0.1c0.3,0.3-0.1,3.3,0.8,4.3c0.8,0.9,1,2.8,1.6,3.5
			s3.7,4.2,3.7,4.2L468.3,297.8z"/>
	</g>
	<g>
		<path class="st61" d="M517.3,407.4c0,0,0.5,3.4,0.6,3.9c0.1,0.5,5.5-0.3,5.5-0.3l0.4-4.1C523.8,406.9,518,406.9,517.3,407.4z"/>
	</g>
	<g>
		<path class="st59" d="M517.8,410.8c0,0-1.7,2.1-3.4,3c-1.7,0.9-4.3,1.3-5.2,2.2c-0.7,0.7-2.6,3.6,4.3,3.5c6.9-0.1,10.2,0.4,11-0.7
			c0.7-1.1-1.1-8.2-1.1-8.2S521.7,411.2,517.8,410.8z"/>
	</g>
	<g>
		<path class="st61" d="M478.5,407.4c0,0,0.5,3.4,0.6,3.9c0.1,0.5,5.5-0.3,5.5-0.3l0.4-4.1C484.9,406.9,479.2,406.9,478.5,407.4z"/>
	</g>
	<g>
		<path class="st59" d="M479,410.8c0,0-1.7,2.1-3.4,3c-1.7,0.9-7.8,1.6-8.8,2.6c-0.7,0.7-1.9,3.4,7.8,3.1c6.9-0.2,10.2,0.4,11-0.7
			c0.7-1.1-1.1-8.2-1.1-8.2S483,411.2,479,410.8z"/>
	</g>
	<g>
		<path class="st59" d="M512.8,319.5c0,0,5.1,8.1,4.7,15.4c-0.4,7.3,1.8,15.3,2.6,22.9c0.9,8.5,4.3,28.7,4.5,33.2
			c0.1,4.6-0.5,19.1-0.5,19.1l-7,0.2c0,0-5.9-35.2-7.4-38.8c-1.5-3.6-9-29.2-9.3-32.1C500.1,336.5,512.8,319.5,512.8,319.5z"/>
	</g>
	<g>
		<path class="st59" d="M486,320.6c0,0-3.8,20-4.3,24.5c-0.5,4.5-0.8,21.6-1.1,24.4c-0.3,2.8-1.7,36.6-3,40.7h8.9
			c0,0,6.9-24.6,6.9-36.2c0-11.6,5.3-25.3,8.7-32.9c3.4-7.7,11.2-7.8,13.3-22.1C515.4,319.1,488.9,316.1,486,320.6z"/>
	</g>
	<g>
		<path class="st26" d="M504.3,251.5c0,0-6.8-2.6-10,2.6c-3.2,5.2-2.8,15.6,0.6,16.9c3.4,1.3,8.6,0.6,10.4-2.6
			c1.8-3.3,3.4-8,3.3-11.1C508.5,254.2,506.1,252.4,504.3,251.5z"/>
	</g>
	<g>
		<path class="st26" d="M495.7,271.3c0,0,0.3,1.8-0.2,2.8c-0.5,0.9,8.9,0.9,8.9,0.9s0.8-4.9,2.2-9.1
			C508,261.7,495.7,271.3,495.7,271.3z"/>
	</g>
	<g>
		<path class="st62" d="M506.5,265.9c0,0-0.6,1.1-3.3,0.6c-2.6-0.4-5.8-3.9-6.9-4.3c-1.1-0.4-1.1-1-1.1-1l-0.7,1l-1.2,0.1
			c0,0,1.1-3.1-0.5-4.4c-1.6-1.3,1.7-10.1,10.1-7.2c0,0,6.5,1.8,6.2,5.5C508.9,259.9,508,264.1,506.5,265.9z"/>
	</g>
	<g>
		<path class="st60" d="M494.9,274c0,0,0-1.7,0.8-1.9c0.8-0.2,8.7-0.9,9.7-0.5v2C505.4,273.5,503.5,274.7,494.9,274z"/>
	</g>
	<g>
		<path class="st26" d="M495.4,259.9c0.1-0.6,1.7-2.4,2.3-0.5c0.6,1.9-0.9,4.4-1.7,4.2C495.1,263.4,495,261.4,495.4,259.9z"/>
	</g>
	<g>
		<path class="st40" d="M463.6,294.5C463.6,294.5,463.6,294.5,463.6,294.5C463.5,294.5,463.5,294.5,463.6,294.5z"/>
	</g>
	<g>
		<path class="st63" d="M518.5,338.8c0,0-4.2,1.2-11.3,2c-7.1,0.8-25-0.3-25.1-1.1c-0.1-0.8,3.8-31.4,3.6-33
			c-0.2-1.6-0.3-7.2-0.3-7.2c-0.1,1.5-1.7,7.8-3.5,11.2c-0.7,1.2-3,5.1-4.1,4.2c-5.3-4.3-13.6-20.4-14.2-20.5c0.4-0.2,3.9-1.8,4.4-2
			c0.4-0.1,4.3,3.9,6.6,6.5c1,1.1,1.8,1.9,1.8,1.9c0.7-1.5,3.1-11.1,3.9-14.4c1.7-7.5,1.5-7.8,1.5-7.8c5.2-1.6,13.2-4.8,13.2-4.8
			l10.5-0.4c0,0,9.6,2.1,13.4,3.8c0.4,0.2,0.4,8.6,1.3,10.8l-3.1,6.6c0,0-1.8,13.1-2.2,18.9C514.6,316.4,518.5,338.8,518.5,338.8z"
			/>
	</g>
	<g>
		<path class="st63" d="M520.6,299c-0.3,0.9-1.5,1.6-2.3,2c-0.5,0.2-1.1,0.3-1.7,0.2l-0.4-0.1l0,0l-7.2-1.3c0,0-1.6-18.1,9.8-22.4
			C519.1,277.5,523.1,291,520.6,299z"/>
	</g>
	<g>
		<path class="st64" d="M518.2,301C518.2,301,518.2,301,518.2,301c-0.5,0.2-1.1,0.3-1.7,0.2l-0.4-0.1l0,0l0.7-9.2L518.2,301z"/>
	</g>
	<g>
		<path class="st64" d="M476.4,300.9l-0.9,3.7c0,0-1-3.7-0.9-5.7C475.7,300.1,476.4,300.9,476.4,300.9z"/>
	</g>
	<g>
		<path class="st62" d="M506.3,252.2c0,0,8.9-1.1,0.1,13.9L506.3,252.2z"/>
	</g>
	<g>
		<polygon class="st59" points="460.6,275 459.7,273.4 466.8,271 467.7,272.5 		"/>
	</g>
</g>
<g>
	<g>
		<g>
			<polygon class="st65" points="514.5,235.1 530.4,188.5 518.8,197.6 			"/>
		</g>
	</g>
	<g>
		<g>
			<polygon class="st25" points="514.5,235.1 510.1,210.4 518.2,202.8 			"/>
		</g>
	</g>
	<g>
		<g>
			<polygon class="st66" points="526.7,199.2 531,202.6 514.5,235.1 			"/>
		</g>
	</g>
</g>
<g>
	<path class="st25" d="M514.3,193.5c-0.1-1.5-0.3-3-0.4-4.5l1.1-0.1c0.2,1.5,0.3,3,0.4,4.5L514.3,193.5z M513.3,184.6
		c-0.2-1.5-0.5-3-0.7-4.4l1.1-0.2c0.3,1.5,0.5,3,0.7,4.5L513.3,184.6z M511.7,175.8c-0.3-1.5-0.7-2.9-1-4.4l1.1-0.3
		c0.4,1.4,0.7,2.9,1,4.4L511.7,175.8z M509.5,167.1c-0.4-1.4-0.9-2.9-1.3-4.3l1.1-0.4c0.5,1.4,0.9,2.9,1.4,4.3L509.5,167.1z
		 M506.7,158.6c-0.5-1.4-1.1-2.8-1.7-4.1l1-0.4c0.6,1.4,1.2,2.8,1.7,4.2L506.7,158.6z M176,150.6c-1.1,0-2.3,0-3.4-0.1l0-1.1
		c1.5,0.1,3,0.1,4.5,0.1l0,1.1C176.8,150.6,176.4,150.6,176,150.6z M181.7,150.4l-0.1-1.1c1.5-0.1,3-0.2,4.5-0.3l0.1,1.1
		C184.7,150.2,183.2,150.3,181.7,150.4z M503.2,150.4c-0.6-1.3-1.3-2.7-2-4l1-0.5c0.7,1.3,1.4,2.7,2.1,4L503.2,150.4z M168.1,150.3
		c-1.5-0.1-3-0.3-4.5-0.5l0.1-1.1c1.5,0.2,3,0.4,4.4,0.5L168.1,150.3z M190.7,149.6l-0.1-1.1c1.5-0.2,3-0.4,4.4-0.7l0.2,1.1
		C193.7,149.2,192.2,149.4,190.7,149.6z M159.1,149.1c-1.5-0.3-3-0.6-4.4-1l0.3-1.1c1.4,0.3,2.9,0.7,4.4,0.9L159.1,149.1z
		 M199.6,148.1l-0.2-1.1c1.4-0.3,2.9-0.6,4.4-1l0.3,1.1C202.5,147.4,201.1,147.8,199.6,148.1z M150.3,146.9
		c-1.5-0.5-2.9-0.9-4.3-1.5l0.4-1.1c1.4,0.5,2.8,1,4.2,1.5L150.3,146.9z M208.4,146l-0.3-1.1c1.4-0.4,2.9-0.8,4.3-1.2l0.3,1.1
		C211.3,145.1,209.8,145.6,208.4,146z M141.8,143.7c-1.4-0.6-2.7-1.3-4-2.1l0.5-1c1.3,0.7,2.6,1.4,4,2L141.8,143.7z M217.1,143.3
		l-0.4-1.1c1.4-0.5,2.8-1,4.2-1.5l0.4,1.1C219.9,142.3,218.5,142.8,217.1,143.3z M498.9,142.5c-0.8-1.3-1.6-2.5-2.4-3.8l0.9-0.6
		c0.8,1.2,1.6,2.5,2.4,3.8L498.9,142.5z M225.5,140.2l-0.4-1c1.4-0.5,2.8-1.1,4.2-1.7l0.4,1C228.3,139.1,226.9,139.7,225.5,140.2z
		 M133.9,139.2c-1.3-0.9-2.5-1.8-3.7-2.7l0.7-0.9c1.1,0.9,2.3,1.8,3.6,2.6L133.9,139.2z M233.9,136.7l-0.5-1
		c1.3-0.6,2.7-1.3,4.1-1.9l0.5,1C236.6,135.4,235.2,136,233.9,136.7z M494,135c-0.9-1.2-1.8-2.4-2.7-3.5l0.9-0.7
		c0.9,1.2,1.9,2.4,2.8,3.6L494,135z M126.9,133.5c-1.1-1.1-2.1-2.2-3.1-3.4l0.9-0.7c0.9,1.1,1.9,2.2,3,3.3L126.9,133.5z M242,132.7
		l-0.5-1c1.3-0.7,2.6-1.4,4-2.1l0.5,1C244.6,131.3,243.3,132,242,132.7z M249.9,128.4l-0.6-1c1.3-0.7,2.6-1.5,3.9-2.2l0.6,1
		C252.5,126.9,251.2,127.7,249.9,128.4z M488.3,128.1c-1-1.1-2-2.2-3.1-3.3l0.8-0.8c1.1,1.1,2.1,2.2,3.1,3.3L488.3,128.1z
		 M121.1,126.4c-0.8-1.3-1.6-2.7-2.2-4l1-0.5c0.6,1.3,1.3,2.6,2.1,3.9L121.1,126.4z M257.7,123.9l-0.6-1c1.3-0.8,2.6-1.5,3.9-2.2
		l0.5,1C260.3,122.4,259,123.1,257.7,123.9z M482.1,121.7c-1.1-1-2.2-2-3.3-3l0.7-0.9c1.1,1,2.3,2,3.4,3L482.1,121.7z M265.6,119.5
		l-0.5-1c1.3-0.7,2.7-1.4,4-2.1l0.5,1C268.2,118.1,266.9,118.8,265.6,119.5z M117.4,118c-0.4-1.5-0.7-3-0.9-4.5l1.1-0.1
		c0.2,1.4,0.4,2.9,0.8,4.3L117.4,118z M475.3,115.9c-1.2-0.9-2.4-1.8-3.6-2.7l0.7-0.9c1.2,0.9,2.5,1.8,3.6,2.7L475.3,115.9z
		 M273.6,115.4l-0.5-1c1.4-0.7,2.7-1.3,4.1-1.9l0.5,1C276.3,114.1,274.9,114.8,273.6,115.4z M281.7,111.7l-0.5-1
		c1.4-0.6,2.8-1.2,4.2-1.8l0.4,1C284.5,110.5,283.1,111.1,281.7,111.7z M468,110.7c-1.2-0.8-2.5-1.6-3.8-2.4l0.6-1
		c1.3,0.8,2.6,1.6,3.9,2.4L468,110.7z M117.6,109l-1.1-0.1c0.1-1.5,0.3-3.1,0.7-4.5l1.1,0.3C117.9,106.1,117.6,107.6,117.6,109z
		 M290,108.2l-0.4-1c1.4-0.6,2.8-1.1,4.2-1.6l0.4,1.1C292.8,107.1,291.4,107.6,290,108.2z M460.2,106.2c-1.3-0.7-2.6-1.4-4-2l0.5-1
		c1.4,0.7,2.7,1.4,4,2.1L460.2,106.2z M298.4,105L298,104c1.4-0.5,2.8-1,4.3-1.5l0.4,1.1C301.2,104,299.8,104.5,298.4,105z
		 M452.2,102.2c-1.4-0.6-2.7-1.2-4.1-1.7l0.4-1c1.4,0.6,2.8,1.2,4.2,1.8L452.2,102.2z M306.9,102.1l-0.3-1.1
		c1.4-0.5,2.9-0.9,4.3-1.3l0.3,1.1C309.8,101.2,308.3,101.7,306.9,102.1z M119.6,100.5l-1-0.4c0.6-1.4,1.1-2.8,1.5-4.2l1.1,0.3
		C120.7,97.6,120.2,99.1,119.6,100.5z M315.5,99.5l-0.3-1.1c1.4-0.4,2.9-0.8,4.3-1.2l0.3,1.1C318.4,98.7,317,99.1,315.5,99.5z
		 M443.9,98.9c-1.4-0.5-2.8-1-4.2-1.5l0.3-1.1c1.4,0.5,2.9,1,4.3,1.5L443.9,98.9z M324.2,97.2l-0.3-1.1c1.5-0.4,2.9-0.7,4.4-1.1
		l0.3,1.1C327.1,96.5,325.6,96.8,324.2,97.2z M435.3,96.1c-1.4-0.4-2.9-0.8-4.3-1.2l0.3-1.1c1.5,0.4,2.9,0.8,4.4,1.2L435.3,96.1z
		 M333,95.2l-0.2-1.1c1.5-0.3,2.9-0.6,4.4-0.9l0.2,1.1C335.9,94.6,334.4,94.9,333,95.2z M426.6,93.9c-1.5-0.3-2.9-0.6-4.4-0.9
		l0.2-1.1c1.5,0.3,3,0.6,4.4,0.9L426.6,93.9z M341.8,93.4l-0.2-1.1c1.5-0.3,3-0.5,4.5-0.8l0.2,1.1C344.7,92.9,343.3,93.2,341.8,93.4
		z M417.8,92.1c-1.5-0.3-2.9-0.5-4.4-0.7l0.2-1.1c1.5,0.2,3,0.5,4.5,0.7L417.8,92.1z M350.7,92l-0.2-1.1c1.5-0.2,3-0.4,4.5-0.6
		l0.1,1.1C353.6,91.6,352.1,91.8,350.7,92z M122.2,91.7l-1.1-0.2c0.2-1.5,0.4-2.9,0.5-4.4l1.1,0C122.6,88.7,122.4,90.2,122.2,91.7z
		 M359.6,90.9l-0.1-1.1c1.5-0.2,3-0.3,4.5-0.4l0.1,1.1C362.6,90.5,361.1,90.7,359.6,90.9z M408.9,90.8c-1.5-0.2-3-0.3-4.5-0.5
		l0.1-1.1c1.5,0.1,3,0.3,4.5,0.5L408.9,90.8z M368.5,90l-0.1-1.1c1.5-0.1,3-0.2,4.5-0.3l0.1,1.1C371.5,89.8,370,89.9,368.5,90z
		 M400,90c-1.5-0.1-3-0.2-4.5-0.3l0.1-1.1c1.5,0.1,3,0.2,4.5,0.3L400,90z M377.5,89.6l0-1.1c1.5-0.1,3-0.1,4.5-0.1l0,1.1
		C380.5,89.5,379,89.5,377.5,89.6z M391,89.5c-1.5,0-3-0.1-4.5-0.1l0-1.1c1.5,0,3,0,4.5,0.1L391,89.5z M121.4,82.7
		c-0.1-1.5-0.3-2.9-0.7-4.4l1.1-0.2c0.3,1.5,0.5,3,0.7,4.5L121.4,82.7z M119.6,74.1c-0.5-1.4-1-2.8-1.6-4.1l1-0.5
		c0.6,1.4,1.2,2.8,1.7,4.2L119.6,74.1z M115.9,66c-0.7-1.3-1.5-2.5-2.4-3.8l0.9-0.6c0.9,1.3,1.7,2.6,2.5,3.8L115.9,66z M110.8,58.7
		c-0.9-1.1-1.9-2.3-2.9-3.4l0.8-0.8c1.1,1.1,2.1,2.3,3,3.4L110.8,58.7z M104.7,52.2c-1.1-1-2.2-2-3.3-3l0.7-0.9c1.2,1,2.3,2,3.4,3
		L104.7,52.2z M97.8,46.4c-2.2-1.6-3.7-2.5-3.7-2.5l0.6-1c0.1,0,1.5,0.9,3.8,2.6L97.8,46.4z"/>
</g>
</svg>
