<?xml version="1.0" encoding="utf-8"?>
<!-- Generator: Adobe Illustrator 21.0.2, SVG Export Plug-In . SVG Version: 6.00 Build 0)  -->
<svg version="1.1" xmlns="http://www.w3.org/2000/svg" xmlns:xlink="http://www.w3.org/1999/xlink" x="0px" y="0px"
	 viewBox="0 0 560.4 639.2" style="enable-background:new 0 0 560.4 639.2;" xml:space="preserve">
<style type="text/css">
	.st0{display:none;}
	.st1{fill:#20022B;}
	.st2{fill:#E9E200;}
	.st3{fill:#F15A24;}
	.st4{fill:#5FFF2A;}
	.st5{fill:#4100AA;}
	.st6{fill:#2A89FF;}
	.st7{fill:#00E6FF;}
	.st8{fill:#8835FF;}
	.st9{fill:#8C9BAF;}
</style>
<g id="Layer_1" class="st0">
	
		<image style="display:inline;overflow:visible;opacity:0.1;" width="512" height="512" xlink:href="../../Side Projects/PlasticFootprint/footprints-outline-variant.png"  transform="matrix(1.2227 0 0 1.2227 -76.1203 -6.8967)">
	</image>
</g>
<g id="Layer_2">
	<rect x="-0.1" y="-1.9" class="st1" width="554" height="641"/>
	<g>
		<path class="st2" d="M189.8,128.2c-10.9-1.7-41.5-6.4-41.5-6.4l-0.8,70.7l39.5,6.1l24.1-31.7L189.8,128.2z"/>
		<polygon class="st3" points="148,148.8 113.1,137.1 105.4,186.5 		"/>
		<polygon class="st4" points="170.1,161.1 153.6,209.1 205.3,201.9 		"/>
		<polygon class="st3" points="125.8,173.9 147,192.9 130.5,220.8 82.1,213.3 115.2,195.1 		"/>
		<polygon class="st3" points="92,149.1 61.4,163.6 63.9,187.2 82.1,213.3 		"/>
		<path class="st4" d="M43.6,200.3c6.9,1.1,31.5,12,31.5,12l3.3,24.8l-29.3,6.6L43.6,200.3z"/>
		<polygon class="st5" points="116.5,232.8 87.7,255.6 42.2,248.6 61.4,295.1 90.5,283.4 		"/>
		<polygon class="st3" points="122.2,196.2 98.7,230 149.1,237.8 		"/>
		<polygon class="st2" points="178.3,213 132.5,221.1 131.1,256.3 143.8,272.4 161.7,261 173.8,241.6 193.8,223.5 		"/>
		<polygon class="st6" points="97.5,192.4 63.4,203.3 51.8,225.8 88.6,249.7 100.9,216.2 		"/>
		<polygon class="st3" points="121.3,247.7 102,281.1 74.4,269.8 77.7,300.6 67.1,310.1 75.7,326.6 103.3,318.8 129.1,308.6 
			121.7,291.2 		"/>
		<polygon class="st7" points="159.6,274.8 133.7,278.9 126.1,262.6 106.8,296 127.4,319.4 		"/>
		<polygon class="st4" points="115.3,332.7 87.6,302.2 75.7,326.6 89.4,369.2 110.8,361.4 		"/>
		<path class="st3" d="M148.9,311.6l-22.4,13.8l-3.5,22.7c0,0,4.5,16.9,6.6,16.2s15.8,2.4,15.8,2.4l19.6-9.1l10.2-13.6l-4.3-17.9
			l-24.8,3.3L148.9,311.6z"/>
		<polygon class="st3" points="107.3,384.1 113.1,372.9 140.4,399.4 121.2,418.7 		"/>
		<polygon class="st5" points="106.4,416.4 115.4,456.2 150.4,452.5 170.6,426.3 145.9,422.5 129.2,439.1 		"/>
		<path class="st3" d="M152.6,379c-5.8-1.9-36.5,16.6-36.5,16.6l14.9,13.1l35-5.4l11.3-20.5L152.6,379z"/>
		<path class="st6" d="M176.7,332.6c-7-1.1-26.9,9.1-26.9,9.1l9.7,16.5l11.4,12.4l33.9,5.2L176.7,332.6z"/>
		<path class="st2" d="M212.4,398.3l-25.7-4l-18.8-2.9l2.7,34.8L140.1,460l36.5,12.7c0,0,26.2-6.1,26-11.2
			c-0.2-5.1-24.4-45.2-24.4-45.2L212.4,398.3z"/>
		<polygon class="st8" points="225.4,412.5 186.3,417.2 204.3,450.7 		"/>
		<path class="st3" d="M148.5,289.5c0.2,3.6-7.6,30.4-7.6,30.4l27.3,5.7L148.5,289.5z"/>
		<polygon class="st8" points="133.7,337.6 100.4,337.5 131.6,390.8 152.6,379 		"/>
		<polygon class="st2" points="102.9,150.7 74.4,171.6 114.5,203.1 121.7,153.6 		"/>
		<polygon class="st3" points="157.2,159.1 130.5,188.4 156.3,230.8 174.2,187 		"/>
		<polygon class="st5" points="175.2,344 150.4,393.8 174.9,398.6 186.6,362 		"/>
		<polygon class="st4" points="98.9,393 110.3,433.6 145.9,422.5 140.4,399.4 121.2,418.7 		"/>
		<polygon class="st2" points="205.8,369 221.3,399.7 196.8,427.5 187.8,406.7 		"/>
		<path class="st8" d="M165.6,6.6c0,0-18.9,11.2-16.7,16.6s7.7,41.7,7.7,41.7l19.7-16.2L165.6,6.6z"/>
		<polygon class="st6" points="181.8,0 162.9,30.5 196.5,35.7 207.9,21.2 		"/>
		<polygon class="st3" points="151.3,53 154.5,78.8 170.1,69 176.3,48.7 162.4,53.7 		"/>
		<polygon class="st5" points="186.1,17.9 176.3,48.7 191.5,68.3 203,52.8 		"/>
		<polygon class="st3" points="189.1,50.7 170.4,67.1 192.3,95.7 208.4,63.8 		"/>
		<polygon class="st5" points="191.5,68.3 154.5,78.8 162.7,91.1 182.4,94.2 		"/>
		<polygon class="st3" points="209.4,30.6 207,46.4 193.2,44.3 		"/>
		<polygon class="st3" points="109.1,38.4 92.7,53 102.4,81.8 115.2,70.7 		"/>
		<polygon class="st3" points="127.9,41.3 122.8,73.9 131.2,59 		"/>
		<polygon class="st7" points="90.2,68.8 100.3,101.8 113.2,83.5 101.2,56.4 		"/>
		<polygon class="st5" points="120,40 101.2,56.4 122.9,93.1 		"/>
		<polygon class="st3" points="128.8,74.8 108.1,90.8 110.2,103.3 129,106.2 		"/>
		<polygon class="st3" points="49.5,89.9 46.9,106.7 59.8,95.5 		"/>
		<polygon class="st3" points="70.4,65.8 56.7,79.4 65.7,96.4 79.6,98.6 		"/>
		<polygon class="st3" points="69.7,110.2 59.8,95.5 50.2,118.3 63,120.3 		"/>
		<polygon class="st8" points="79.6,98.6 71.1,101 64.7,102.9 63,120.3 81.8,123.2 		"/>
		<polygon class="st3" points="21.5,113.9 19.1,129.7 34.7,140.2 43.4,129.4 		"/>
		<polygon class="st5" points="35.2,103.9 27.5,118.2 48.8,127.2 		"/>
		<polygon class="st7" points="46.5,142 34.1,150.2 24.8,138.7 48.8,127.2 		"/>
		<polygon class="st3" points="15,156.4 0,168.2 18.4,180.2 		"/>
		<polygon class="st2" points="6.7,151.1 15.4,173.7 23.1,162.7 		"/>
	</g>
	<g>
		<path class="st2" d="M371,294.5c10.9-1.6,41.6-6,41.6-6l0,70.7l-39.6,5.7L349.2,333L371,294.5z"/>
		<polygon class="st3" points="412.6,315.5 447.6,304.2 454.7,353.7 		"/>
		<polygon class="st4" points="390.4,327.6 406.4,375.8 354.8,368.1 		"/>
		<polygon class="st3" points="434.6,340.9 413.2,359.7 429.3,387.7 477.8,380.7 444.9,362.2 		"/>
		<polygon class="st3" points="468.6,316.4 499,331.2 496.3,354.8 477.8,380.7 		"/>
		<path class="st4" d="M516.4,368.1c-6.9,1-31.7,11.6-31.7,11.6l-3.5,24.8l29.3,6.9L516.4,368.1z"/>
		<polygon class="st5" points="443.2,399.8 471.8,423 517.3,416.5 497.7,462.7 468.7,450.7 		"/>
		<polygon class="st3" points="437.9,363.2 461,397.3 410.5,404.5 		"/>
		<polygon class="st2" points="381.6,379.4 427.3,388 428.3,423.2 415.5,439.2 397.7,427.6 385.8,408.1 366,389.7 		"/>
		<polygon class="st6" points="462.7,359.7 496.6,370.9 507.9,393.6 470.9,417.1 459,383.4 		"/>
		<polygon class="st3" points="438.2,414.7 457.2,448.3 484.9,437.3 481.3,468.1 491.7,477.7 483,494.1 455.5,485.9 429.8,475.5 
			437.4,458.2 		"/>
		<polygon class="st7" points="399.7,441.4 425.5,445.8 433.3,429.5 452.3,463.2 431.4,486.4 		"/>
		<polygon class="st4" points="443.4,499.8 471.4,469.5 483,494.1 468.9,536.6 447.5,528.5 		"/>
		<path class="st3" d="M410,478.3l22.2,14l3.3,22.8c0,0-4.7,16.8-6.8,16.1c-2.1-0.7-15.8,2.3-15.8,2.3l-19.5-9.3l-10.1-13.7
			l4.5-17.8l24.8,3.5L410,478.3z"/>
		<polygon class="st3" points="450.8,551.3 445.1,540 417.6,566.2 436.5,585.7 		"/>
		<polygon class="st5" points="451.4,583.5 441.9,623.3 407,619.2 387,592.8 411.8,589.2 428.3,606 		"/>
		<path class="st3" d="M405.5,545.7c5.8-1.8,36.3,17,36.3,17l-15.1,12.9l-34.9-5.8l-11-20.6L405.5,545.7z"/>
		<path class="st6" d="M381.9,499c7-1,26.8,9.4,26.8,9.4l-9.9,16.4l-11.5,12.3l-33.9,4.9L381.9,499z"/>
		<path class="st2" d="M345.6,564.4l25.7-3.7l18.8-2.7l-3.1,34.8l30.1,34.1l-36.6,12.3c0,0-26.2-6.3-25.9-11.4
			c0.3-5.1,24.9-45,24.9-45L345.6,564.4z"/>
		<polygon class="st8" points="332.4,578.4 371.4,583.5 353.1,616.8 		"/>
		<path class="st3" d="M410.7,456.2c-0.2,3.6,7.3,30.5,7.3,30.5l-27.3,5.4L410.7,456.2z"/>
		<polygon class="st8" points="424.9,504.5 458.2,504.8 426.4,557.7 405.5,545.7 		"/>
		<polygon class="st2" points="457.7,317.9 486,339.1 445.5,370.2 438.9,320.6 		"/>
		<polygon class="st3" points="403.2,325.8 429.7,355.3 403.4,397.5 386,353.5 		"/>
		<polygon class="st5" points="383.3,510.5 407.7,560.5 383.1,565.1 371.7,528.3 		"/>
		<polygon class="st4" points="459.1,560.2 447.3,600.8 411.8,589.2 417.6,566.2 436.5,585.7 		"/>
		<polygon class="st2" points="352.5,535.1 336.7,565.7 360.9,593.7 370,573 		"/>
		<path class="st8" d="M396.5,173.2c0,0,18.8,11.4,16.6,16.8c-2.3,5.4-8.2,41.6-8.2,41.6l-19.5-16.4L396.5,173.2z"/>
		<polygon class="st6" points="380.4,166.4 398.9,197.1 365.3,201.9 354.1,187.3 		"/>
		<polygon class="st3" points="410.2,219.7 406.9,245.4 391.3,235.5 385.4,215.2 399.2,220.3 		"/>
		<polygon class="st5" points="375.9,184.2 385.4,215.2 370,234.6 358.6,219 		"/>
		<polygon class="st3" points="372.5,217 391,233.6 368.8,262 353.1,229.9 		"/>
		<polygon class="st5" points="370,234.6 406.9,245.4 398.5,257.7 378.7,260.6 		"/>
		<polygon class="st3" points="352.4,196.7 354.7,212.5 368.5,210.5 		"/>
		<polygon class="st3" points="452.7,205.5 468.9,220.4 458.9,249.1 446.2,237.8 		"/>
		<polygon class="st3" points="433.9,208.2 438.5,240.9 430.3,225.9 		"/>
		<polygon class="st7" points="471.2,236.2 460.8,269 448,250.6 460.3,223.6 		"/>
		<polygon class="st5" points="441.8,207.1 460.3,223.6 438.3,260.1 		"/>
		<polygon class="st3" points="432.6,241.7 453.1,258 450.9,270.4 432.1,273.1 		"/>
		<polygon class="st3" points="511.7,257.7 514.1,274.5 501.4,263.2 		"/>
		<polygon class="st3" points="491,233.3 504.6,247.1 495.4,264 481.6,266 		"/>
		<polygon class="st3" points="491.3,277.8 501.4,263.2 510.7,286.1 497.8,287.9 		"/>
		<polygon class="st8" points="481.6,266 490,268.6 496.3,270.5 497.8,287.9 479,290.6 		"/>
		<polygon class="st3" points="539.4,282 541.7,297.8 526,308.1 517.4,297.2 		"/>
		<polygon class="st5" points="525.8,271.8 533.4,286.2 512,295 		"/>
		<polygon class="st7" points="514.1,309.8 526.4,318.2 535.9,306.7 512,295 		"/>
		<polygon class="st3" points="545.5,324.5 560.4,336.5 541.9,348.3 		"/>
		<polygon class="st2" points="553.9,319.3 545,341.8 537.3,330.8 		"/>
	</g>
	<text transform="matrix(1 0 0 1 -495.9147 905.6375)" class="st9" style="font-family:'MyriadPro-Regular'; font-size:72px;">safsdfsafdsafsdf</text>
</g>
</svg>
