<?xml version="1.0" encoding="utf-8"?>
<!-- Generator: Adobe Illustrator 21.0.2, SVG Export Plug-In . SVG Version: 6.00 Build 0)  -->
<svg version="1.1" id="Layer_1" xmlns="http://www.w3.org/2000/svg" xmlns:xlink="http://www.w3.org/1999/xlink" x="0px" y="0px"
	 viewBox="0 0 1440 900" style="enable-background:new 0 0 1440 900;" xml:space="preserve">
<style type="text/css">
	.st0{fill:#778899;}
	.st1{opacity:0.3;}
	.st2{clip-path:url(#SVGID_2_);fill:#373449;}
	.st3{opacity:0.23;clip-path:url(#SVGID_2_);fill:#9AD7D2;}
	.st4{opacity:0.15;clip-path:url(#SVGID_2_);fill:#9AD7D2;}
</style>
<rect class="st0" width="1440" height="900"/>
<g class="st1">
	<defs>
		<polygon id="SVGID_1_" class="st1" points="1554.3,706.1 -83.5,519.8 -15.3,-222.1 1622.5,-35.8 		"/>
	</defs>
	<clipPath id="SVGID_2_">
		<use xlink:href="#SVGID_1_"  style="overflow:visible;"/>
	</clipPath>
	<path class="st2" d="M-302.6-119.4c-44,58.8-1.1,134.4,103.6,183.9c13.7,6.5,27.8,12.2,42.2,17.4c39.2,14,61.5,37.2,56.6,59.1
		C-126.9,260.7-5.4,395,222.7,474.7c154.9,54.1,328,72.3,479.2,57.5c43.6-4.3,92.5,2.3,130.6,19.2c31.6,14.1,66.5,26.8,104.5,37.7
		c213.6,61.2,460.6,42.6,584.3-44.3c33.8-23.7,56-50.2,67.8-78.1c12.5-29.6,47.8-53.2,99.2-65.8c84-20.6,155.2-53.4,204.2-97.9
		c150.7-136.7,26.6-337-271.1-438.1c-55.3-18.8-112.9-33.1-170.8-42.9c-145-24.7-274.2-75.5-374.2-139.2
		c-59.3-37.8-132.5-71.5-217.8-98.5c-303.4-95.9-666.8-70.5-837.9,58.8c-47.1,35.6-76.1,75.4-88.7,117c-6.9,23-37.1,39.9-79.4,46.4
		C-216.6-182.9-273.9-157.8-302.6-119.4z"/>
	<path class="st3" d="M-167.5-206.6c-48,43.6-28.3,105,47.3,149.4c9.9,5.8,20.2,11.1,31,15.9C-59.9-28.3-46.4-9-54.9,7.9
		c-46.2,92.2,25.9,203.8,196.3,278.5c115.7,50.7,253.7,74.4,380.5,71c36.6-1,75.3,6.8,103,22.1c23,12.7,49,24.5,77.9,35.1
		c162.3,59.5,368.4,58.3,487.3-2.9c32.5-16.7,56.1-36.2,71.4-57.4c16.2-22.4,49.9-39,94.6-46.1c72.9-11.5,137.9-33.3,187.1-65.4
		c151.2-98.7,90.4-262.1-132.7-357.3c-41.5-17.7-85.7-32-131.1-42.8c-113.6-27.2-209.1-74-277.9-129.2
		c-40.9-32.8-93.9-63.1-158.2-88.8c-228.8-91.5-531.5-91.3-697.8,0.4c-45.8,25.2-77.7,54.8-96.4,86.7c-10.3,17.6-38.5,29.2-74.5,32
		C-84.2-251.6-136.2-235.1-167.5-206.6z"/>
	<path class="st3" d="M-261.1-412.6c-48,43.6-28.3,105,47.3,149.4c9.9,5.8,20.2,11.1,31,15.9c29.2,13,42.7,32.4,34.3,49.3
		C-194.7-105.9-122.6,5.7,47.8,80.4c115.7,50.7,253.7,74.4,380.5,71c36.6-1,75.3,6.8,103,22.1c23,12.7,49,24.5,77.9,35.1
		c162.3,59.5,368.4,58.3,487.3-2.9c32.5-16.7,56.1-36.2,71.4-57.4c16.2-22.4,49.9-39,94.6-46.1c72.9-11.5,137.9-33.3,187.1-65.4
		c151.2-98.7,90.4-262.1-132.7-357.3c-41.5-17.7-85.7-32-131.1-42.8c-113.6-27.2-209.1-74-277.9-129.2
		c-40.9-32.8-93.9-63.1-158.2-88.8c-228.8-91.5-531.5-91.3-697.8,0.4C6-555.5-25.9-525.9-44.6-494.1c-10.3,17.6-38.5,29.2-74.5,32
		C-177.8-457.5-229.8-441-261.1-412.6z"/>
	<path class="st4" d="M-464.9-220.8c-52.8,68-4.7,156.1,116.2,214.3C-333,1.1-316.7,7.9-299.9,14c45.3,16.5,70.7,43.6,64.5,69.1
		c-34.1,139,104.2,295.8,368.2,389.9c179.2,63.9,380.7,86.2,557.3,70c51-4.7,107.8,3.3,151.8,23.2c36.5,16.6,76.9,31.5,120.9,44.4
		c247.5,72.5,536.1,52.5,682.5-47.6c40-27.3,66.6-58,81-90.3c15.3-34.2,57-61.5,117.3-75.8c98.5-23.4,182.4-61,240.6-112.3
		c179.2-157.8,39.5-391.3-305.3-510.8c-64.1-22.2-130.8-39.1-198.2-51c-168.4-29.7-317.9-89.6-432.8-164.2
		c-68.3-44.3-152.7-83.9-251.6-115.9c-351.4-113.4-775.9-86.3-978.6,62.7c-55.8,41-90.7,87.1-106.3,135.4
		c-8.6,26.7-44.3,46.1-93.8,53.4C-363.1-293.9-430.5-265.1-464.9-220.8z"/>
</g>
</svg>
