<?xml version="1.0" encoding="utf-8"?>
<!-- Generator: Adobe Illustrator 21.0.2, SVG Export Plug-In . SVG Version: 6.00 Build 0)  -->
<svg version="1.1" id="Layer_1" xmlns="http://www.w3.org/2000/svg" xmlns:xlink="http://www.w3.org/1999/xlink" x="0px" y="0px"
	 viewBox="0 0 549.2 454" style="enable-background:new 0 0 549.2 454;" xml:space="preserve">
<style type="text/css">
	.st0{fill:#3A3736;}
</style>
<g id="_x32_">
	<path class="st0" d="M275.3,107.7c0-0.2-0.2-0.5-0.4-0.7c-17-13.8-35.5-25.5-55.2-35.2c0.1-0.9-0.9-2-2.1-1.4
		c-29.4,13.8-55.5,33.5-76.9,57.9c-0.1,0.1-0.1,0.1-0.1,0.2c-1.3-0.7-2.5,1.5-1.2,2.4c4,2.8,7.8,5.7,11.7,8.6
		c-0.2,0.7-0.5,1.4-0.7,2.1c-0.2,0.7,0.8,0.9,1.1,0.2c0.2-0.6,0.4-1.2,0.6-1.7c5.1,3.9,10.2,7.8,15.3,11.9c0.1,0.2,0.3,0.5,0.6,0.4
		c9.2,7.4,18.2,15,26.9,22.8c-0.1,0.2-0.2,0.2-0.2,0.4c-0.3,0.7,0.7,1.2,0.9,0.6c0-0.1,0.1-0.2,0.1-0.2c2.1,1.8,4,3.6,6.1,5.5
		c-0.3,1.2,1.7,2.1,2.6,0.9c20.6-27,45.3-51.1,71.3-72.8C276.4,109.1,276,108.2,275.3,107.7z M142.8,130c2.5-2.8,5-5.6,7.7-8.3
		c-1.8,3.5-3.2,7-4.3,10.8C145.1,131.6,144,130.8,142.8,130z M147.2,133.1c1.4-5.1,3.5-10,6.3-14.5c4.3-4.3,8.7-8.3,13.3-12.2
		c-5.9,9.6-10.7,19.7-14.5,30.4C150.5,135.6,148.8,134.3,147.2,133.1z M153,137.5c3.8-10.7,8.8-21,14.7-30.7
		c0.2-0.4-0.2-0.8-0.5-0.8c3.1-2.6,6.2-5.1,9.3-7.5c-5.4,13.7-10.7,27.4-16.1,41.1c-0.2,0.7,0.8,0.9,1.1,0.2
		c5.5-13.9,10.8-27.7,16.3-41.6c0.1-0.3-0.1-0.5-0.2-0.6c6.7-5,13.6-9.7,20.9-14c-10,21.9-20,43.8-29.9,65.8
		C163.3,145.3,158.2,141.4,153,137.5z M169.3,150.1c10.1-22.1,20.2-44.3,30.2-66.4c0.1-0.2,0-0.5-0.2-0.7c2.5-1.5,5-2.9,7.6-4.3
		c-8.8,25.9-19.8,51.1-32.9,75.2C172.5,152.7,170.9,151.4,169.3,150.1z M175,154.7c13.3-24.5,24.5-50.1,33.5-76.7
		c2.7-1.4,5.5-2.8,8.2-4.1c-9.7,29.2-21.6,57.5-35.7,84.8c-0.3,0.6,0.6,1.2,0.9,0.6c14.1-27.6,26.1-56.2,35.9-85.5
		c1.9,0.9,3.8,1.9,5.7,2.9c-0.1,0.1-0.1,0.2-0.1,0.2c-8.7,30.8-20.4,60.6-34.8,89.2C184,162.3,179.5,158.5,175,154.7z M189.3,166.8
		c14.5-28.7,26.3-58.7,35-89.6l0,0c2.3,1.2,4.6,2.5,6.9,3.7l0,0c-9.5,31.4-21.3,62.1-35.3,91.9C193.9,170.8,191.6,168.8,189.3,166.8
		z M203.4,179.4c-2.1-2-4.3-4-6.4-5.9c14-29.8,25.9-60.5,35.4-92.1c6,3.4,11.9,6.9,17.6,10.7c-6.9,19.1-13.8,38.1-20.7,57.2
		C220.1,158.9,211.5,168.9,203.4,179.4z M231,147.3c6.6-18.2,13.1-36.4,19.7-54.6c1.8,1.2,3.6,2.4,5.3,3.6
		c-5.2,13.8-10.4,27.6-15.6,41.5C237.3,140.9,234.2,144.1,231,147.3z M242.3,136c4.9-13.1,9.8-26,14.7-39.1c2,1.4,3.9,2.7,5.8,4.2
		c-2.7,7.8-5.5,15.4-8.1,23.2C250.5,128.1,246.4,132,242.3,136z M263.3,116.6c-2.3,2.1-4.6,4.1-6.9,6.2c2.5-7,4.9-14,7.4-21.1
		c1.7,1.2,3.4,2.6,5,3.8c-0.2-0.2-0.7-0.1-0.7,0.3C267.4,109.8,265.8,113.4,263.3,116.6L263.3,116.6z M266.3,114.1
		c1.4-2.5,2.3-5.1,2.8-7.9c0-0.2,0-0.3-0.1-0.4c1.2,1,2.5,1.9,3.7,2.9C270.5,110.5,268.4,112.3,266.3,114.1z"/>
	<path class="st0" d="M465.6,266.2c0.1-1-1.4-2-2.5-1.1c-28.9,25.5-65.5,41.1-104.1,44.2c-0.3,0-0.6,0.2-0.7,0.3
		c-2.5-7.9-3.6-15.9-3.4-24.3c0-1.3-1.7-1.5-2.4-0.7c-10.8,9.7-21.7,19.3-32.5,29c-5.6,5-11.2,10-16.9,15
		c-3.1,2.8-9.5,7.5-11.2,11.4c-1.6,3.7,2.8,5,5.8,7c1.3,0.9,2.6,1.8,4,2.7c-0.1,0.4,0.4,0.9,0.8,0.6c1.6,1,3.1,2.1,4.6,3.1
		c0.1,0.2,0.3,0.4,0.6,0.4c5.7,3.8,11.4,7.5,17.1,11.2c3.3,2.1,6.5,4.2,9.7,6.4c0.1,0.2,0.3,0.5,0.7,0.4c1.7,1.2,3.6,2.3,5.3,3.5
		c0,0.3,0.4,0.7,0.7,0.5c2,1.3,4,2.6,5.9,4c-0.2,0.2-0.3,0.5-0.5,0.7c-0.4,0.6,0.5,1.1,0.9,0.6c0.2-0.2,0.3-0.4,0.5-0.7
		c4.7,3.1,9.5,6.4,14.2,9.6c0.8,0.5,2.1,0.3,2.2-0.7c0.7-5.9,1.6-11.6,2.3-17.5c56.3-1.3,100.9-48.2,99.7-104.2
		C466.5,266.6,466.1,266.3,465.6,266.2z M398.8,362.6L398.8,362.6c7.8-11.6,15.4-23.2,23.1-34.9c0.4-0.6-0.6-1.2-0.9-0.6
		c-7.7,11.6-15.4,23.2-23.1,34.8c-0.2,0.3,0,0.7,0.3,0.7c-8.2,3-16.8,4.9-25.8,5.6c10.1-14.3,20.2-28.6,30.3-42.9
		c0.4-0.6-0.5-1.1-0.9-0.6c-10.2,14.5-20.5,28.9-30.7,43.5c0,0,0,0.1-0.1,0.1c-1.4,0.1-2.8,0.2-4.2,0.2c-0.7-0.7-2.2-0.7-2.4,0.6
		c-0.7,5.7-1.5,11.4-2.3,17c-2.4-1.6-4.7-3.2-7.1-4.8c0,0,0.1,0,0.1-0.1c3.8-5.1,7.6-10.3,11.4-15.4c0.4-0.6-0.5-1.1-0.9-0.6
		c-3.8,5.1-7.6,10.3-11.4,15.4l0,0c-1.5-1-3-2-4.5-3c9-12.1,18-24,27.1-36.1c0.4-0.6-0.5-1.1-0.9-0.6c-9,12-18,24-27,36
		c-1.9-1.2-3.8-2.6-5.7-3.8c11.8-13.1,22.8-26.8,32.9-41.2c0.4-0.6-0.5-1.1-0.9-0.6c-10.1,14.5-21,28.2-32.8,41.1
		c-1.7-1.1-3.3-2.1-5-3.2c11.1-11.1,21.1-23.1,29.9-36.1c0.4-0.6-0.6-1.2-0.9-0.6c-8.8,13-18.8,25-29.9,36c-1.7-1.2-3.5-2.2-5.1-3.4
		c11.2-10.7,21.5-22.3,30.6-34.8c0.4-0.6-0.5-1.1-0.9-0.6c-9.1,12.6-19.3,24.1-30.6,34.8c-1.5-0.9-3-1.9-4.4-2.8
		c12.9-12.9,24.5-26.9,34.5-42.1c0.4-0.6-0.6-1.2-0.9-0.6c-10.1,15.2-21.6,29.2-34.5,42.1c-1.5-0.9-3-1.9-4.5-2.8
		c9-7.1,16.9-15.4,23.8-24.6c0.4-0.6-0.5-1.1-0.9-0.6c-6.8,9.3-14.8,17.5-23.8,24.5c-1.3-0.8-2.7-1.7-4-2.6
		c9.8-10.4,19.7-20.9,29.5-31.3c0.5-0.5-0.2-1.2-0.7-0.7c-9.9,10.5-19.7,21-29.7,31.5c-1.7-1.1-3.3-2.1-5-3.1
		c12.6-11.6,24-24.5,33.9-38.7c0.4-0.6-0.5-1.1-0.9-0.6c-9.8,14.1-21.2,27-33.9,38.7c-1.6-1-3.1-1.9-4.6-2.9
		c9.7-10.9,20-21.2,30.9-30.9c0.5-0.5-0.2-1.2-0.7-0.7c-11,9.7-21.3,20.2-31.1,31.1c-1.8-1.2-3.7-2.2-5.5-3.4
		c12.1-11.6,24.1-23.2,36.2-34.9c0.5-0.5-0.2-1.2-0.7-0.7c-12.1,11.6-24.2,23.4-36.3,35c-1.4-0.8-2.7-1.7-4.1-2.5
		c19.9-17.7,39.8-35.4,59.7-53.2c0.1,7.8,1.3,15.4,3.8,23c0.4,1.2,1.7,1.1,2.3,0.3c0.2,0.2,0.5,0.2,0.8,0.2
		c38.7-3.1,75.3-18.6,104.6-43.9C464.7,311.1,437.3,348.4,398.8,362.6z"/>
	<path class="st0" d="M260.7,295c-33.6,5-68,4.8-101.9,2.1c-1-0.1-1.4,0.8-1.2,1.7c-0.2,0.2-0.2,0.4-0.2,0.7
		c0.2,2.2,0.6,4.4,0.8,6.5c-0.1,0.4-0.1,0.8,0.2,1.2c2.7,19.1,7.4,37.8,13.8,56c-0.7,0.6-0.7,2.1,0.4,2.5c3.1,1.1,6.2,2.1,9.3,3.1
		c0.2,0.2,0.4,0.2,0.6,0.2c27.7,8.3,56.6,11.5,85.5,9.2c0.1,0,0.2-0.1,0.2-0.1c0.5,1.4,2.8,0.7,2.5-0.9c-4.6-26.4-7.7-53-9-79.8
		C262.9,296.8,262.2,294.8,260.7,295z M165.8,331.4c8.8-9.5,17.8-18.9,26.6-28.4c0.5-0.5-0.2-1.2-0.7-0.7
		c-8.7,9.3-17.4,18.6-26.1,27.9c-0.2-1.2-0.6-2.5-0.8-3.7c0.2,0.1,0.5,0.1,0.7-0.2c4.6-7.8,10.7-14.5,18.1-19.9
		c0.6-0.4,0-1.3-0.6-0.9c-7.4,5.5-13.6,12.3-18.4,20.2c-0.2-1.2-0.5-2.6-0.7-3.8c4.8-6.3,10.5-11.7,17-16.1c0.6-0.4,0-1.3-0.6-0.9
		c-6.4,4.4-12,9.6-16.7,15.7c-0.2-0.9-0.3-1.9-0.6-2.8c3.8-5.2,8.4-9.7,13.8-13.2c0.6-0.4,0-1.3-0.6-0.9c-5.2,3.6-9.7,7.8-13.5,12.8
		c-0.3-1.7-0.6-3.4-0.8-5c2.1-3.6,5.1-6.3,8.8-8c0.7-0.3,0.1-1.2-0.6-0.9c-3.6,1.7-6.4,4.2-8.6,7.4c-0.5-3.1-0.9-6.4-1.3-9.6
		c13.5,1,27.2,1.7,40.8,1.7c-2,2-4,4-5.9,6.1c-0.2-0.2-0.6-0.4-0.8-0.2c-9.7,9.3-18.8,19.2-27,29.6
		C166.7,335.2,166.2,333.3,165.8,331.4z M167.5,338.5c6.5-8.3,13.5-16.2,21-23.7c-7.3,7.9-14.1,16.3-20.7,24.9
		C167.7,339.2,167.6,338.8,167.5,338.5z M176.4,364.1c-0.4-0.2-0.7-0.2-1.2-0.4c0-0.1,0-0.1,0-0.2c-0.5-1.3-0.9-2.7-1.4-4
		c15-17.5,30-34.9,45.3-52c0.5-0.5-0.3-1.3-0.7-0.7c-15.1,17-30.2,34.3-44.9,51.6c-0.4-1.2-0.8-2.5-1.2-3.6c0.2,0,0.4,0,0.5-0.2
		c13.6-18.2,28.5-35.4,44.4-51.7c0.5-0.5-0.2-1.2-0.7-0.7c-15.9,16.3-30.7,33.5-44.4,51.7c-0.7-2.5-1.6-4.9-2.2-7.4
		c11.6-12.9,23.1-25.9,34.7-38.7c0.5-0.5-0.3-1.2-0.7-0.7c-11.4,12.8-22.9,25.5-34.3,38.3c-0.4-1.4-0.8-2.9-1.2-4.3
		c10.5-13.9,22.1-27,34.4-39.2c8.1,0,16.3-0.2,24.4-0.7c-14.7,22.6-31.6,43.6-50.4,62.9C176.4,364,176.4,364.1,176.4,364.1z
		 M177.4,364.5c18.9-19.4,35.9-40.6,50.7-63.4c0-0.1,0.1-0.1,0.1-0.2c4-0.2,8.2-0.5,12.2-0.9c-18.3,22.7-37.3,44.9-56.8,66.4
		C181.6,365.8,179.5,365.1,177.4,364.5z M184.8,366.8c19.5-21.5,38.3-43.5,56.5-66c0.2-0.2,0.2-0.6-0.1-0.8
		c3.7-0.3,7.4-0.7,11.1-1.2c-19.9,23.4-39.8,46.8-59.7,70.1C189.8,368.3,187.3,367.5,184.8,366.8z M200.9,370.9
		c0.1-0.1,0.1-0.2,0.2-0.2c0.2-0.5-0.3-0.7-0.7-0.6c18.6-22.5,37.1-44.9,55.7-67.4c0.4-0.5-0.3-1.3-0.7-0.7
		c-18.9,22.9-37.8,45.8-56.7,68.6c-1.7-0.4-3.4-0.8-5-1.2c19.9-23.3,39.7-46.7,59.6-70c0.2-0.2,0.2-0.4,0.1-0.6c2-0.2,4-0.5,5.9-0.7
		c0.1,2.1,0.2,4.4,0.4,6.5l0,0c-17.7,23.5-36.8,45.8-57.3,66.7C201.8,371.1,201.4,371,200.9,370.9z M216.3,373.7
		c-4.3-0.7-8.6-1.4-12.8-2.2c20.1-20.7,38.8-42.5,56.2-65.4c0.2,2.6,0.3,5.1,0.6,7.6c-0.2-0.1-0.5,0-0.6,0.2
		c-15,20.7-31.7,39.8-50.1,57.4c-0.5,0.5,0.2,1.2,0.7,0.7c18.3-17.6,35.1-36.8,50-57.3c0.2,3.6,0.6,7.2,0.9,10.7
		c-15,16-29.8,32.1-44.8,48.1C216.4,373.6,216.3,373.6,216.3,373.7z M267.9,375.5c-3.4,0.2-6.8,0.4-10.2,0.6c2.9-3.5,5.7-7,8.6-10.5
		C266.8,368.9,267.3,372.2,267.9,375.5z M266.1,364.1c-3.3,4-6.5,8-9.8,12c-3.6,0.1-7.2,0.1-10.8,0c5.6-6.5,11.2-13,16.8-19.5
		c0.4-0.5-0.3-1.3-0.7-0.7c-5.6,6.5-11.2,13-16.9,19.5c-0.2,0.2-0.2,0.5,0,0.7c-3.5-0.1-6.9-0.2-10.3-0.5
		c8.9-9.7,18.3-18.8,28.1-27.5c0.5-0.5-0.2-1.2-0.7-0.7c-9.8,8.8-19.2,18-28.2,27.7c-0.2,0.2-0.2,0.4-0.1,0.6
		c-5.3-0.4-10.5-1-15.7-1.7c14.6-15.7,29.2-31.3,43.8-47C262.6,339.4,264.2,351.8,266.1,364.1z"/>
	<path class="st0" d="M158.4,247.4c0.1-0.3,0-0.6-0.1-0.7c8.3,0.2,16.3,1.7,24,4.5c1.2,0.4,1.9-1.1,1.5-2
		c-5.7-13.3-11.4-26.6-17.1-39.9c-3-6.9-5.9-13.8-8.9-20.7c-1.7-3.9-4.1-11.4-7.3-14.2c-3-2.6-5.6,1.1-8.4,3.2
		c-8.6,6.5-17.2,13.1-25.6,19.8c-11.6,9.3-23.5,18.4-35.4,27.3c-0.7,0.6-1,1.8,0,2.3c5.3,2.6,10.6,5.2,15.9,7.8c0,0,0,0,0,0.1
		c-1.2,1.2-2.4,2.3-3.6,3.6c-0.5,0.5,0.2,1.2,0.7,0.7c0.7-0.7,1.4-1.5,2.1-2.2c-1.1,3.7-1.9,7.5-2.6,11.2c-0.5,0.6-1,1.2-1.6,1.8
		c-0.4,0.6,0.3,1.3,0.7,0.7c0.2-0.2,0.2-0.3,0.4-0.5c-0.4,3.1-0.7,6.2-0.9,9.3c-0.2,0.2-0.2,0.7,0,0.8c-0.2,3.7-0.1,7.4,0.2,11.2
		c-0.2,0.2-0.3,0.3-0.5,0.5c-0.4,0.4,0.2,1.1,0.6,0.8c0.7,9.1,2.7,18,5.9,26.5c-0.1,0.1-0.2,0.2-0.2,0.2c-0.5,0.5,0.2,1.2,0.7,0.8
		c1.5,4,3.2,7.9,5.3,11.7c-0.2,0.2-0.2,0.3-0.4,0.4c-0.5,0.5,0.2,1.2,0.7,0.7c0.1-0.1,0.2-0.2,0.2-0.2c2.4,4.4,5,8.5,8,12.6
		c-0.2,0.2-0.4,0.5-0.6,0.7c-0.5,0.5,0.3,1.3,0.7,0.7c0.2-0.2,0.3-0.4,0.5-0.6c3.5,4.5,7.3,8.8,11.4,12.6c-0.2,0.2-0.3,0.4-0.6,0.7
		c-0.4,0.5,0.3,1.3,0.7,0.7c0.2-0.2,0.4-0.4,0.6-0.7c10.7,9.7,23.5,17.4,38.2,22c0.7,0.2,1.2-0.1,1.4-0.6c0.9,0.4,2.3-0.7,1.7-2
		C152.2,324.2,149.1,284.7,158.4,247.4z M157.4,356.9c0.7-1,1.4-1.9,2.1-2.9c0.4-0.6-0.5-1.1-0.9-0.6c-0.7,1-1.4,2.1-2.1,3.1
		c-2-0.8-3.9-1.7-5.7-2.6c0.8-0.8,1.7-1.7,2.6-2.6c0.5-0.5-0.2-1.2-0.7-0.7c-0.9,0.9-1.9,1.9-2.8,2.8c-4.3-2.1-8.3-4.6-12.2-7.4
		c0.2,0,0.3-0.1,0.4-0.2c3.6-4.7,7.2-9.4,10.7-14.1c0.4-0.6-0.5-1.1-0.9-0.6c-3.6,4.7-7.2,9.4-10.7,14.1c-0.1,0.1-0.1,0.2-0.1,0.3
		c-2.1-1.5-4-3.1-5.9-4.6c4.9-3.1,8.7-7.4,11-12.6c0.2-0.7-0.7-1.2-0.9-0.6c-2.3,5.2-6,9.5-10.8,12.5l0,0c-0.8-0.7-1.6-1.4-2.4-2.1
		c4.3-5,8.7-10,13-15c0.4-0.5-0.3-1.3-0.7-0.7c-4.3,5-8.7,10-13,15c-1.5-1.4-2.9-2.8-4.3-4.3c4-4.7,7.9-9.4,11.9-14.1
		c0.4-0.5-0.3-1.3-0.7-0.7c-4,4.7-7.9,9.4-11.8,14c-1.4-1.6-2.8-3.1-4.1-4.7c5.5-4,10-8.9,13.3-14.9c0.3-0.6-0.6-1.2-0.9-0.6
		c-3.3,5.8-7.7,10.7-13.1,14.5c-0.6-0.7-1.1-1.4-1.6-2.1c4.8-5.5,9.6-10.9,14.4-16.4c0.5-0.5-0.3-1.3-0.7-0.7
		c-4.8,5.5-9.5,10.8-14.3,16.3c-1.4-1.9-2.7-3.9-4-5.9c4-3.6,8.2-7.4,12.2-11.1c0.5-0.5-0.2-1.2-0.7-0.7c-4,3.6-8,7.3-12.1,10.8
		c-1.2-1.9-2.2-3.8-3.3-5.7c6.2-6.4,12.5-12.9,18.7-19.3c0.5-0.5-0.2-1.2-0.7-0.7c-6.2,6.4-12.3,12.7-18.5,19.1
		c-0.9-1.7-1.7-3.5-2.5-5.2c4.1-4.1,8.3-8.3,12.4-12.4c0.5-0.5-0.2-1.2-0.7-0.7c-4,4-8,8-12.1,12.1c-0.7-1.8-1.5-3.6-2.1-5.5
		c6.5-6.5,13-13,19.5-19.5c0.5-0.5-0.2-1.2-0.7-0.7c-6.4,6.4-12.7,12.8-19.2,19.2c-0.7-2.2-1.5-4.5-2.1-6.7c0.2,0.1,0.4,0.1,0.6-0.1
		c5.4-5.4,10.7-10.7,16.1-16.2c0.5-0.5-0.2-1.2-0.7-0.7c-5.4,5.4-10.7,10.7-16.1,16.2l0,0c-0.7-2.8-1.3-5.7-1.8-8.6
		c0.2,0.1,0.4,0.1,0.6-0.1c0.2-0.2,0.2-0.2,0.4-0.4l0,0c0.3,0,0.5-0.2,0.5-0.6c6.9-7.1,13.8-14.1,20.7-21.2c0.5-0.5-0.2-1.2-0.7-0.7
		c-7.2,7.4-14.4,14.8-21.6,22.1c-0.5-3.3-0.9-6.6-1.1-10c6.2-6.5,12.5-13.1,18.7-19.5c0.5-0.5-0.2-1.2-0.7-0.7
		c-6,6.3-12,12.6-18,18.8c-0.2-3.8-0.1-7.7,0.2-11.6c7.5-6.9,15-13.9,22.5-20.8c0.5-0.5-0.2-1.2-0.7-0.7c-7.2,6.7-14.4,13.3-21.6,20
		c0.2-3.1,0.7-6.4,1.3-9.5c6.4-7.2,13.7-13.5,21.8-18.8c0.6-0.4,0-1.3-0.6-0.9c-7.7,5-14.6,10.9-20.8,17.7c0.6-2.9,1.3-5.8,2.2-8.7
		c0.8-0.3,1.3-1.6,0.5-2.2c5.9-5.5,12.1-10.5,18.8-15c0.6-0.4,0-1.3-0.6-0.9c-6.9,4.6-13.3,9.7-19.2,15.4c-1.8-0.9-3.6-1.8-5.5-2.6
		c10.3-7.7,20.6-15.4,30.9-23.1c0.6-0.4,0-1.3-0.6-0.9c-10.5,7.8-20.9,15.7-31.4,23.5c-1.2-0.7-2.6-1.2-3.8-1.9
		c9.5-8.2,19.8-15.4,30.6-21.6c0.6-0.3,0.1-1.2-0.6-0.9c-11.1,6.4-21.5,13.8-31.1,22.1c-1.2-0.6-2.2-1.1-3.4-1.7
		c22-16.5,43.5-33.6,64.5-51.3c10.5,24.5,21,48.9,31.4,73.3c-7.4-2.4-15.1-3.6-23-3.7c-1.2,0-1.6,1.3-1,2.1
		c-0.2,0.2-0.4,0.4-0.5,0.7c-9.3,37.5-6.3,77,8.5,112.7C162,358.7,159.7,357.8,157.4,356.9z"/>
	<path class="st0" d="M365.9,221.8c-0.2,0.5-0.3,1.1,0.2,1.6c1.2,1.3,2.3,2.6,3.4,4c-0.2,0.3-0.2,0.6-0.4,0.9
		c-0.3,0.7,0.7,1.2,0.9,0.6c0.1-0.2,0.2-0.3,0.2-0.5c15.2,18.8,24.9,40.9,37.8,61.2c0.1,0.1,0.2,0.2,0.2,0.2
		c-0.2,0.2-0.2,0.3-0.3,0.5v0.1c-0.4,0.9,0.7,2,1.7,1.7c2.6-1.1,4.1-2.5,6.9-3.3c5.9-1.9,11.7-4.4,17.3-7.3
		c11.4-5.9,21.6-13.7,30.5-22.9c0.2-0.2,0.3-0.5,0.3-0.7c0.7,0.1,1.5-0.3,1.4-1.2c-3.1-35.2-15.4-68.7-36-97.4
		c-0.9-1.2-2.8-0.3-2.6,0.8c-0.2,0.1-0.3,0.2-0.5,0.5c-16.4,23.8-37.4,43.8-62,59C363.5,220.2,364.5,222.3,365.9,221.8z
		 M392.9,202.2c-4.4,10.5-8.8,21-13.2,31.5c-0.2,0.7,0.7,0.9,1.1,0.2c4.5-10.6,8.8-21.1,13.3-31.7c0.2-0.4-0.2-0.7-0.5-0.7
		c4-3.6,8-7.3,11.8-11.1c-9,15.8-16.2,32.5-21.1,50c-0.2,0.7,0.8,1,1.1,0.2c5.2-18.3,12.8-35.8,22.5-52.2c0.1-0.2,0.1-0.3,0-0.5
		c7.7-8,14.8-16.7,21.1-25.9c4.3,6.1,8.3,12.5,11.8,19.1c-12,26.4-24,53-36,79.4c-0.2,0.7,0.7,1.2,0.9,0.6
		c11.9-26.3,23.8-52.5,35.8-78.8c1.2,2.3,2.4,4.7,3.6,7.1c-0.7,0.1-0.6,1.1,0.1,1.1c0.2,0,0.2-0.1,0.3-0.2c1.4,3.1,2.8,6.1,4.1,9.3
		c-0.4,0.2-0.4,1,0.2,1c0.1,0,0.1,0,0.2,0c7.2,17.7,11.7,36.3,13.5,55.5c-0.3,0-0.7,0.1-0.9,0.4c-8.5,8.8-18.2,16.2-28.9,22
		c-5.6,3-11.6,5.5-17.6,7.5c-1.6,0.5-3.3,0.8-4.7,1.7c-0.2,0.2-0.4,0.3-0.6,0.5l0,0c-12.1-18.9-21.2-39.3-34.6-57.2
		c2.1-7.4,4.9-14.5,8.2-21.5C386.9,207.2,389.9,204.7,392.9,202.2z M382.1,210.8c-2.8,6.2-5.2,12.6-7.2,19.1
		c-1.1-1.5-2.2-2.9-3.4-4.3c1.7-3.6,3.3-7.1,5-10.7C378.3,213.6,380.2,212.2,382.1,210.8z M374.7,216.1c-1.3,2.8-2.6,5.7-4,8.5
		c-0.9-1.1-1.8-2.1-2.7-3.2c-0.2-0.2-0.5-0.4-0.8-0.4C369.7,219.5,372.2,217.9,374.7,216.1z"/>
	<path class="st0" d="M258.1,339.8c-11.2,10.7-22.5,21.5-33.7,32.3c-0.5,0.5,0.2,1.2,0.7,0.7c11.2-10.7,22.5-21.5,33.7-32.3
		C259.3,340,258.5,339.3,258.1,339.8z"/>
	<path class="st0" d="M145,348.7c-0.3,0.6,0.6,1.2,0.9,0.6c1.8-2.9,3.6-5.9,5.4-8.8c0.3-0.6-0.6-1.2-0.9-0.6
		C148.6,342.8,146.8,345.7,145,348.7z"/>
	<path class="st0" d="M188.6,91.3c-7.7,16-15.4,32.1-23,48.1c-0.3,0.7,0.7,1.2,0.9,0.6c7.7-16,15.4-32.1,23-48
		C189.8,91.2,188.9,90.6,188.6,91.3z"/>
	<path class="st0" d="M228.7,107.7c1.1-3.7,2.1-7.4,3.1-11.2c0.5-2,1.1-3.9,1.6-5.9c0.2-1,0.3-2.1,0.7-3c0.5-1.3,1.1-1.4,2.3-1.8
		c0.7-0.2,0.4-1.2-0.2-1.1c-0.7,0.2-2.2,0.3-2.7,1c-0.8,1.1-1,4.1-1.4,5.5c-1.1,4.1-2.1,8.2-3.3,12.2c-2.2,7.9-4.7,15.9-7.4,23.7
		c-5.5,16.1-11.9,31.9-19.2,47.3c-0.3,0.7,0.7,1.2,0.9,0.6c6.8-14.4,12.8-29.2,18.1-44.1C223.9,123.2,226.5,115.5,228.7,107.7z"/>
	<path class="st0" d="M241,88.9c-5.9,27.2-16.2,53.3-30.4,77.2c-0.3,0.6,0.6,1.2,0.9,0.6c14.3-24,24.6-50.2,30.6-77.5
		C242.2,88.6,241.2,88.2,241,88.9z"/>
	<path class="st0" d="M218.8,80.3c-7.1,19.1-14.1,38.2-21.2,57.3c-0.2,0.7,0.8,0.9,1.1,0.2c7.1-19.1,14.1-38.2,21.2-57.3
		C220.1,80,219.1,79.7,218.8,80.3z"/>
	<path class="st0" d="M222.9,88.2c-8.9,25-17.8,50-26.7,75c-0.2,0.7,0.8,0.9,1.1,0.2c8.9-25,17.8-50,26.7-75
		C224.2,87.8,223.1,87.5,222.9,88.2z"/>
	<path class="st0" d="M299.1,164.7c10.7,4.5,21.6,8.8,32.3,13.3c1.2,0.5,2.4,1,3.6,1.5c-0.2,0.3-0.6,0.7-0.8,1.1
		c-0.4,0.6,0.5,1.1,0.9,0.6c0.3-0.4,0.6-0.8,0.9-1.2c1.2,0.5,2.2,0.9,3.4,1.4c-0.2,0.2-0.3,0.3-0.5,0.5c-0.5,0.5,0.2,1.2,0.7,0.7
		c0.2-0.2,0.5-0.5,0.7-0.8c1.7,0.7,3.5,1.4,5.2,2.1c-0.4,0.5-0.7,0.9-1.2,1.4c-0.4,0.5,0.3,1.3,0.7,0.7c0.5-0.6,0.9-1.2,1.4-1.7
		c1.8,0.7,3.7,1.5,5.5,2.3c2.1,0.9,5.2,2.4,8.3,3.6c0.2,0.2,0.4,0.4,0.7,0.2c2.2,0.8,4.5,1.4,6.2,1.3c4-0.2,3.3-4.7,3.8-8.3
		c1.6-10.7,3.1-21.4,4.4-32.1c1.8-14.8,3.9-29.6,6.1-44.3c0.2-0.9-0.6-2-1.7-1.7c-5.6,1.8-11.2,3.6-16.8,5.5
		c-25.4-50-87-69.6-136.9-44.2c-0.6,0.3-0.7,0.9-0.6,1.4c-0.9,0.3-1.2,2.1,0.1,2.6c6.8,2.8,13.4,6.1,19.7,9.7
		c0.1,0.2,0.2,0.2,0.4,0.2c1.1,0.7,2.1,1.2,3.2,1.9c0.1,0.3,0.4,0.6,0.7,0.4c3.8,2.3,7.5,4.8,11.2,7.4c-0.3,0.5-0.6,0.9-0.9,1.4
		c-0.3,0.6,0.6,1.2,0.9,0.6c0.2-0.4,0.6-0.9,0.8-1.3c1.2,0.9,2.5,1.8,3.6,2.7c-0.2,0.3-0.6,0.7-0.8,1.1c-0.4,0.6,0.5,1.1,0.9,0.6
		c0.2-0.3,0.5-0.7,0.7-1c6,4.7,11.7,9.7,17.2,15.2c-0.1,0.1-0.2,0.2-0.2,0.3c-0.4,0.5,0.3,1.3,0.7,0.7c0.1-0.1,0.2-0.2,0.2-0.3
		c1.2,1.2,2.2,2.4,3.4,3.6c-0.2,0.3-0.6,0.6-0.8,0.9c-0.5,0.5,0.3,1.2,0.7,0.7c0.2-0.3,0.5-0.6,0.8-0.9c4.5,5,8.8,10.2,12.8,15.6
		c-0.2,0.2-0.5,0.5-0.7,0.7c-0.5,0.5,0.2,1.2,0.7,0.7c0.2-0.2,0.4-0.4,0.6-0.7c2.1,3,4.1,5.9,6.1,9c-0.1,0.2,0.2,0.6,0.4,0.7
		c0.8,1.3,1.7,2.6,2.4,3.9c0.2,0.2,0.3,0.4,0.6,0.5c-6.1,5.7-12.8,10.2-20.4,13.5c-1.2,0.5-0.6,2.1,0.3,2.5c2.5,1,5,2.1,7.4,3.1
		C298.8,164.7,298.9,164.7,299.1,164.7z M368.6,190.5c-1.5-0.6-3-1.2-4.5-1.8c2.1-1.5,3.8-3.3,5.2-5.5
		C369.1,185.6,368.8,188,368.6,190.5z M313.9,146.7c0.9-0.8,0.2-2.1-0.7-2.2c0.1-0.2,0-0.6-0.2-0.9c-0.2-0.2-0.2-0.4-0.4-0.7
		c0.1,0,0.1,0,0.2-0.1c7.2-6.1,13.6-12.9,19.4-20.3c0.4-0.6-0.3-1.3-0.7-0.7c-5.7,7.4-12.2,14.1-19.3,20.2c-0.6-0.9-1.1-1.8-1.7-2.7
		c5.5-5.5,11-11.2,16.4-16.7c0.5-0.5-0.2-1.2-0.7-0.7c-5.5,5.5-10.8,11-16.3,16.5c-1-1.6-2.1-3.2-3.1-4.8
		c6.7-6.8,13.5-13.6,20.2-20.4c0.5-0.5-0.2-1.2-0.7-0.7c-6.7,6.8-13.4,13.5-20,20.2c-0.7-1.2-1.6-2.2-2.4-3.3
		c4.8-5.1,9.7-10.2,14.5-15.4c0.5-0.5-0.2-1.2-0.7-0.7c-4.8,5.1-9.6,10.2-14.4,15.3c-0.5-0.7-1-1.4-1.6-2.1
		c4.4-5.5,8.8-11,13.2-16.5c0.4-0.5-0.3-1.3-0.7-0.7c-4.4,5.5-8.8,10.9-13.1,16.4c-0.7-0.8-1.3-1.7-2-2.6
		c4.8-5.3,9.6-10.7,14.4-15.9c0.5-0.5-0.3-1.2-0.7-0.7c-4.8,5.3-9.6,10.6-14.3,15.9c-1.2-1.6-2.6-3.1-3.8-4.6
		c5.9-5,10.9-10.7,15-17.2c0.4-0.6-0.6-1.2-0.9-0.6c-4,6.4-9.1,12.1-14.9,16.9c-1.2-1.3-2.2-2.6-3.4-3.8
		c5.6-6.2,11.3-12.4,16.9-18.7c0.5-0.5-0.3-1.2-0.7-0.7c-5.6,6.2-11.3,12.4-16.9,18.6c-1.2-1.2-2.3-2.5-3.5-3.6
		c5.3-6.5,10.6-13.1,15.9-19.5c0.4-0.5-0.3-1.3-0.7-0.7c-5.3,6.5-10.6,13.1-15.9,19.5c-1.1-1.1-2.2-2.2-3.4-3.3
		c6.4-7.8,12.8-15.7,19.2-23.5c0.4-0.5-0.3-1.3-0.7-0.7c-6.4,7.8-12.9,15.7-19.2,23.6c-1.2-1.2-2.6-2.4-3.9-3.6
		c3.9-4.5,7.8-8.8,11.8-13.3c0.5-0.5-0.3-1.3-0.7-0.7c-4,4.5-7.8,8.8-11.8,13.3c-1.2-1.1-2.6-2.1-3.9-3.2c4.5-5.5,8.9-11,13.3-16.5
		c0.4-0.5-0.3-1.3-0.7-0.7c-4.5,5.5-8.9,11.1-13.4,16.5c-1.2-1-2.5-2-3.7-3c4.4-5.7,8.8-11.4,13.1-17.1c0.4-0.6-0.5-1.1-0.9-0.6
		c-4.4,5.7-8.7,11.3-13.1,17c-1.2-1-2.6-1.9-3.8-2.8c4.7-6.9,10-13.4,15.8-19.4c0.5-0.5-0.2-1.2-0.7-0.7c-5.9,6-11.2,12.6-15.9,19.6
		c-1.1-0.7-2.1-1.5-3.1-2.2c4.3-5.9,8.5-11.7,12.8-17.7c0.4-0.6-0.5-1.1-0.9-0.6c-4.3,5.9-8.5,11.7-12.8,17.6
		c-0.8-0.6-1.7-1.2-2.6-1.7c3.2-4.6,6.4-9.3,9.7-13.9c0.4-0.6-0.5-1.1-0.9-0.6c-3.2,4.6-6.4,9.3-9.7,13.9c-1.1-0.7-2.2-1.4-3.4-2.1
		c3.7-4.8,7.4-9.7,11.2-14.5c0.4-0.6-0.3-1.3-0.7-0.7c-3.8,4.9-7.6,9.7-11.4,14.7c-1.1-0.7-2.1-1.3-3.1-1.9
		c2.6-4.8,5.9-8.9,10.1-12.6c0.5-0.5-0.2-1.2-0.7-0.7c-4.2,3.6-7.6,7.9-10.2,12.8c-1.6-0.9-3.1-1.7-4.6-2.6c0.1-0.1,0.2-0.1,0.2-0.2
		c1.9-3.9,4.6-7.3,8-10c0.6-0.4-0.2-1.2-0.7-0.7c-3.5,2.7-6.2,6.2-8.2,10.2c-0.1,0.1-0.1,0.2,0,0.3c-1.7-0.8-3.3-1.7-5-2.5
		c1.5-1.5,3.1-3.1,4.5-4.5c0.5-0.5-0.2-1.2-0.7-0.7c-1.6,1.6-3.2,3.2-4.8,4.8c-2.3-1.1-4.7-2.1-7.1-3.2c48.5-24.5,108-5,132.7,43.2
		c-0.4,0.9,0.2,2.3,1.5,1.9c5.5-1.8,10.9-3.6,16.4-5.4c-3.6,23.9-6.7,47.8-9.2,71.9c-1.6,3.1-3.9,5.6-6.7,7.5
		c-2.6-1.1-5.1-2.1-7.8-3.2c4.5-4.7,8.5-9.9,12-15.4c0.3-0.6-0.6-1.2-0.9-0.6c-3.5,5.6-7.6,10.7-12.1,15.5c-1.9-0.8-3.8-1.6-5.7-2.4
		c4-5,8.1-10.1,12.1-15.1c0.4-0.5-0.3-1.3-0.7-0.7c-4.1,5.1-8.3,10.3-12.4,15.4c-1.7-0.7-3.3-1.3-4.9-2c5.9-6.3,11.2-13.1,15.9-20.3
		c0.4-0.6-0.6-1.2-0.9-0.6c-4.7,7.3-10.1,14.1-16.1,20.4c-1.2-0.5-2.5-1-3.7-1.5c4.7-6.1,9.4-12.1,14-18.3c0.4-0.6-0.5-1.1-0.9-0.6
		c-4.7,6.1-9.4,12.2-14.1,18.4c-2.2-0.9-4.4-1.8-6.6-2.7c6.1-6.8,12.2-13.5,18.3-20.3c0.5-0.5-0.3-1.2-0.7-0.7
		c-6.2,6.9-12.4,13.8-18.6,20.7c-2.1-0.8-4.2-1.7-6.3-2.6c6.6-8.3,13.2-16.7,19.8-25c0.4-0.6-0.3-1.3-0.7-0.7
		c-6.7,8.4-13.4,16.9-20.1,25.4c-6.7-2.7-13.4-5.5-20.1-8.3c9.1-6.8,17.3-14.6,24.5-23.5c0.4-0.5-0.3-1.3-0.7-0.7
		c-7.2,9-15.5,17-24.8,23.8c-1.9-0.7-3.7-1.6-5.6-2.3C301.9,156.6,308.2,152.2,313.9,146.7z"/>
	<path class="st0" d="M310.9,165.2c9.4-9.4,18.8-18.9,28.2-28.3c0.5-0.5-0.2-1.2-0.7-0.7c-9.4,9.4-18.8,18.9-28.2,28.3
		C309.7,164.9,310.4,165.7,310.9,165.2z"/>
	<path class="st0" d="M335.4,146c-6.2,7-12.8,13.6-19.8,19.9c-0.5,0.5,0.2,1.2,0.7,0.7c6.9-6.3,13.5-13,19.8-19.9
		C336.6,146.2,335.9,145.5,335.4,146z"/>
	<path class="st0" d="M385.3,365.5c10-11.7,18.8-24.4,26.4-37.8c0.3-0.6-0.6-1.2-0.9-0.6c-7.5,13.3-16.3,25.9-26.2,37.6
		C384.1,365.2,384.9,366,385.3,365.5z"/>
	<path class="st0" d="M367,367.9c8.1-10.5,16.2-21.1,24.3-31.6c0.4-0.6-0.5-1.1-0.9-0.6c-8.1,10.5-16.2,21.1-24.3,31.6
		C365.7,367.9,366.6,368.4,367,367.9z"/>
	<path class="st0" d="M412.6,356.1c7.5-13.1,15.1-26.1,22.6-39.2c0.3-0.6-0.6-1.2-0.9-0.6c-7.5,13.1-15.1,26.1-22.6,39.2
		C411.4,356.1,412.3,356.7,412.6,356.1z"/>
	<path class="st0" d="M442.8,303.8c0.7,0,0.7-1.1,0-1.1C442.1,302.7,442.1,303.8,442.8,303.8z"/>
	<path class="st0" d="M427.9,340.5c5.6-10.9,10.3-22.1,14-33.8c0.2-0.7-0.8-0.9-1.1-0.2c-3.7,11.6-8.4,22.8-14,33.5
		C426.7,340.5,427.6,341.1,427.9,340.5z"/>
	<path class="st0" d="M438,331.8c6.3-12.5,11.2-25.6,14.7-39.2c0.2-0.7-0.8-1-1.1-0.2c-3.5,13.5-8.3,26.5-14.6,38.9
		C436.7,331.8,437.6,332.3,438,331.8z"/>
	<path class="st0" d="M448.6,320.3c5.5-11.1,9-23,10.2-35.3c0.1-0.7-1-0.7-1.1,0c-1.2,12.1-4.6,23.8-10.1,34.7
		C447.4,320.4,448.3,320.9,448.6,320.3z"/>
	<path class="st0" d="M389.6,244.8c9.1-22,18.8-43.6,29.3-64.8c0.3-0.7-0.7-1.2-0.9-0.6c-10.5,21.4-20.3,43.1-29.5,65.2
		C388.2,245.2,389.3,245.4,389.6,244.8z"/>
	<path class="st0" d="M395.3,248.2c11.5-24.9,22.9-49.8,34.4-74.7c0.2-0.7-0.7-1.2-0.9-0.6c-11.5,24.9-22.9,49.8-34.4,74.7
		C394,248.3,394.9,248.7,395.3,248.2z"/>
	<path class="st0" d="M402.9,251c13.5-23.9,24.6-49,33.4-74.9c0.2-0.7-0.8-0.9-1.1-0.2c-8.7,25.9-19.8,50.9-33.2,74.7
		C401.6,251.1,402.6,251.6,402.9,251z"/>
	<path class="st0" d="M406.8,276.5c14.4-27.5,27-55.8,37.9-84.8c0.2-0.7-0.8-0.9-1.1-0.2c-10.8,28.9-23.5,57.2-37.8,84.6
		C405.6,276.6,406.5,277.1,406.8,276.5z"/>
	<path class="st0" d="M414.8,279.1c13.8-24.7,25.4-50.6,34.7-77.3c0.2-0.7-0.8-0.9-1.1-0.2c-9.3,26.7-20.8,52.5-34.6,77.1
		C413.6,279.2,414.5,279.7,414.8,279.1z"/>
	<path class="st0" d="M425.6,272c8.9-19.1,17.8-38.2,26.8-57.2c0.3-0.7-0.7-1.2-0.9-0.6c-8.9,19.1-17.8,38.2-26.8,57.2
		C424.3,272.1,425.2,272.7,425.6,272z"/>
	<path class="st0" d="M432.5,273c6.4-15.6,14-30.6,22.8-45c0.3-0.6-0.6-1.2-0.9-0.6c-8.9,14.4-16.5,29.6-22.9,45.3
		C431.2,273.4,432.3,273.7,432.5,273z"/>
	<path class="st0" d="M454.4,235c-4.9,10.2-9.7,20.2-14.5,30.4c-0.3,0.7,0.7,1.2,0.9,0.6c4.9-10.2,9.7-20.2,14.5-30.4
		C455.6,234.9,454.7,234.3,454.4,235z"/>
	<path class="st0" d="M451.8,250.4c-1.8,3.6-3.6,7.2-5.4,10.7c-0.3,0.6,0.6,1.2,0.9,0.6c1.8-3.6,3.6-7.2,5.4-10.7
		C453,250.4,452.1,249.8,451.8,250.4z"/>
</g>
</svg>
