<?xml version="1.0" encoding="utf-8"?>
<!-- Generator: Adobe Illustrator 21.0.2, SVG Export Plug-In . SVG Version: 6.00 Build 0)  -->
<svg version="1.1" id="Layer_1" xmlns="http://www.w3.org/2000/svg" xmlns:xlink="http://www.w3.org/1999/xlink" x="0px" y="0px"
	 viewBox="0 0 728 547.7" style="enable-background:new 0 0 728 547.7;" xml:space="preserve">
<style type="text/css">
	.st0{fill:none;stroke:#A0DAD2;stroke-width:1.4609;stroke-miterlimit:10;}
	.st1{fill:#256B62;}
	.st2{fill:none;stroke:#0B2B52;stroke-width:1.6656;stroke-miterlimit:10;}
	.st3{fill:none;stroke:#CFBF8B;stroke-width:1.6656;stroke-miterlimit:10;}
	.st4{fill:none;stroke:#A0DAD2;stroke-width:1.6656;stroke-miterlimit:10;}
	.st5{fill:#3CAAB0;}
	.st6{fill:none;stroke:#0B2B52;stroke-width:1.3055;stroke-miterlimit:10;}
	.st7{fill:none;stroke:#CFBF8B;stroke-width:1.3055;stroke-miterlimit:10;}
	.st8{fill:none;stroke:#A0DAD2;stroke-width:1.3055;stroke-miterlimit:10;}
	.st9{fill:#A0DAD2;}
	.st10{fill:none;stroke:#0B2B52;stroke-width:2.1706;stroke-miterlimit:10;}
	.st11{fill:none;stroke:#CFBF8B;stroke-width:2.1706;stroke-miterlimit:10;}
	.st12{fill:none;stroke:#A0DAD2;stroke-width:2.1706;stroke-miterlimit:10;}
	.st13{fill:none;stroke:#6B3E00;stroke-width:0.617;stroke-miterlimit:10;}
	.st14{fill:none;stroke:#CFBF8B;stroke-width:0.617;stroke-miterlimit:10;}
	.st15{fill:none;stroke:#2F877C;stroke-width:0.617;stroke-miterlimit:10;}
	.st16{fill:#C76C1F;}
	.st17{fill:none;stroke:#0B2B52;stroke-width:1.0454;stroke-miterlimit:10;}
	.st18{fill:none;stroke:#0056BA;stroke-width:1.0454;stroke-miterlimit:10;}
	.st19{fill:none;stroke:#CFBF8B;stroke-width:1.0454;stroke-miterlimit:10;}
	.st20{fill:none;stroke:#6B3E00;stroke-width:1.474;stroke-miterlimit:10;}
	.st21{fill:none;stroke:#CFBF8B;stroke-width:1.474;stroke-miterlimit:10;}
	.st22{fill:none;stroke:#2F877C;stroke-width:1.474;stroke-miterlimit:10;}
	.st23{fill:#FF8A64;}
	.st24{fill:#CFBF8B;}
	.st25{fill:none;stroke:#3CAAB0;stroke-width:13.1853;stroke-miterlimit:10;}
	.st26{fill:none;stroke:#092242;stroke-width:6.5927;stroke-miterlimit:10;}
	.st27{fill:#092242;}
	.st28{fill:none;stroke:#092242;stroke-width:3.2963;stroke-miterlimit:10;}
	.st29{fill:#6B3E00;}
	.st30{fill:#BDBFE2;}
	.st31{fill:#A1A5CE;}
	.st32{fill:none;stroke:#004AA1;stroke-width:6.5927;stroke-linecap:round;stroke-linejoin:round;stroke-miterlimit:10;}
	.st33{fill:#3C445B;}
	.st34{opacity:0.26;}
	.st35{fill:#E2585C;}
	.st36{fill:#FC6262;}
	.st37{fill:#C65739;}
	.st38{fill:#FFC74C;}
	.st39{fill:#D84E4E;}
	.st40{fill:#9E693D;}
	.st41{fill:none;stroke:#092242;stroke-width:1.4496;stroke-miterlimit:10;}
	.st42{fill:none;stroke:#CFBF8B;stroke-width:1.4496;stroke-miterlimit:10;}
	.st43{fill:#E68CA3;}
	.st44{fill:#F7AC2D;}
	.st45{fill:none;stroke:#6B3E00;stroke-width:3.5081;stroke-miterlimit:10;}
	.st46{fill:none;stroke:#CFBF8B;stroke-width:3.5081;stroke-miterlimit:10;}
	.st47{fill:none;stroke:#C76C1F;stroke-width:3.5081;stroke-miterlimit:10;}
	.st48{fill:#F4AB98;}
</style>
<line class="st0" x1="562.5" y1="249.7" x2="562.5" y2="255.2"/>
<g>
	<path class="st1" d="M546.1,160.2c-2.7-4.4-8.3-4.4-11,0c-10.7,17.7-33.4,61.7-33.4,117.7c0,28.6,15.4,54.6,38.9,54.6
		c23.5,0,38.9-26,38.9-54.6C579.5,221.9,556.8,177.9,546.1,160.2z"/>
	<line class="st2" x1="540.6" y1="184" x2="540.6" y2="374.7"/>
	<line class="st3" x1="523" y1="374.7" x2="558.1" y2="374.7"/>
	<line class="st4" x1="556.2" y1="259.5" x2="556.2" y2="265.8"/>
	<line class="st4" x1="514.1" y1="295.7" x2="514.1" y2="302"/>
	<line class="st4" x1="514.1" y1="258.5" x2="514.1" y2="264.8"/>
	<line class="st4" x1="552.2" y1="202.3" x2="552.2" y2="208.6"/>
	<line class="st4" x1="552.2" y1="298.8" x2="552.2" y2="305.1"/>
	<line class="st4" x1="560.8" y1="282.2" x2="560.8" y2="288.5"/>
	<line class="st4" x1="558.1" y1="227.1" x2="558.1" y2="233.4"/>
	<line class="st4" x1="535" y1="271.4" x2="535" y2="277.7"/>
	<line class="st4" x1="531.3" y1="215.4" x2="531.3" y2="221.7"/>
	<line class="st4" x1="527.3" y1="241.4" x2="527.3" y2="247.7"/>
	<line class="st4" x1="531.3" y1="182.7" x2="531.3" y2="189"/>
	<line class="st4" x1="524.1" y1="285.4" x2="524.1" y2="291.7"/>
	<line class="st4" x1="529.6" y1="309.9" x2="529.6" y2="316.2"/>
	<line class="st2" x1="548.5" y1="213.7" x2="540.6" y2="230.2"/>
	<line class="st2" x1="531.3" y1="230.2" x2="540.6" y2="248.9"/>
	<line class="st2" x1="564.5" y1="265.8" x2="540.6" y2="295.7"/>
</g>
<g>
	<path class="st5" d="M616,96.6c-2.1-3.4-6.5-3.4-8.6,0c-8.4,13.9-26.2,48.4-26.2,92.3c0,22.4,12.1,42.8,30.5,42.8
		s30.5-20.4,30.5-42.8C642.2,144.9,624.4,110.4,616,96.6z"/>
	<line class="st6" x1="611.7" y1="115.2" x2="611.7" y2="264.7"/>
	<line class="st7" x1="597.9" y1="264.7" x2="625.5" y2="264.7"/>
	<line class="st8" x1="624" y1="174.4" x2="624" y2="179.3"/>
	<line class="st8" x1="591" y1="202.7" x2="591" y2="207.7"/>
	<line class="st8" x1="591" y1="173.6" x2="591" y2="178.5"/>
	<line class="st8" x1="620.8" y1="129.6" x2="620.8" y2="134.5"/>
	<line class="st8" x1="620.8" y1="205.2" x2="620.8" y2="210.1"/>
	<line class="st8" x1="627.5" y1="192.2" x2="627.5" y2="197.1"/>
	<line class="st8" x1="625.5" y1="149" x2="625.5" y2="153.9"/>
	<line class="st8" x1="607.4" y1="183.8" x2="607.4" y2="188.7"/>
	<line class="st8" x1="604.5" y1="139.8" x2="604.5" y2="144.7"/>
	<line class="st8" x1="601.3" y1="160.2" x2="601.3" y2="165.1"/>
	<line class="st8" x1="604.5" y1="114.2" x2="604.5" y2="119.1"/>
	<line class="st8" x1="598.8" y1="194.7" x2="598.8" y2="199.6"/>
	<line class="st8" x1="603.1" y1="213.9" x2="603.1" y2="218.9"/>
	<line class="st6" x1="617.9" y1="138.5" x2="611.7" y2="151.5"/>
	<line class="st6" x1="604.5" y1="151.5" x2="611.7" y2="166.1"/>
	<line class="st6" x1="630.5" y1="179.3" x2="611.7" y2="202.7"/>
</g>
<g>
	<path class="st9" d="M684.5,190.2c-3.5-5.7-10.9-5.7-14.3,0c-14,23.1-43.5,80.5-43.5,153.4c0,37.3,20.1,71.1,50.7,71.1
		c30.6,0,50.7-33.8,50.7-71.1C728,270.6,698.4,213.2,684.5,190.2z"/>
	<line class="st10" x1="677.3" y1="221.2" x2="677.3" y2="469.7"/>
	<line class="st11" x1="654.4" y1="469.7" x2="700.1" y2="469.7"/>
	<line class="st12" x1="697.6" y1="319.6" x2="697.6" y2="327.8"/>
	<line class="st12" x1="642.8" y1="366.7" x2="642.8" y2="374.9"/>
	<line class="st12" x1="642.8" y1="318.2" x2="642.8" y2="326.4"/>
	<line class="st12" x1="692.4" y1="245" x2="692.4" y2="253.2"/>
	<line class="st12" x1="692.4" y1="370.8" x2="692.4" y2="379"/>
	<line class="st12" x1="703.6" y1="349.2" x2="703.6" y2="357.4"/>
	<line class="st12" x1="700.1" y1="277.4" x2="700.1" y2="285.6"/>
	<line class="st12" x1="670.1" y1="335.1" x2="670.1" y2="343.3"/>
	<line class="st12" x1="665.2" y1="262.1" x2="665.2" y2="270.3"/>
	<line class="st12" x1="660" y1="295.9" x2="660" y2="304.1"/>
	<line class="st12" x1="665.2" y1="219.5" x2="665.2" y2="227.7"/>
	<line class="st12" x1="655.9" y1="353.3" x2="655.9" y2="361.5"/>
	<line class="st12" x1="663" y1="385.3" x2="663" y2="393.5"/>
	<line class="st10" x1="687.6" y1="260" x2="677.3" y2="281.5"/>
	<line class="st10" x1="665.2" y1="281.5" x2="677.3" y2="305.8"/>
	<line class="st10" x1="708.5" y1="327.8" x2="677.3" y2="366.7"/>
</g>
<g>
	<circle class="st9" cx="273.8" cy="35.1" r="19.2"/>
	<line class="st13" x1="273.8" y1="38" x2="273.8" y2="73.7"/>
	<line class="st14" x1="268.1" y1="73.7" x2="279" y2="73.7"/>
	<line class="st15" x1="267.1" y1="23.9" x2="267.2" y2="26.2"/>
	<line class="st15" x1="277" y1="27.4" x2="277.1" y2="29.7"/>
	<line class="st15" x1="281.6" y1="25.1" x2="281.6" y2="27.4"/>
	<line class="st15" x1="269.5" y1="31.6" x2="269.6" y2="33.9"/>
	<line class="st15" x1="264" y1="36.3" x2="264.1" y2="38.7"/>
	<line class="st15" x1="278.9" y1="41" x2="278.9" y2="43.3"/>
	<line class="st15" x1="283.3" y1="33.4" x2="283.4" y2="35.8"/>
	<line class="st15" x1="267.5" y1="44" x2="267.6" y2="46.3"/>
	<circle class="st9" cx="273.8" cy="35.1" r="19.2"/>
	<line class="st13" x1="273.8" y1="38" x2="273.8" y2="73.7"/>
	<line class="st14" x1="268.1" y1="73.7" x2="279" y2="73.7"/>
	<line class="st15" x1="267.1" y1="23.9" x2="267.2" y2="26.2"/>
	<line class="st15" x1="277" y1="27.4" x2="277.1" y2="29.7"/>
	<line class="st15" x1="281.6" y1="25.1" x2="281.6" y2="27.4"/>
	<line class="st15" x1="269.5" y1="31.6" x2="269.6" y2="33.9"/>
	<line class="st15" x1="264" y1="36.3" x2="264.1" y2="38.7"/>
	<line class="st15" x1="278.9" y1="41" x2="278.9" y2="43.3"/>
	<line class="st15" x1="283.3" y1="33.4" x2="283.4" y2="35.8"/>
	<line class="st15" x1="267.5" y1="44" x2="267.6" y2="46.3"/>
</g>
<g>
	<path class="st16" d="M191.5,48.7c26.8,2.5,28.4,20.1,25.5,33.4c-2.9,13.3-7,16.5-2.2,32.3c4.7,15.8,2.2,40.2-23.3,40.2
		s-17.2-20.5-22.6-27.3c-5.4-6.8-14.5-12.2-9.4-25.7c5.1-13.5,12.6-14.5,10.8-30S183.2,47.9,191.5,48.7z"/>
	<line class="st17" x1="192.5" y1="71.7" x2="192.5" y2="177.6"/>
	<path class="st17" d="M184.2,73.6c0,0,1.2,6.7,8.4,8.7"/>
	<path class="st17" d="M203.8,88.4c0,0-3,11-11.3,12.4"/>
	<path class="st17" d="M175.1,105.4c0,0-5.2,18.5,17.4,23.2"/>
	<line class="st18" x1="203.8" y1="111.1" x2="203.8" y2="113.7"/>
	<line class="st18" x1="184.2" y1="134.4" x2="184.2" y2="137"/>
	<line class="st18" x1="184.2" y1="99.6" x2="184.2" y2="102.2"/>
	<line class="st18" x1="183.6" y1="113.7" x2="183.6" y2="116.3"/>
	<line class="st18" x1="206.7" y1="69" x2="206.7" y2="71.7"/>
	<line class="st18" x1="166" y1="107.2" x2="166" y2="109.8"/>
	<line class="st18" x1="184.2" y1="59.7" x2="184.2" y2="62.3"/>
	<line class="st18" x1="200.3" y1="124.7" x2="200.3" y2="127.3"/>
	<line class="st18" x1="192.5" y1="58.4" x2="192.5" y2="61"/>
	<line class="st18" x1="205.7" y1="130.2" x2="205.7" y2="132.9"/>
	<line class="st18" x1="199.5" y1="140.9" x2="199.5" y2="143.5"/>
	<line class="st19" x1="183.6" y1="177.6" x2="200.3" y2="177.6"/>
</g>
<g>
	<g>
		<circle class="st9" cx="251.9" cy="202.3" r="45.9"/>
		<circle class="st9" cx="322.8" cy="142.5" r="34.2"/>
		<line class="st20" x1="251.9" y1="209.2" x2="251.9" y2="294.3"/>
		<line class="st20" x1="322.8" y1="146.4" x2="322.8" y2="294.3"/>
		<path class="st20" d="M298.9,230.8c0,0,5.3,18.2,23.9,27.1"/>
		<line class="st20" x1="351" y1="179.4" x2="322.8" y2="226.2"/>
		<line class="st21" x1="238.4" y1="294.3" x2="264.2" y2="294.3"/>
		<line class="st21" x1="309.9" y1="294.3" x2="335.7" y2="294.3"/>
		<line class="st22" x1="235.9" y1="175.5" x2="236.1" y2="181"/>
		<line class="st22" x1="259.6" y1="183.7" x2="259.7" y2="189.3"/>
		<line class="st22" x1="270.4" y1="178.3" x2="270.6" y2="183.8"/>
		<line class="st22" x1="310.8" y1="121.3" x2="310.9" y2="126.9"/>
		<line class="st22" x1="335.2" y1="153.7" x2="335.4" y2="159.2"/>
		<line class="st22" x1="322.7" y1="133.4" x2="322.9" y2="139"/>
		<line class="st22" x1="343.1" y1="133.4" x2="343.3" y2="139"/>
		<line class="st22" x1="301.1" y1="144.8" x2="301.2" y2="150.4"/>
		<line class="st22" x1="330.7" y1="121.3" x2="330.9" y2="126.9"/>
		<line class="st22" x1="310.2" y1="153.7" x2="310.4" y2="159.2"/>
		<line class="st22" x1="241.6" y1="193.9" x2="241.7" y2="199.4"/>
		<line class="st22" x1="228.5" y1="205.2" x2="228.7" y2="210.7"/>
		<line class="st22" x1="264" y1="216.3" x2="264.1" y2="221.9"/>
		<line class="st22" x1="274.6" y1="198.2" x2="274.7" y2="203.8"/>
		<line class="st22" x1="236.9" y1="223.4" x2="237.1" y2="229"/>
	</g>
	<circle class="st9" cx="251.9" cy="202.3" r="45.9"/>
	<line class="st20" x1="251.9" y1="209.2" x2="251.9" y2="294.3"/>
	<line class="st21" x1="238.4" y1="294.3" x2="264.2" y2="294.3"/>
	<line class="st22" x1="235.9" y1="175.5" x2="236.1" y2="181"/>
	<line class="st22" x1="259.6" y1="183.7" x2="259.7" y2="189.3"/>
	<line class="st22" x1="270.4" y1="178.3" x2="270.6" y2="183.8"/>
	<line class="st22" x1="241.6" y1="193.9" x2="241.7" y2="199.4"/>
	<line class="st22" x1="228.5" y1="205.2" x2="228.7" y2="210.7"/>
	<line class="st22" x1="264" y1="216.3" x2="264.1" y2="221.9"/>
	<line class="st22" x1="274.6" y1="198.2" x2="274.7" y2="203.8"/>
	<line class="st22" x1="236.9" y1="223.4" x2="237.1" y2="229"/>
</g>
<g>
	<path class="st23" d="M375,141.2c0,0-10.3,6.9-20.9,6.7c-10.7-0.2,9.2,19.3,14.3,10.6c3.1-5.4,14.6-10.8,14.6-10.8L375,141.2z"/>
	<ellipse class="st24" cx="481.7" cy="461.9" rx="65.2" ry="4.9"/>
	<ellipse class="st24" cx="234.8" cy="461.9" rx="65.2" ry="4.9"/>
	<circle class="st25" cx="481.7" cy="389.9" r="63.5"/>
	<circle class="st26" cx="481.7" cy="389.9" r="57.9"/>
	<circle class="st27" cx="481.7" cy="389.9" r="12.9"/>
	<circle class="st25" cx="234.8" cy="389.9" r="63.5"/>
	<circle class="st26" cx="234.8" cy="389.9" r="57.9"/>
	<circle class="st27" cx="234.8" cy="389.9" r="12.9"/>
	<line class="st28" x1="234.8" y1="381.1" x2="341.1" y2="372.9"/>
	<circle class="st27" cx="345.6" cy="389.9" r="17.6"/>
	<ellipse class="st29" cx="307.6" cy="251" rx="21.7" ry="6"/>
	<path class="st30" d="M335.4,216c0,0,59.1,33,59.6,50c0.5,17-54,74.7-54,74.7l-7.5-9.6l30.8-58.8l-51.5-33.8L335.4,216z"/>
	<g>
		<g>
			<path class="st31" d="M375,273.6l-0.4-0.3l0.1-0.2l0.4,0.3L375,273.6z M374.2,273l-0.4-0.3l0.1-0.2l0.4,0.3L374.2,273z
				 M373.4,272.4l-0.4-0.3l0.1-0.2l0.4,0.3L373.4,272.4z M372.5,271.8l-0.4-0.3l0.1-0.2l0.4,0.3L372.5,271.8z M371.7,271.2l-0.4-0.3
				l0.1-0.2l0.4,0.3L371.7,271.2z M370.9,270.6l-0.4-0.3l0.1-0.2l0.4,0.3L370.9,270.6z M370.1,270l-0.4-0.3l0.1-0.2l0.4,0.3
				L370.1,270z M369.3,269.3l-0.4-0.3l0.1-0.2l0.4,0.3L369.3,269.3z M368.5,268.7l-0.4-0.3l0.1-0.2l0.4,0.3L368.5,268.7z
				 M367.6,268.1l-0.4-0.3l0.1-0.2l0.4,0.3L367.6,268.1z M366.8,267.5l-0.4-0.3l0.1-0.2l0.4,0.3L366.8,267.5z M366,266.9l-0.4-0.3
				l0.1-0.2l0.4,0.3L366,266.9z M365.2,266.3l-0.4-0.3l0.1-0.2l0.4,0.3L365.2,266.3z M364.4,265.7l-0.4-0.3l0.1-0.2l0.4,0.3
				L364.4,265.7z M363.6,265l-0.4-0.3l0.1-0.2l0.4,0.3L363.6,265z M362.7,264.4l-0.4-0.3l0.1-0.2l0.4,0.3L362.7,264.4z M361.9,263.8
				l-0.4-0.3l0.1-0.2l0.4,0.3L361.9,263.8z M361.1,263.2l-0.4-0.3l0.1-0.2l0.4,0.3L361.1,263.2z M360.3,262.6l-0.4-0.3l0.1-0.2
				l0.4,0.3L360.3,262.6z M359.5,262l-0.4-0.3l0.1-0.2l0.4,0.3L359.5,262z M358.6,261.4l-0.4-0.3l0.1-0.2l0.4,0.3L358.6,261.4z
				 M357.8,260.7l-0.4-0.3l0.1-0.2l0.4,0.3L357.8,260.7z M357,260.1l-0.4-0.3l0.1-0.2l0.4,0.3L357,260.1z M356.2,259.5l-0.4-0.3
				l0.1-0.2l0.4,0.3L356.2,259.5z M355.4,258.9l-0.4-0.3l0.1-0.2l0.4,0.3L355.4,258.9z M354.6,258.3l-0.4-0.3l0.1-0.2l0.4,0.3
				L354.6,258.3z M353.8,257.6l-0.4-0.3l0.1-0.2l0.4,0.3L353.8,257.6z M352.9,257l-0.4-0.3l0.1-0.2l0.4,0.3L352.9,257z M352.1,256.4
				l-0.4-0.3l0.1-0.2l0.4,0.3L352.1,256.4z M351.3,255.8l-0.4-0.3l0.1-0.2l0.4,0.3L351.3,255.8z M350.5,255.2l-0.4-0.3l0.1-0.2
				l0.4,0.3L350.5,255.2z M349.7,254.6l-0.4-0.3l0.1-0.2l0.4,0.3L349.7,254.6z M348.9,253.9l-0.4-0.3l0.1-0.2l0.4,0.3L348.9,253.9z
				 M348,253.3l-0.4-0.3l0.1-0.2l0.4,0.3L348,253.3z M347.2,252.7l-0.4-0.3l0.1-0.2l0.4,0.3L347.2,252.7z M346.4,252.1l-0.4-0.3
				l0.1-0.2l0.4,0.3L346.4,252.1z M345.6,251.5l-0.4-0.3l0.1-0.2l0.4,0.3L345.6,251.5z M344.8,250.9l-0.4-0.3l0.1-0.2l0.4,0.3
				L344.8,250.9z M344,250.3l-0.4-0.3l0.1-0.2l0.4,0.3L344,250.3z M343.1,249.6l-0.4-0.3l0.1-0.2l0.4,0.3L343.1,249.6z M342.3,249
				l-0.4-0.3l0.1-0.2l0.4,0.3L342.3,249z M341.5,248.4l-0.4-0.3l0.1-0.2l0.4,0.3L341.5,248.4z M340.7,247.8l-0.4-0.3l0.1-0.2
				l0.4,0.3L340.7,247.8z M339.9,247.2l-0.4-0.3l0.1-0.2l0.4,0.3L339.9,247.2z M339.1,246.5l-0.4-0.3l0.1-0.2l0.4,0.3L339.1,246.5z
				 M338.2,245.9l-0.4-0.3l0.1-0.2l0.4,0.3L338.2,245.9z M337.4,245.3L337,245l0.1-0.2l0.4,0.3L337.4,245.3z M336.6,244.7l-0.4-0.3
				l0.1-0.2l0.4,0.3L336.6,244.7z M335.8,244.1l-0.4-0.3l0.1-0.2l0.4,0.3L335.8,244.1z"/>
		</g>
	</g>
	<g>
		<g>
			<path class="st31" d="M347.8,320.1l0.2-0.4l0.2,0l-0.2,0.4L347.8,320.1z M348.3,319.2l0.2-0.4l0.2,0l-0.2,0.4L348.3,319.2z
				 M348.8,318.4l0.2-0.4l0.2,0l-0.2,0.4L348.8,318.4z M349.3,317.5l0.2-0.4l0.2,0l-0.2,0.4L349.3,317.5z M349.8,316.6l0.2-0.4
				l0.2,0l-0.2,0.4L349.8,316.6z M350.3,315.7l0.2-0.4l0.2,0l-0.2,0.4L350.3,315.7z M350.8,314.8l0.2-0.4l0.2,0l-0.2,0.4
				L350.8,314.8z M351.4,313.9l0.2-0.4l0.2,0l-0.2,0.4L351.4,313.9z M351.9,313l0.2-0.4l0.2,0l-0.2,0.4L351.9,313z M352.4,312.2
				l0.2-0.4l0.2,0l-0.2,0.4L352.4,312.2z M352.9,311.3l0.2-0.4l0.2,0l-0.2,0.4L352.9,311.3z M353.4,310.4l0.2-0.4l0.2,0l-0.2,0.4
				L353.4,310.4z M353.9,309.5l0.2-0.4l0.2,0l-0.2,0.4L353.9,309.5z M354.4,308.6l0.2-0.4l0.2,0l-0.2,0.4L354.4,308.6z M354.9,307.7
				l0.2-0.4l0.2,0l-0.2,0.4L354.9,307.7z M355.4,306.8l0.2-0.4l0.2,0l-0.2,0.4L355.4,306.8z M355.9,305.9l0.2-0.4l0.2,0l-0.2,0.4
				L355.9,305.9z M356.4,305.1l0.2-0.4l0.2,0l-0.2,0.4L356.4,305.1z M356.9,304.2l0.2-0.4l0.2,0l-0.2,0.4L356.9,304.2z M357.5,303.3
				l0.2-0.4l0.2,0l-0.2,0.4L357.5,303.3z M358,302.4l0.2-0.4l0.2,0l-0.2,0.4L358,302.4z M358.5,301.5l0.2-0.4l0.2,0l-0.2,0.4
				L358.5,301.5z M359,300.6l0.2-0.4l0.2,0l-0.2,0.4L359,300.6z M359.5,299.7l0.2-0.4l0.2,0l-0.2,0.4L359.5,299.7z M360,298.8
				l0.2-0.4l0.2,0l-0.2,0.4L360,298.8z M360.5,297.9l0.2-0.4l0.2,0l-0.2,0.4L360.5,297.9z M361,297.1l0.2-0.4l0.2,0l-0.2,0.4
				L361,297.1z M361.5,296.2l0.2-0.4l0.2,0l-0.2,0.4L361.5,296.2z M362,295.3l0.2-0.4l0.2,0l-0.2,0.4L362,295.3z M362.5,294.4
				l0.2-0.4l0.2,0l-0.2,0.4L362.5,294.4z M363.1,293.5l0.2-0.4l0.2,0l-0.2,0.4L363.1,293.5z M363.6,292.6l0.2-0.4l0.2,0l-0.2,0.4
				L363.6,292.6z M364.1,291.7l0.2-0.4l0.2,0l-0.2,0.4L364.1,291.7z M364.6,290.9l0.2-0.4l0.2,0l-0.2,0.4L364.6,290.9z M365.1,290
				l0.2-0.4l0.2,0l-0.2,0.4L365.1,290z M365.6,289.1l0.2-0.4l0.2,0l-0.2,0.4L365.6,289.1z M366.1,288.2l0.2-0.4l0.2,0l-0.2,0.4
				L366.1,288.2z M366.6,287.3l0.2-0.4l0.2,0l-0.2,0.4L366.6,287.3z M367.1,286.4l0.2-0.4l0.2,0l-0.2,0.4L367.1,286.4z M367.7,285.5
				l0.2-0.4l0.2,0l-0.2,0.4L367.7,285.5z M368.1,284.6l0.2-0.4l0.2,0l-0.2,0.4L368.1,284.6z M368.6,283.8l0.2-0.4l0.2,0l-0.2,0.4
				L368.6,283.8z M369.2,282.9l0.2-0.4l0.2,0l-0.2,0.4L369.2,282.9z M369.7,282l0.2-0.4l0.2,0l-0.2,0.4L369.7,282z M370.2,281.1
				l0.2-0.4l0.2,0l-0.2,0.4L370.2,281.1z M370.7,280.2l0.2-0.4l0.2,0l-0.2,0.4L370.7,280.2z M371.2,279.3l0.2-0.4l0.2,0l-0.2,0.4
				L371.2,279.3z M371.7,278.4l0.2-0.4l0.2,0l-0.2,0.4L371.7,278.4z M372.2,277.6l0.2-0.4l0.2,0l-0.2,0.4L372.2,277.6z"/>
		</g>
	</g>
	<g>
		<line class="st32" x1="481.7" y1="389.9" x2="450.7" y2="234.4"/>
		<line class="st32" x1="312.8" y1="273.7" x2="458.9" y2="273.7"/>
		<path class="st32" d="M338.5,363.9c0,0,42-72,123.7-72"/>
		<path class="st32" d="M343.6,389.9H234.8c0,0,4.9-96.6,75.1-126.6"/>
		<line class="st32" x1="307.6" y1="255.2" x2="347.5" y2="395.7"/>
		<path class="st32" d="M444.8,233.3c0,0,22.7,0,35.4,0c12.8,0,16.7,13.8,9.5,21.8c-7.2,8-20.7,6-20.7,6"/>
	</g>
	<line class="st28" x1="233.5" y1="399.2" x2="347.5" y2="408.6"/>
	<path class="st23" d="M396.1,174l19,14c0,0,59.1,32.5,63.2,39c4.1,6.5,2.7,14.3,0,14c-2.7-0.3-12.1-12.6-12.1-12.6l-80.3-42.6
		L396.1,174z"/>
	<path class="st30" d="M290.7,198.8c-8.3,17.2,46.1,182.3,46.1,182.3l16.5-4.1L328,214.4L290.7,198.8z"/>
	<path class="st29" d="M337.2,377c0,0,7.2,37.6,10.3,39.3c3.1,1.6,30.1-15.2,28.7-17c-1.4-1.9-13.1,5.8-17.8,2.7
		c-4.7-3-8.3-29.1-8.3-29.1L337.2,377z"/>
	<path class="st33" d="M287.1,204.3c0,0,34.1,21.3,49.4,18c15.3-3.4,15.2-25.4,38.4-36.1l89.2,40.5l6-6c0,0-81.3-65.4-101.4-73.9
		c-20.1-8.5-29.5,3.3-48.9,19.7C300.3,182.8,287.1,204.3,287.1,204.3z"/>
	<g class="st34">
		<g>
			<g>
				<path class="st35" d="M376.8,150.9c-2.9-1.4-7.1-1-9.4-3.2c4.2-3.2,9.1-9.1,9.1-9.1l5.8,7.8L376.8,150.9z"/>
			</g>
		</g>
	</g>
	<g>
		<g>
			<path class="st36" d="M385.7,111c-1.1,5.7-4.7,11-9.7,14c-0.2,0.1-0.4,0.2-0.6,0.2c-0.3,0-0.5-0.2-0.7-0.3
				c-0.8-0.6-1.5-1.2-2.3-1.7c-0.2-0.2-0.5-0.3-0.6-0.6c-0.2-0.4-0.1-0.8-0.1-1.1c0.6-4.6,3.2-8.8,6-12.5c0.7-0.9,1.5-1.9,2.6-1.9
				c-0.1-2.3,0.8-3.1,2.5-4.2c3.5-2.3,8-1.8,11.8-1.4c3.4,0.4,6.7,1.1,9.9,2.3c2.5,0.9,5.2,1.8,7.7,2.9c3.4,1.5,9.1,4.4,7.5,9.2
				c-0.5,1.4-1.6,2.6-3,3.1c1.3,1.1,2.9,3,2.6,4.9c-0.3,1.9-2,3.6-3.9,3.6c0.9,2.5-0.7,5.7-3.3,6.5c0.3,1.5-0.7,3.2-2.1,3.8
				s-3.2,0.2-4.3-0.9"/>
		</g>
	</g>
	<g>
		<path class="st23" d="M373.9,122.9l3.4-6c4.9-8.6,15.7-11.6,24.3-6.8c8.6,4.9,11.6,15.7,6.8,24.3l-4.9,8.7c-4,7.1-13,9.6-20.1,5.6
			l-2.7-1.5C372.1,142.4,369.1,131.5,373.9,122.9z"/>
	</g>
	<g>
		<g>
			<path class="st36" d="M413,118.4c-1.9,0.7-4,0.4-6,0.1c-7.8-1.2-15.4-3.8-21.9-8.2c-0.7-0.5-1.4-1-1.8-1.8c2.6-2.3,6.3-3.2,9.8-3
				s6.8,1.6,10,3.2c4.1,2.1,8.1,5,9.8,9.3"/>
		</g>
	</g>
	<g>
		<g>
			<path class="st36" d="M387.2,108.1c-0.4,3.2-2,6.2-4.1,8.7c-2.1,2.5-4.5,4.6-7,6.7c-0.8-1-1.5-1.9-2.3-2.9
				c-0.2-0.2-0.4-0.5-0.5-0.8c-0.1-0.4,0.1-0.8,0.3-1.1c1-2.1,2.5-4,4-5.8c1-1.2,2-2.4,3.3-3.3c1.7-1.1,3.7-1.6,5.7-1.3"/>
		</g>
	</g>
	<g>
		<g>
			
				<ellipse transform="matrix(0.9577 -0.2877 0.2877 0.9577 -19.9779 112.2191)" class="st23" cx="371.8" cy="124.1" rx="4.4" ry="6.4"/>
		</g>
	</g>
	<g>
		<g>
			<g>
				<g>
					<path class="st37" d="M389.5,137.4l0.9,0.5c0.6,0.3,1.3,0.4,1.9,0.2c0.6-0.2,1.1-0.7,1.4-1.3l4.8-10.3c0.1-0.2,0-0.4-0.2-0.5
						c-0.2-0.1-0.4,0-0.5,0.2l-4.8,10.3c-0.2,0.4-0.6,0.7-1,0.9c-0.4,0.2-0.9,0.1-1.3-0.1l-0.9-0.5c-0.2-0.1-0.4-0.1-0.5,0.2
						S389.3,137.3,389.5,137.4z"/>
				</g>
			</g>
		</g>
		<g>
			<g>
				<g>
					
						<ellipse transform="matrix(0.4902 -0.8716 0.8716 0.4902 86.4855 417.2943)" class="st37" cx="400" cy="134.7" rx="2.2" ry="1.4"/>
				</g>
			</g>
		</g>
		<g>
			<g>
				<g>
					
						<ellipse transform="matrix(0.4902 -0.8716 0.8716 0.4902 86.5892 405.1277)" class="st37" cx="389.6" cy="128.5" rx="2.2" ry="1.4"/>
				</g>
			</g>
		</g>
		<g>
			<g>
				<g>
					<g>
						<path class="st37" d="M388.5,143.1c-2.6,0-4.4-2.1-4.1-4.7c0-0.5,0.8-0.3,0.7,0.2c-0.2,2,1.3,3.7,3.3,3.8
							C388.9,142.4,389,143.1,388.5,143.1L388.5,143.1z"/>
					</g>
				</g>
			</g>
		</g>
		<g>
			<g>
				<g>
					<g>
						<path class="st37" d="M394.1,123.1c-1.4-1.1-3-1.5-4.8-1.4c-1,0.1-1-1.4,0-1.5c2-0.2,3.9,0.4,5.5,1.6
							C395.7,122.3,394.9,123.6,394.1,123.1L394.1,123.1z"/>
					</g>
				</g>
			</g>
		</g>
		<g>
			<g>
				<g>
					<g>
						<path class="st37" d="M405.3,131.7c-0.4-1.6-1.3-2.9-2.8-3.6c-0.8-0.4-0.1-1.8,0.7-1.3c1.8,1,3,2.6,3.4,4.5
							C407,132.2,405.5,132.7,405.3,131.7L405.3,131.7z"/>
					</g>
				</g>
			</g>
		</g>
	</g>
	<g>
		<g>
			<path class="st38" d="M373.4,121.1c0,0.2,0.1,0.4,0.3,0.5c0,0,0.1,0.1,0.2,0l6.1,0.8c-0.1,0.1-0.1,0.2-0.2,0.3
				c-2.2,3.9-0.9,8.8,2.8,10.9c3.8,2.1,8.6,0.7,10.8-3.2c0-0.1,0.1-0.1,0.1-0.2c0.8-0.3,1.5-0.3,2,0l0,0c0.8,0.4,1,1.4,0.9,1.5
				c0,0.1,0,0.1,0.1,0.2c-0.1,0.1-0.1,0.2-0.2,0.3c-2.2,3.9-1,8.7,2.5,10.7c3.6,2,8.3,0.5,10.5-3.4c2.2-3.9,1-8.7-2.5-10.7
				c-3.2-1.8-7.2-0.8-9.6,2.1c-0.2-0.5-0.5-1.1-1.2-1.4c-0.6-0.3-1.3-0.4-2-0.3c1.2-3.6-0.1-7.7-3.4-9.5c-3.3-1.9-7.5-0.9-9.9,2.1
				l-6.6-0.9C373.7,120.7,373.4,120.9,373.4,121.1z M397.1,132.6c1.9-3.4,6-4.8,9.2-3c3.1,1.8,4.1,6,2.2,9.4c-1.9,3.4-6,4.8-9.2,3
				C396.1,140.2,395.2,136,397.1,132.6z M380.6,123.2c1.9-3.4,6.2-4.7,9.4-2.9c3.3,1.8,4.4,6.1,2.4,9.5c-1.9,3.4-6.2,4.7-9.4,2.9
				C379.8,130.9,378.7,126.7,380.6,123.2z"/>
		</g>
	</g>
	<path class="st39" d="M389.9,139.9c0,0,7.1-1.6,6.8,7.1L389.9,139.9z"/>
	<path class="st39" d="M388.8,139.3c0,0,0-7.2-8.5-5L388.8,139.3z"/>
	<g>
		<g>
			<path class="st31" d="M338.6,375.4l-0.5-1.7l0.3-0.1l0.5,1.7L338.6,375.4z M337.6,372l-0.5-1.7l0.3-0.1l0.5,1.7L337.6,372z
				 M336.7,368.6l-0.5-1.7l0.3-0.1l0.5,1.7L336.7,368.6z M335.8,365.3l-0.5-1.7l0.3-0.1l0.5,1.7L335.8,365.3z M334.8,361.9l-0.5-1.7
				l0.3-0.1l0.5,1.7L334.8,361.9z M333.9,358.5l-0.5-1.7l0.3-0.1l0.5,1.7L333.9,358.5z M332.9,355.1l-0.5-1.7l0.3-0.1l0.5,1.7
				L332.9,355.1z M331.9,351.7l-0.5-1.7l0.3-0.1l0.5,1.7L331.9,351.7z M331,348.3l-0.5-1.7l0.3-0.1l0.5,1.7L331,348.3z M330,344.9
				l-0.5-1.7l0.3-0.1l0.5,1.7L330,344.9z M329.1,341.5l-0.5-1.7l0.3-0.1l0.5,1.7L329.1,341.5z M328.1,338.2l-0.5-1.7l0.3-0.1
				l0.5,1.7L328.1,338.2z M327.2,334.7l-0.5-1.7l0.3-0.1l0.5,1.7L327.2,334.7z M326.2,331.4l-0.5-1.7l0.3-0.1l0.5,1.7L326.2,331.4z
				 M325.3,328l-0.5-1.7l0.3-0.1l0.5,1.7L325.3,328z M324.3,324.6l-0.5-1.7l0.3-0.1l0.5,1.7L324.3,324.6z M323.4,321.2l-0.5-1.7
				l0.3-0.1l0.5,1.7L323.4,321.2z M322.4,317.8l-0.5-1.7l0.3-0.1l0.5,1.7L322.4,317.8z M321.4,314.4l-0.5-1.7l0.3-0.1l0.5,1.7
				L321.4,314.4z M320.5,311l-0.5-1.7l0.3-0.1l0.5,1.7L320.5,311z M319.5,307.6L319,306l0.3-0.1l0.5,1.7L319.5,307.6z M318.6,304.2
				l-0.5-1.7l0.3-0.1l0.5,1.7L318.6,304.2z M317.6,300.9l-0.5-1.7l0.3-0.1l0.5,1.7L317.6,300.9z M316.7,297.5l-0.5-1.7l0.3-0.1
				l0.5,1.7L316.7,297.5z M315.7,294.1l-0.5-1.7l0.3-0.1l0.5,1.7L315.7,294.1z M314.7,290.7l-0.5-1.7l0.3-0.1l0.5,1.7L314.7,290.7z
				 M313.8,287.3l-0.5-1.7l0.3-0.1l0.5,1.7L313.8,287.3z M312.8,283.9l-0.5-1.7l0.3-0.1l0.5,1.7L312.8,283.9z M311.9,280.5l-0.5-1.7
				l0.3-0.1l0.5,1.7L311.9,280.5z M310.9,277.2l-0.5-1.7l0.3-0.1l0.5,1.7L310.9,277.2z M310,273.7l-0.5-1.7l0.3-0.1l0.5,1.7
				L310,273.7z M309,270.3l-0.5-1.7l0.3-0.1l0.5,1.7L309,270.3z M308.1,266.9l-0.5-1.7l0.3-0.1l0.5,1.7L308.1,266.9z M307.1,263.6
				l-0.5-1.7l0.3-0.1l0.5,1.7L307.1,263.6z M306.2,260.2l-0.5-1.7l0.3-0.1l0.5,1.7L306.2,260.2z M305.2,256.8l-0.5-1.7l0.3-0.1
				l0.5,1.7L305.2,256.8z M304.2,253.4l-0.5-1.7l0.3-0.1l0.5,1.7L304.2,253.4z M303.3,250l-0.5-1.7l0.3-0.1l0.5,1.7L303.3,250z
				 M302.3,246.6l-0.5-1.7l0.3-0.1l0.5,1.7L302.3,246.6z M301.4,243.2l-0.5-1.7l0.3-0.1l0.5,1.7L301.4,243.2z M300.5,239.9l-0.5-1.7
				l0.3-0.1l0.5,1.7L300.5,239.9z M299.5,236.5l-0.5-1.7l0.3-0.1l0.5,1.7L299.5,236.5z M298.6,233.1l-0.5-1.7l0.3-0.1l0.5,1.7
				L298.6,233.1z M297.6,229.7l-0.5-1.7l0.3-0.1l0.5,1.7L297.6,229.7z M296.6,226.3l-0.5-1.7l0.3-0.1l0.5,1.7L296.6,226.3z
				 M295.7,222.9l-0.5-1.7l0.3-0.1l0.5,1.7L295.7,222.9z M294.7,219.5l-0.5-1.7l0.3-0.1l0.5,1.7L294.7,219.5z M293.8,216.1l-0.5-1.7
				l0.3-0.1l0.5,1.7L293.8,216.1z M292.8,212.8l-0.5-1.7l0.3-0.1l0.5,1.7L292.8,212.8z"/>
		</g>
	</g>
</g>
<path class="st40" d="M495.4,38.4c-15-10.3-22.7,3.4-22.7,3.4c16-8.4,22.7,5.8,22.7,5.8s6.7-14.2,22.7-5.8
	C518.1,41.8,510.4,28.1,495.4,38.4z"/>
<path class="st40" d="M443.4,22.1c-9.2-6.3-13.9,2.1-13.9,2.1c9.9-5.1,13.9,3.6,13.9,3.6s4.1-8.7,13.9-3.6
	C457.3,24.2,452.6,15.8,443.4,22.1z"/>
<path class="st40" d="M456.1,1.6c-6.3-4.3-9.4,1.4-9.4,1.4c6.7-3.5,9.4,2.4,9.4,2.4s2.8-5.9,9.4-2.4C465.6,3,462.4-2.7,456.1,1.6z"
	/>
<g>
	<path class="st1" d="M256.6,547h194.2c0,0-6-42.6-33.4-48.7c0,0,12-67.3-16.9-67.8s-43.3,52.1-43.3,52.1s-22.4-4-32.9,30.3
		C324.4,512.8,294.2,495.7,256.6,547z"/>
	<line class="st41" x1="399.5" y1="456.2" x2="382.2" y2="547"/>
	<line class="st41" x1="374.2" y1="446.6" x2="387.6" y2="518.4"/>
	<line class="st41" x1="428.2" y1="503.1" x2="384.1" y2="536.9"/>
	<line class="st41" x1="341.9" y1="486.3" x2="344.9" y2="547"/>
	<line class="st41" x1="290.9" y1="515.3" x2="298.5" y2="547"/>
	<line class="st42" x1="244.8" y1="547" x2="467.9" y2="547"/>
	<path class="st43" d="M320.8,435.9c0,0,9-15.6,15.3-12.9c6.3,2.7-1.7,18.3-1.7,18.3s7.7,8.7,4.1,10.4c-3.7,1.7-14.8-5-14.8-5
		s-3.2,10.5-5.2,9.5c-2-1-2.3-12-2.3-12s-14.3-8-11.3-13.8C307.8,424.6,320.8,435.9,320.8,435.9z"/>
	<path class="st43" d="M455.4,476.2c0,0-4.5-7.8-7.6-6.5c-3.2,1.3,0.8,9.1,0.8,9.1s-3.9,4.4-2,5.2c1.8,0.8,7.4-2.5,7.4-2.5
		s1.6,5.3,2.6,4.8c1-0.5,1.2-6,1.2-6s7.1-4,5.6-6.9C461.8,470.5,455.4,476.2,455.4,476.2z"/>
</g>
<g>
	<path class="st44" d="M196.4,397.5c-5.6-55.4-26.5-78.7-26.5-78.7s1.6-53.8-16.9-77.1c0,0-4.8-114.1-54.6-145.4
		c-49.8,31.3-54.6,145.4-54.6,145.4c-18.5,23.3-16.9,77.1-16.9,77.1S6,342.1,0.4,397.5s57,56.2,98,56.2S202,452.9,196.4,397.5z"/>
	<line class="st45" x1="98.4" y1="188.6" x2="98.4" y2="519.6"/>
	<line class="st46" x1="63.8" y1="519.6" x2="136.1" y2="519.6"/>
	<line class="st45" x1="112.4" y1="208.3" x2="98.4" y2="243.2"/>
	<line class="st45" x1="70.3" y1="246.2" x2="98.4" y2="318.6"/>
	<line class="st45" x1="154" y1="332.4" x2="98.4" y2="409.5"/>
	<line class="st47" x1="44.9" y1="335.4" x2="44.9" y2="352.3"/>
	<line class="st47" x1="67.2" y1="362.5" x2="67.2" y2="379.4"/>
	<line class="st47" x1="70.3" y1="196.2" x2="70.3" y2="213.1"/>
	<line class="st47" x1="34.7" y1="409.5" x2="34.7" y2="426.4"/>
	<line class="st47" x1="138.9" y1="292.6" x2="138.9" y2="309.5"/>
	<line class="st47" x1="112.4" y1="332.4" x2="112.4" y2="349.3"/>
	<line class="st47" x1="122.1" y1="243.2" x2="122.1" y2="260.1"/>
	<line class="st47" x1="136.1" y1="409.5" x2="136.1" y2="426.4"/>
	<line class="st47" x1="105.4" y1="131.2" x2="105.4" y2="148"/>
	<line class="st47" x1="149.8" y1="392.7" x2="149.8" y2="409.5"/>
</g>
<g>
	<g>
		<path class="st48" d="M405.5,121.6c-0.4-0.6-0.8-1.2-1.7-1.2c-0.3,0-0.5,0.1-0.8,0.2c-0.4,0.2-0.7,0.3-1.1,0.5
			c-0.7,0-1.3-0.3-1.6-0.8c-0.6-0.5-0.8-0.8-1.6-0.8c-1.4-0.1-1.1,0.4-2.7-0.9c-0.4-0.3-0.2-0.3-0.6-0.6c-0.2-0.1-0.4,0.1-0.2,0.2
			c0.8,0.5,0.8,1.4,1.7,1.6c0.3,0.1,0.6,0,0.9,0c1.2-0.1,1.6,0.4,2.5,1c0.5,0.3,0.6,0.6,1.2,0.6c1.4,0,2.4-1.4,3.6,0.4
			C405.3,122,405.6,121.8,405.5,121.6L405.5,121.6z"/>
	</g>
</g>
<g>
	<g>
		<path class="st48" d="M404.6,123.2c-0.4-0.6-0.8-1.2-1.7-1.2c-0.3,0-0.5,0.1-0.8,0.2c-0.4,0.2-0.7,0.3-1.1,0.5
			c-0.7,0-1.3-0.3-1.6-0.8c-0.6-0.5-0.8-0.8-1.6-0.8c-1.4-0.1-1.1,0.4-2.7-0.9c-0.4-0.3-0.2-0.3-0.6-0.6c-0.2-0.1-0.4,0.1-0.2,0.2
			c0.8,0.5,0.8,1.4,1.7,1.6c0.3,0.1,0.6,0,0.9,0c1.2-0.1,1.6,0.4,2.5,1c0.5,0.3,0.6,0.6,1.2,0.6c1.4,0,2.4-1.4,3.6,0.4
			C404.5,123.5,404.7,123.3,404.6,123.2L404.6,123.2z"/>
	</g>
</g>
<g>
	<path class="st31" d="M302.1,238.2l0.1-1.2c5.7-5.5,6.8-13.5,5.9-21.2c0-0.1,0-0.1,0-0.1h0.8c0,0.1,0,0.1,0.1,0.1
		C309.9,224,308.5,232.6,302.1,238.2z"/>
</g>
</svg>
