<?xml version="1.0" encoding="utf-8"?>
<!-- Generator: Adobe Illustrator 21.0.2, SVG Export Plug-In . SVG Version: 6.00 Build 0)  -->
<svg version="1.1" id="Layer_1" xmlns="http://www.w3.org/2000/svg" xmlns:xlink="http://www.w3.org/1999/xlink" x="0px" y="0px"
	 viewBox="0 0 549.2 454" style="enable-background:new 0 0 549.2 454;" xml:space="preserve">
<style type="text/css">
	.st0{fill:#C0F9F3;}
	.st1{fill:#9AD7D2;}
	.st2{fill:#74C1B9;}
	.st3{fill:#66AAA2;}
	.st4{fill:#E09705;}
	.st5{opacity:0.36;fill:#C48008;}
	.st6{fill:#FFE48D;}
	.st7{opacity:0.54;fill:#74C1B9;}
	.st8{opacity:0.21;fill:#B4D2D2;}
	.st9{fill:#F4D271;}
	.st10{opacity:0.16;fill:#E09705;}
	.st11{fill:#373449;}
	.st12{fill:#F9BF3E;}
	.st13{fill:#FFFFFF;}
	.st14{opacity:0.35;fill:#FFE48D;}
	.st15{opacity:0.54;fill:#E09705;}
	.st16{fill:#B2EDE8;}
	.st17{opacity:0.23;fill:#9AD7D2;}
</style>
<g>
	<g>
		<g>
			<path class="st0" d="M69.1,52.5l1.4-2c1.2-1.6,0.8-3.9-0.8-5c1.4,0.3,2.9-0.2,3.8-1.4l1.4-2c1.2-1.6,0.8-3.9-0.8-5L59.4,26.7
				c-1.6-1.2-3.9-0.8-5,0.8l-1.4,2c-0.9,1.2-0.9,2.8-0.1,4c-1.6-1.1-3.9-0.8-5,0.9l-1.4,2c-1,1.3-0.9,3.1,0.1,4.4
				c-1.5-0.5-3.2-0.1-4.2,1.3L41,44c-1.2,1.6-0.8,3.9,0.8,5c-1.6-1.2-3.9-0.8-5,0.8l-1.4,2c-1.2,1.6-0.8,3.9,0.8,5l0.3,0.2
				c-1.8-1.3-4.3-0.9-5.6,0.9l-6.5,9.1c-1.3,1.8-0.9,4.3,0.9,5.6l16.1,11.5c1.8,1.3,4.3,0.9,5.6-0.9l6.5-9.1
				c1.3-1.8,0.9-4.3-0.9-5.6l0.3,0.2c1.6,1.2,3.9,0.8,5-0.8l1.4-2c1.2-1.6,0.8-3.9-0.8-5c1.6,1.2,3.9,0.8,5-0.8l1.4-2
				c1-1.3,0.9-3.1-0.1-4.4C66.4,54.3,68.1,53.9,69.1,52.5z"/>
			<g>
				<path class="st1" d="M64.3,25.7c-0.1-0.1-0.2-0.2-0.3-0.3l-2.2,3.1l9.7,6.9l2.2-3.1c-0.1-0.1-0.3-0.1-0.4-0.2L64.3,25.7z"/>
				<g>
					<path class="st2" d="M75,30l-9.3-6.6c-0.3-0.2-0.5-0.5-0.7-0.8c-0.4,0.1-0.8,0.3-1.1,0.7c-0.5,0.6-0.4,1.5,0.1,2.1
						c0.1,0.1,0.2,0.2,0.3,0.3l9,6.4c0.1,0.1,0.3,0.1,0.4,0.2c0.7,0.3,1.5,0.1,2-0.6c0.3-0.4,0.4-0.8,0.3-1.3
						C75.7,30.3,75.4,30.2,75,30z"/>
				</g>
				<g>
					<path class="st3" d="M77.8,26.1l-9.3-6.6c-1.1-0.8-2.6-0.5-3.4,0.6c-0.5,0.8-0.6,1.7-0.2,2.5c0.2,0.3,0.4,0.6,0.7,0.8L75,30
						c0.3,0.2,0.7,0.4,1,0.4c0.9,0.1,1.8-0.2,2.3-1C79.2,28.3,78.9,26.8,77.8,26.1z"/>
				</g>
			</g>
		</g>
	</g>
	<path class="st1" d="M69.6,46.3c-0.1,0-0.1,0-0.2-0.1l-17-12.1c-0.3-0.2-0.4-0.6-0.2-0.9c0.2-0.3,0.6-0.4,0.9-0.2l17,12.1
		c0.3,0.2,0.4,0.6,0.2,0.9C70.2,46.3,69.9,46.4,69.6,46.3z"/>
	<path class="st1" d="M64.2,53.9c-0.1,0-0.1,0-0.2-0.1L47,41.7c-0.3-0.2-0.4-0.6-0.2-0.9c0.2-0.3,0.6-0.4,0.9-0.2l17,12.1
		c0.3,0.2,0.4,0.6,0.2,0.9C64.8,53.9,64.5,54,64.2,53.9z"/>
	<path class="st1" d="M58.6,61.8c-0.1,0-0.1,0-0.2-0.1l-17-12.1c-0.3-0.2-0.4-0.6-0.2-0.9c0.2-0.3,0.6-0.4,0.9-0.2l17,12.1
		c0.3,0.2,0.4,0.6,0.2,0.9C59.2,61.8,58.9,61.9,58.6,61.8z"/>
	<path class="st1" d="M53,69.6c-0.1,0-0.1,0-0.2-0.1l-17-12.1c-0.3-0.2-0.4-0.6-0.2-0.9c0.2-0.3,0.6-0.4,0.9-0.2l17,12.1
		c0.3,0.2,0.4,0.6,0.2,0.9C53.6,69.6,53.3,69.7,53,69.6z"/>
</g>
<g>
	<path class="st4" d="M488.3,205.8c0,29.7-68.3,53.9-152.6,53.9c-84.3,0-152.6-16.6-152.6-46.4c0-29.7,68.3-61.3,152.6-61.3
		C420,151.9,488.3,176,488.3,205.8z"/>
	<path class="st5" d="M471.4,199.8c0,26.4-60.7,47.9-135.6,47.9c-74.9,0-135.6-14.8-135.6-41.2c0-26.4,60.7-54.5,135.6-54.5
		C410.6,151.9,471.4,173.3,471.4,199.8z"/>
	<g>
		<path class="st6" d="M499.3,264.5c0.8-1.4,1.1-3.1,0.7-4.8c-0.7-3.3-3.7-5.3-6.6-4.5c-0.4,0.1-0.7,0.2-1,0.4c0-0.4,0-0.8-0.1-1.2
			c-0.5-2.2-2.4-3.5-4.4-3c-0.7,0.2-1.3,0.6-1.8,1.2L441,211.3c-7.8-7.1-17.1-8.7-20.7-3.6l-15.1,21.5l35.5,32.4
			c25.9,23.6,56.6,29,68.6,12L499.3,264.5z"/>
		<path class="st7" d="M460.8,270.8c0.3,1.4,2.4,2,4.7,1.3c2.3-0.7,3.9-2.3,3.6-3.7c-0.3-1.4-2.4-2-4.7-1.3
			C462.2,267.7,460.5,269.4,460.8,270.8z"/>
		<path class="st7" d="M486.3,275.3c0.3,1.4,2.4,2,4.7,1.3c2.3-0.7,3.9-2.3,3.6-3.7c-0.3-1.4-2.4-2-4.7-1.3
			C487.6,272.2,486,273.9,486.3,275.3z"/>
		<path class="st7" d="M430.9,230.4c0.3,1.4,2.4,2,4.7,1.3c2.3-0.7,3.9-2.3,3.6-3.7c-0.3-1.4-2.4-2-4.7-1.3
			C432.3,227.3,430.6,229,430.9,230.4z"/>
		<path class="st7" d="M446,244.3c0.3,1.4,2.4,2,4.7,1.3c2.3-0.7,3.9-2.3,3.6-3.7c-0.3-1.4-2.4-2-4.7-1.3
			C447.3,241.2,445.7,242.9,446,244.3z"/>
		<path class="st7" d="M470.9,265.5c0.2,0.7,1,1.1,1.8,0.8c0.9-0.2,1.4-1,1.3-1.7c-0.2-0.7-1-1.1-1.8-0.8
			C471.4,264.1,470.8,264.8,470.9,265.5z"/>
		<path class="st8" d="M482.7,271.2c0.2,0.7,1,1.1,1.8,0.8c0.9-0.2,1.4-1,1.3-1.7c-0.2-0.7-1-1.1-1.8-0.8
			C483.1,269.8,482.5,270.6,482.7,271.2z"/>
		<path class="st8" d="M455.7,251.8c0.2,0.7,1,1.1,1.8,0.8c0.9-0.2,1.4-1,1.3-1.7c-0.2-0.7-1-1.1-1.8-0.8
			C456.2,250.3,455.6,251.1,455.7,251.8z"/>
		<path class="st7" d="M471.3,273.7c0.1,0.3,0.4,0.5,0.8,0.4c0.4-0.1,0.6-0.4,0.5-0.7c-0.1-0.3-0.4-0.5-0.8-0.4
			C471.5,273.1,471.3,273.4,471.3,273.7z"/>
		<path class="st7" d="M482.5,261c0.1,0.3,0.4,0.5,0.8,0.4c0.4-0.1,0.6-0.4,0.5-0.7c-0.1-0.3-0.4-0.5-0.8-0.4
			C482.7,260.4,482.5,260.7,482.5,261z"/>
		<path class="st7" d="M434.6,244.8c0.1,0.3,0.4,0.5,0.8,0.4c0.4-0.1,0.6-0.4,0.5-0.7c-0.1-0.3-0.4-0.5-0.8-0.4
			C434.7,244.2,434.5,244.5,434.6,244.8z"/>
		<path class="st7" d="M451.3,263.5c0.1,0.3,0.4,0.5,0.8,0.4c0.4-0.1,0.6-0.4,0.5-0.7c-0.1-0.3-0.4-0.5-0.8-0.4
			C451.5,262.8,451.3,263.2,451.3,263.5z"/>
		<path class="st7" d="M443.5,254c0.1,0.3,0.4,0.5,0.8,0.4c0.4-0.1,0.6-0.4,0.5-0.7c-0.1-0.3-0.4-0.5-0.8-0.4
			C443.7,253.4,443.4,253.7,443.5,254z"/>
		<path class="st7" d="M464.9,249.3c0.2,1,1.4,1.5,2.6,1.2s2-1.4,1.8-2.4c-0.2-1-1.4-1.5-2.6-1.2
			C465.5,247.2,464.7,248.3,464.9,249.3z"/>
		<path class="st7" d="M452.9,255.3c0.2,1,1.4,1.5,2.6,1.2s2-1.4,1.8-2.4c-0.2-1-1.4-1.5-2.6-1.2S452.7,254.3,452.9,255.3z"/>
		<path class="st7" d="M496.3,265.6c0.1,0.6,0.8,0.9,1.5,0.7c0.7-0.2,1.2-0.8,1-1.4c-0.1-0.6-0.8-0.9-1.5-0.7
			C496.7,264.4,496.2,265,496.3,265.6z"/>
	</g>
	<path class="st9" d="M102.8,178.8l106.7,22.9l-5.9,24.9l-88.9-18.4c-9.6-2.5-15.7-13.6-13.2-23.2L102.8,178.8z"/>
	<path class="st6" d="M100.8,189.2l1-0.4c5.9-2.3,12.7,0,15.9,5.5l0,0c2.5,4.3,6.8,7.3,11.6,8.2l82.4,15.1l14.6-56.5L148,141.9
		c-20.8-5.4-42,7.1-47.4,27.9l-4.2,15.4C95.6,187.8,98.2,190.2,100.8,189.2z"/>
	<g>
		
			<ellipse transform="matrix(0.1263 -0.992 0.992 0.1263 -29.8477 279.7881)" class="st7" cx="143.9" cy="156.8" rx="1.3" ry="1.8"/>
		<ellipse transform="matrix(0.1263 -0.992 0.992 0.1263 -9.3412 302.7874)" class="st7" cx="167.2" cy="156.7" rx="6.6" ry="9.3"/>
		<ellipse transform="matrix(0.1263 -0.992 0.992 0.1263 -56.8027 252.6256)" class="st7" cx="115" cy="158.6" rx="4.4" ry="6.1"/>
		
			<ellipse transform="matrix(0.1263 -0.992 0.992 0.1263 -36.7734 255.9203)" class="st7" cx="126.9" cy="148.8" rx="1.3" ry="1.8"/>
		<ellipse transform="matrix(0.1263 -0.992 0.992 0.1263 -24.9056 269.7182)" class="st7" cx="140.7" cy="149" rx="1.3" ry="1.8"/>
		<ellipse transform="matrix(0.1263 -0.992 0.992 0.1263 9.3236 326.537)" class="st7" cx="190" cy="158" rx="1.3" ry="1.8"/>
		
			<ellipse transform="matrix(0.1263 -0.992 0.992 0.1263 -45.5579 261.0269)" class="st7" cx="125.4" cy="156.4" rx="0.6" ry="0.8"/>
		
			<ellipse transform="matrix(0.1263 -0.992 0.992 0.1263 -69.5491 263.7093)" class="st7" cx="114.9" cy="171.3" rx="0.6" ry="0.8"/>
		<ellipse transform="matrix(0.1263 -0.992 0.992 0.1263 -15.293 273.9674)" class="st7" cx="147.9" cy="145.7" rx="0.6" ry="0.8"/>
		<ellipse transform="matrix(0.1263 -0.992 0.992 0.1263 -45.888 248.2061)" class="st7" cx="118" cy="150.2" rx="0.6" ry="0.8"/>
		
			<ellipse transform="matrix(0.1263 -0.992 0.992 0.1263 -25.8026 261.9795)" class="st7" cx="135.8" cy="145.6" rx="0.6" ry="0.8"/>
		<ellipse transform="matrix(0.1263 -0.992 0.992 0.1263 -25.591 290.5016)" class="st7" cx="152.1" cy="159.8" rx="0.6" ry="0.8"/>
		<ellipse transform="matrix(0.1263 -0.992 0.992 0.1263 -29.022 322.5128)" class="st7" cx="168.6" cy="177.7" rx="0.6" ry="0.8"/>
		
			<ellipse transform="matrix(0.1263 -0.992 0.992 0.1263 -34.4092 268.1955)" class="st7" cx="135.1" cy="153.6" rx="1.9" ry="2.6"/>
		
			<ellipse transform="matrix(0.1263 -0.992 0.992 0.1263 -43.9618 270.6934)" class="st7" cx="131.7" cy="160.3" rx="1.1" ry="1.5"/>
		
			<ellipse transform="matrix(0.1263 -0.992 0.992 0.1263 -59.0485 265.5331)" class="st7" cx="121.2" cy="166.3" rx="1.1" ry="1.5"/>
		
			<ellipse transform="matrix(0.1263 -0.992 0.992 0.1263 -74.9115 250.5147)" class="st7" cx="104.8" cy="167.8" rx="1.1" ry="1.5"/>
		
			<ellipse transform="matrix(0.1263 -0.992 0.992 0.1263 -19.1967 282.5677)" class="st7" cx="150.8" cy="152.2" rx="1.1" ry="1.5"/>
		
			<ellipse transform="matrix(0.1263 -0.992 0.992 0.1263 -10.8646 327.9352)" class="st7" cx="180.7" cy="170.1" rx="1.1" ry="1.5"/>
	</g>
	<g>
		
			<ellipse transform="matrix(0.6512 -0.7589 0.7589 0.6512 -86.8484 167.8856)" class="st10" cx="139.2" cy="178.4" rx="20.6" ry="20.6"/>
		
			<ellipse transform="matrix(0.6512 -0.7589 0.7589 0.6512 -85.0953 167.3489)" class="st11" cx="139.5" cy="176.3" rx="8.2" ry="8.2"/>
		<path class="st12" d="M139.5,189.6c-3.2,0-6.2-1.1-8.7-3.2c-0.3-0.3-0.3-0.7-0.1-1.1c0.3-0.3,0.7-0.3,1.1-0.1
			c2.4,2.1,5.5,3.1,8.6,2.8c3.2-0.2,6-1.7,8.1-4.1c4.3-5,3.7-12.5-1.3-16.8c-0.3-0.3-0.3-0.7-0.1-1.1c0.3-0.3,0.7-0.3,1.1-0.1
			c5.6,4.8,6.2,13.3,1.4,18.9c-2.3,2.7-5.6,4.4-9.1,4.6C140.2,189.6,139.8,189.6,139.5,189.6z"/>
		
			<ellipse transform="matrix(0.6512 -0.7589 0.7589 0.6512 -83.6819 167.5661)" class="st13" cx="140.5" cy="174.8" rx="4.8" ry="4.8"/>
	</g>
	<path class="st12" d="M183.1,224.5l37.6,3.8c78.4,7.9,157.4,6.4,235.4-4.5l32.9-4.6c8.6,0,2.2-7.5,2.2-7.5c0-60-95-111.5-155-111.5
		h-29C238.7,100.3,183.1,155.9,183.1,224.5L183.1,224.5z"/>
	<path class="st14" d="M234.9,209.5L234.9,209.5c67.4,6.8,135.3,5.5,202.4-3.8l28.3-3.9c7.4,0,1.9-6.4,1.9-6.4
		c0-51.6-81.7-95.8-133.2-95.8h-25c-65.1,0-90.5,39.7-100.4,70.7C203,188.6,215.8,207.6,234.9,209.5z"/>
	<path class="st14" d="M248.6,188.8L248.6,188.8c55.6,5.6,111.6,4.5,166.9-3.2l23.3-3.2c6.1,0,1.6-5.3,1.6-5.3
		c0-42.5-67.3-79-109.9-79h-20.6c-51.2,0-72.7,33.2-81.7,58.8C223.1,171.6,233.1,187.2,248.6,188.8z"/>
	<path class="st14" d="M266.3,165.7c41.4,4.2,83.2,3.4,124.5-2.4l17.4-2.4c4.5,0,1.2-4,1.2-4c0-31.7-50.2-58.9-82-58.9h-15.4
		c-28.2,0-52.3,17.8-61.6,42.8C246.3,152.2,254.2,164.5,266.3,165.7L266.3,165.7z"/>
	<g>
		<g>
			
				<ellipse transform="matrix(0.1263 -0.992 0.992 0.1263 149.2048 440.227)" class="st15" cx="324.5" cy="135.4" rx="2.8" ry="3.9"/>
			
				<ellipse transform="matrix(0.1263 -0.992 0.992 0.1263 219.2581 528.7438)" class="st15" cx="409.8" cy="139.9" rx="2.8" ry="3.9"/>
			
				<ellipse transform="matrix(0.1263 -0.992 0.992 0.1263 148.0338 480.7886)" class="st15" cx="347" cy="156.4" rx="2.8" ry="3.9"/>
			
				<ellipse transform="matrix(0.1263 -0.992 0.992 0.1263 169.3697 519.9751)" class="st15" cx="379.9" cy="163.8" rx="2.8" ry="3.9"/>
			
				<ellipse transform="matrix(0.1263 -0.992 0.992 0.1263 205.0978 464.7901)" class="st15" cx="366.4" cy="116" rx="2.8" ry="3.9"/>
			<ellipse transform="matrix(0.1263 -0.992 0.992 0.1263 112.0472 449.2095)" class="st15" cx="311" cy="161" rx="9.3" ry="13"/>
			
				<ellipse transform="matrix(0.1263 -0.992 0.992 0.1263 92.1303 382.7078)" class="st15" cx="263.3" cy="139.1" rx="9.3" ry="13"/>
			
				<ellipse transform="matrix(0.1263 -0.992 0.992 0.1263 191.2959 498.2933)" class="st15" cx="378.5" cy="140.5" rx="9.3" ry="13"/>
			
				<ellipse transform="matrix(0.1263 -0.992 0.992 0.1263 134.5325 389.6784)" class="st15" cx="288.5" cy="118.5" rx="2.8" ry="3.9"/>
			
				<ellipse transform="matrix(0.1263 -0.992 0.992 0.1263 196.8522 445.4764)" class="st15" cx="351.3" cy="111" rx="2.8" ry="3.9"/>
			
				<ellipse transform="matrix(0.1263 -0.992 0.992 0.1263 159.6736 418.9084)" class="st15" cx="317.7" cy="118.8" rx="2.8" ry="3.9"/>
			
				<ellipse transform="matrix(0.1263 -0.992 0.992 0.1263 140.0535 507.3444)" class="st15" cx="358" cy="174.2" rx="2.8" ry="3.9"/>
			
				<ellipse transform="matrix(0.1263 -0.992 0.992 0.1263 115.9306 400.4924)" class="st15" cx="285.3" cy="134.4" rx="1.2" ry="1.7"/>
			
				<ellipse transform="matrix(0.1263 -0.992 0.992 0.1263 219.1226 496.7158)" class="st15" cx="391.6" cy="124" rx="1.2" ry="1.7"/>
			
				<ellipse transform="matrix(0.1263 -0.992 0.992 0.1263 65.1473 406.1808)" class="st15" cx="263.2" cy="166.1" rx="1.2" ry="1.7"/>
			
				<ellipse transform="matrix(0.1263 -0.992 0.992 0.1263 180.024 427.8986)" class="st15" cx="332.9" cy="111.8" rx="1.2" ry="1.7"/>
			
				<ellipse transform="matrix(0.1263 -0.992 0.992 0.1263 187.8547 547.5021)" class="st15" cx="404.7" cy="167.1" rx="1.2" ry="1.7"/>
			
				<ellipse transform="matrix(0.1263 -0.992 0.992 0.1263 115.232 373.3472)" class="st15" cx="269.6" cy="121.3" rx="1.2" ry="1.7"/>
			
				<ellipse transform="matrix(0.1263 -0.992 0.992 0.1263 157.769 402.5132)" class="st15" cx="307.4" cy="111.7" rx="1.2" ry="1.7"/>
			
				<ellipse transform="matrix(0.1263 -0.992 0.992 0.1263 158.2015 462.8932)" class="st15" cx="341.9" cy="141.6" rx="1.2" ry="1.7"/>
			<ellipse transform="matrix(0.1263 -0.992 0.992 0.1263 81.1097 441.1888)" class="st15" cx="291" cy="174.5" rx="1.2" ry="1.7"/>
			
				<ellipse transform="matrix(0.1263 -0.992 0.992 0.1263 189.8579 471.9073)" class="st15" cx="362.8" cy="128.2" rx="1.2" ry="1.7"/>
			
				<ellipse transform="matrix(0.1263 -0.992 0.992 0.1263 202.8873 531.585)" class="st15" cx="403.2" cy="150.6" rx="1.2" ry="1.7"/>
			<ellipse transform="matrix(0.1263 -0.992 0.992 0.1263 139.539 415.6698)" class="st15" cx="305.7" cy="128.6" rx="4" ry="5.6"/>
			
				<ellipse transform="matrix(0.1263 -0.992 0.992 0.1263 119.3173 420.9574)" class="st15" cx="298.6" cy="142.7" rx="2.3" ry="3.2"/>
			
				<ellipse transform="matrix(0.1263 -0.992 0.992 0.1263 87.3746 410.0316)" class="st15" cx="276.5" cy="155.4" rx="2.3" ry="3.2"/>
			
				<ellipse transform="matrix(0.1263 -0.992 0.992 0.1263 53.7834 378.2292)" class="st15" cx="241.6" cy="158.6" rx="2.3" ry="3.2"/>
			
				<ellipse transform="matrix(0.1263 -0.992 0.992 0.1263 171.7593 446.1148)" class="st15" cx="339.1" cy="125.5" rx="2.3" ry="3.2"/>
			
				<ellipse transform="matrix(0.1263 -0.992 0.992 0.1263 164.6518 491.9051)" class="st15" cx="361.6" cy="152.5" rx="2.3" ry="3.2"/>
		</g>
	</g>
	<g>
		<path class="st6" d="M293,299.8c1.5-1.3,2.5-3.2,2.6-5.4c0.3-4.3-3-8.1-7.3-8.4c-0.5,0-1,0-1.6,0c0.2-0.5,0.3-0.9,0.3-1.4
			c0.2-2.9-2-5.4-4.9-5.6c-0.8-0.1-1.5,0.1-2.2,0.3L239.1,215c-10.9-17.1-33.9-21.3-50.1-9.2l0,0c-7,5.3-8.8,15.1-3.9,22.5
			l27.8,42.1c26.6,40.2,67,60.5,90.1,45.1v0L293,299.8z"/>
		
			<ellipse transform="matrix(6.840374e-02 -0.9977 0.9977 6.840374e-02 -63.4142 513.8973)" class="st7" cx="243.5" cy="290.9" rx="3.3" ry="6.3"/>
		
			<ellipse transform="matrix(6.840040e-02 -0.9977 0.9977 6.840040e-02 -25.2846 423.7164)" class="st7" cx="214.2" cy="225.4" rx="3.9" ry="7.3"/>
		
			<ellipse transform="matrix(6.840455e-02 -0.9977 0.9977 6.840455e-02 -34.2334 467.6223)" class="st7" cx="233.3" cy="252.1" rx="3.3" ry="6.3"/>
		
			<ellipse transform="matrix(6.841244e-02 -0.9977 0.9977 6.841244e-02 -39.7741 519.9462)" class="st7" cx="258.5" cy="281.3" rx="1.7" ry="2.3"/>
		
			<ellipse transform="matrix(6.841244e-02 -0.9977 0.9977 6.841244e-02 -49.1705 549.2026)" class="st8" cx="269.5" cy="300.9" rx="1.7" ry="2.3"/>
		
			<ellipse transform="matrix(6.841244e-02 -0.9977 0.9977 6.841244e-02 -41.229 486.4631)" class="st8" cx="239.9" cy="265.3" rx="1.7" ry="2.3"/>
		
			<ellipse transform="matrix(6.838245e-02 -0.9977 0.9977 6.838245e-02 -63.7593 529.301)" class="st7" cx="251.5" cy="298.8" rx="0.7" ry="1"/>
		
			<ellipse transform="matrix(6.838245e-02 -0.9977 0.9977 6.838245e-02 -46.5501 490.8777)" class="st7" cx="239.6" cy="270.4" rx="0.7" ry="1"/>
		
			<ellipse transform="matrix(6.838245e-02 -0.9977 0.9977 6.838245e-02 -34.3011 539.9756)" class="st7" cx="272" cy="288.4" rx="0.7" ry="1"/>
		
			<ellipse transform="matrix(6.837693e-02 -0.9977 0.9977 6.837693e-02 -49.306 441.8806)" class="st7" cx="211.9" cy="247.3" rx="0.7" ry="1"/>
		
			<ellipse transform="matrix(6.837730e-02 -0.9977 0.9977 6.837730e-02 -64.4938 485.7826)" class="st7" cx="227.9" cy="277.4" rx="0.7" ry="1"/>
		
			<ellipse transform="matrix(6.837730e-02 -0.9977 0.9977 6.837730e-02 -5.5796 453.1214)" class="st7" cx="239.8" cy="229.5" rx="0.7" ry="1"/>
		
			<ellipse transform="matrix(6.838284e-02 -0.9977 0.9977 6.838284e-02 -56.2057 464.7054)" class="st7" cx="220.7" cy="262.4" rx="0.7" ry="1"/>
		
			<ellipse transform="matrix(6.839152e-02 -0.9977 0.9977 6.839152e-02 -28.6787 502.0857)" class="st7" cx="254.5" cy="266.4" rx="2.4" ry="3.3"/>
		
			<ellipse transform="matrix(6.839152e-02 -0.9977 0.9977 6.839152e-02 -57.3452 495.3246)" class="st7" cx="236.5" cy="278.4" rx="2.4" ry="3.3"/>
		
			<ellipse transform="matrix(6.839152e-02 -0.9977 0.9977 6.839152e-02 -40.8069 560.9112)" class="st7" cx="279.9" cy="302.3" rx="2.4" ry="3.3"/>
		
			<ellipse transform="matrix(6.839152e-02 -0.9977 0.9977 6.839152e-02 -47.183 536.1296)" class="st7" cx="263.5" cy="293.3" rx="2.4" ry="3.3"/>
	</g>
</g>
<g>
	<path class="st0" d="M167.7,419l-14.2,15.3c-0.9,1-2.5,1.1-3.6,0.3l-32.7-25.8c-1.2-1-1.4-2.7-0.3-3.9l18.7-20.1
		c1.1-1.1,2.8-1.1,3.9,0l28.2,30.7C168.6,416.5,168.6,418,167.7,419z"/>
	<path class="st1" d="M139.9,384.9l-22.6,24.3c-1.1,1.2-2.9,1.2-4.1,0.2l0,0c-1.2-1.1-1.2-2.9-0.2-4.1l22.6-24.3
		c1.1-1.2,2.9-1.2,4.1-0.2l0,0C141,381.9,141,383.7,139.9,384.9z"/>
	<polygon class="st2" points="158,405.1 138.8,425.7 124.6,414.8 146.1,391.7 	"/>
	
		<ellipse transform="matrix(0.6799 -0.7333 0.7333 0.6799 -254.7497 235.07)" class="st16" cx="141.9" cy="409.3" rx="6.4" ry="6.4"/>
</g>
<g>
	<path class="st0" d="M493.4,324.3l1.6,4c0.3,0.9-0.1,1.8-1.1,2.1l-14.9,4c-1.5,0.4-2.4,2.1-1.9,3.6l5.2,16c0.5,1.4,2,2.1,3.4,1.6
		l15.1-6c0.6-0.2,1.3,0.1,1.5,0.7l1.5,5.5c0.2,0.8-0.2,1.6-0.9,1.9l-52.8,22.9c-3.8,1.6-8.1-0.4-9.3-4.3l-9.9-32.2
		c-1.1-3.6,1.1-7.4,4.8-8.2l30.7-6.8l25.7-5.7C492.5,323.4,493.1,323.7,493.4,324.3z"/>
	<path class="st17" d="M492.2,325.8l1.5,3.9c0.3,0.8-0.1,1.8-1,2l-13.8,3.7c-1.4,0.4-2.2,1.9-1.8,3.4l5,15.2
		c0.4,1.3,1.9,2.1,3.2,1.5l13.9-5.6c0.6-0.2,1.2,0.1,1.4,0.7l1.4,5.2c0.2,0.7-0.2,1.5-0.8,1.8l-48.7,21.3c-3.5,1.5-7.5-0.4-8.7-4.2
		l-9.5-30.7c-1.1-3.4,0.9-7,4.3-7.7l52.1-11.3C491.4,324.9,492,325.2,492.2,325.8z"/>
</g>
</svg>
