<?xml version="1.0" encoding="utf-8"?>
<!-- Generator: Adobe Illustrator 21.0.2, SVG Export Plug-In . SVG Version: 6.00 Build 0)  -->
<svg version="1.1" id="Layer_1" xmlns="http://www.w3.org/2000/svg" xmlns:xlink="http://www.w3.org/1999/xlink" x="0px" y="0px"
	 viewBox="0 0 183.8 650" style="enable-background:new 0 0 183.8 650;" xml:space="preserve">
<style type="text/css">
	.st0{fill:#BDBFE2;}
	.st1{fill:#A1A5CE;}
	.st2{fill:#FF8A64;}
	.st3{fill:#3C445B;}
	.st4{fill:#484F6B;}
	.st5{opacity:0.26;}
	.st6{fill:#E2585C;}
	.st7{fill:#FC6262;}
	.st8{fill:#C65739;}
	.st9{fill:#FFC74C;}
	.st10{fill:#7F2F3D;}
	.st11{fill:#398489;}
	.st12{fill:#2C9191;}
	.st13{fill:#308587;}
	.st14{fill:#6D2938;}
	.st15{fill:#D84E4E;}
	.st16{fill:#F4AB98;}
</style>
<g>
	<g>
		<g>
			<g>
				<path class="st0" d="M130.8,348.7c0,0,9.4,198.2-1,279.1c-22.8,0.7-22.8,0.7-22.8,0.7s-24.5-233-28.9-251
					c-3.5,27.6-53.8,254.4-53.8,254.4H0l17.4-286.2L130.8,348.7z"/>
			</g>
		</g>
		<g>
			<g>
				<path class="st1" d="M111.2,621.8h0.5l0.2,2.6h-0.5L111.2,621.8z M110.7,616.5h0.5l0.2,2.7h-0.5L110.7,616.5z M110.3,611.2h0.5
					l0.2,2.6h-0.5L110.3,611.2z M109.8,605.9h0.5l0.2,2.7H110L109.8,605.9z M109.4,600.6h0.5l0.2,2.6h-0.5L109.4,600.6z
					 M108.9,595.3h0.5l0.2,2.6h-0.5L108.9,595.3z M108.5,590h0.5l0.2,2.6h-0.5L108.5,590z M108,584.7h0.5l0.2,2.6h-0.5L108,584.7z
					 M107.6,579.4h0.5l0.2,2.7h-0.5L107.6,579.4z M107.1,574.1h0.5l0.2,2.6h-0.5L107.1,574.1z M106.6,568.8h0.5l0.2,2.7h-0.5
					L106.6,568.8z M106.2,563.5h0.5l0.2,2.6h-0.5L106.2,563.5z M105.7,558.2h0.5l0.2,2.6h-0.5L105.7,558.2z M105.3,552.9h0.5
					l0.2,2.6h-0.5L105.3,552.9z M104.8,547.6h0.5l0.2,2.6H105L104.8,547.6z M104.4,542.3h0.5l0.2,2.7h-0.5L104.4,542.3z M103.9,537
					h0.5l0.2,2.6h-0.5L103.9,537z M103.5,531.7h0.5l0.2,2.7h-0.5L103.5,531.7z M103,526.4h0.5l0.2,2.6h-0.5L103,526.4z M102.6,521.1
					h0.5l0.2,2.6h-0.5L102.6,521.1z M102.1,515.8h0.5l0.2,2.6h-0.5L102.1,515.8z M101.7,510.5h0.5l0.2,2.6h-0.5L101.7,510.5z
					 M101.2,505.2h0.5l0.2,2.7h-0.5L101.2,505.2z M100.8,499.9h0.5l0.2,2.6H101L100.8,499.9z M100.3,494.6h0.5l0.2,2.7h-0.5
					L100.3,494.6z M99.8,489.3h0.5l0.2,2.6H100L99.8,489.3z M99.4,484h0.5l0.2,2.7h-0.5L99.4,484z M98.9,478.7h0.5l0.2,2.6h-0.5
					L98.9,478.7z M98.5,473.4H99l0.2,2.6h-0.5L98.5,473.4z M98,468.1h0.5l0.2,2.6h-0.5L98,468.1z M97.6,462.8h0.5l0.2,2.6h-0.5
					L97.6,462.8z M97.1,457.5h0.5l0.2,2.7h-0.5L97.1,457.5z M96.7,452.2h0.5l0.2,2.6h-0.5L96.7,452.2z M96.2,446.9h0.5l0.2,2.7h-0.5
					L96.2,446.9z M95.8,441.6h0.5l0.2,2.6H96L95.8,441.6z M95.3,436.3h0.5l0.2,2.6h-0.5L95.3,436.3z M94.9,431h0.5l0.2,2.6h-0.5
					L94.9,431z M94.4,425.7h0.5l0.2,2.6h-0.5L94.4,425.7z M94,420.4h0.5l0.2,2.7h-0.5L94,420.4z M93.5,415.1H94l0.2,2.6h-0.5
					L93.5,415.1z M93.1,409.8h0.5l0.2,2.7h-0.5L93.1,409.8z M92.6,404.5h0.5l0.2,2.6h-0.5L92.6,404.5z M92.1,399.2h0.5l0.2,2.7h-0.5
					L92.1,399.2z M91.7,393.9h0.5l0.2,2.6h-0.5L91.7,393.9z M91.2,388.6h0.5l0.2,2.6h-0.5L91.2,388.6z M90.8,383.3h0.5l0.2,2.6H91
					L90.8,383.3z M90.3,378h0.5l0.2,2.6h-0.5L90.3,378z"/>
			</g>
		</g>
		<g>
			<g>
				<path class="st1" d="M16.5,630.9l0.5-2.6l0.5,0.1L17,631L16.5,630.9z M17.5,625.7l0.5-2.6l0.5,0.1l-0.5,2.6L17.5,625.7z
					 M18.6,620.5l0.5-2.6l0.5,0.1l-0.5,2.6L18.6,620.5z M19.6,615.3l0.5-2.6l0.5,0.1l-0.5,2.6L19.6,615.3z M20.6,610.1l0.5-2.6
					l0.5,0.1l-0.5,2.6L20.6,610.1z M21.7,604.9l0.5-2.6l0.5,0.1l-0.5,2.6L21.7,604.9z M22.7,599.6l0.5-2.6l0.5,0.1l-0.5,2.6
					L22.7,599.6z M23.8,594.4l0.5-2.6l0.5,0.1l-0.5,2.6L23.8,594.4z M24.8,589.2l0.5-2.6l0.5,0.1l-0.5,2.6L24.8,589.2z M25.9,584
					l0.5-2.6l0.5,0.1l-0.5,2.6L25.9,584z M26.9,578.8l0.5-2.6l0.5,0.1l-0.5,2.6L26.9,578.8z M27.9,573.6l0.5-2.6l0.5,0.1l-0.5,2.6
					L27.9,573.6z M29,568.3l0.5-2.6l0.5,0.1l-0.5,2.6L29,568.3z M30,563.1l0.5-2.6l0.5,0.1l-0.5,2.6L30,563.1z M31.1,557.9l0.5-2.6
					l0.5,0.1l-0.5,2.6L31.1,557.9z M32.1,552.7l0.5-2.6l0.5,0.1l-0.5,2.6L32.1,552.7z M33.2,547.5l0.5-2.6l0.5,0.1l-0.5,2.6
					L33.2,547.5z M34.2,542.3l0.5-2.6l0.5,0.1l-0.5,2.6L34.2,542.3z M35.2,537l0.5-2.6l0.5,0.1l-0.5,2.6L35.2,537z M36.3,531.8
					l0.5-2.6l0.5,0.1l-0.5,2.6L36.3,531.8z M37.3,526.6l0.5-2.6l0.5,0.1l-0.5,2.6L37.3,526.6z M38.4,521.4l0.5-2.6l0.5,0.1l-0.5,2.6
					L38.4,521.4z M39.4,516.2l0.5-2.6l0.5,0.1l-0.5,2.6L39.4,516.2z M40.5,511l0.5-2.6l0.5,0.1l-0.5,2.6L40.5,511z M41.5,505.7
					l0.5-2.6l0.5,0.1l-0.5,2.6L41.5,505.7z M42.5,500.5l0.5-2.6l0.5,0.1l-0.5,2.6L42.5,500.5z M43.6,495.3l0.5-2.6l0.5,0.1l-0.5,2.6
					L43.6,495.3z M44.6,490.1l0.5-2.6l0.5,0.1l-0.5,2.6L44.6,490.1z M45.7,484.9l0.5-2.6l0.5,0.1l-0.5,2.6L45.7,484.9z M46.7,479.7
					l0.5-2.6l0.5,0.1l-0.5,2.6L46.7,479.7z M47.8,474.4l0.5-2.6l0.5,0.1l-0.5,2.6L47.8,474.4z M48.8,469.2l0.5-2.6l0.5,0.1l-0.5,2.6
					L48.8,469.2z M49.9,464l0.5-2.6l0.5,0.1l-0.5,2.6L49.9,464z M50.9,458.8l0.5-2.6l0.5,0.1l-0.5,2.6L50.9,458.8z M51.9,453.6
					l0.5-2.6l0.5,0.1l-0.5,2.6L51.9,453.6z M53,448.4l0.5-2.6l0.5,0.1l-0.5,2.6L53,448.4z M54,443.1l0.5-2.6l0.5,0.1l-0.5,2.6
					L54,443.1z M55.1,437.9l0.5-2.6l0.5,0.1l-0.5,2.6L55.1,437.9z M56.1,432.7l0.5-2.6l0.5,0.1l-0.5,2.6L56.1,432.7z M57.2,427.5
					l0.5-2.6l0.5,0.1l-0.5,2.6L57.2,427.5z M58.2,422.3l0.5-2.6l0.5,0.1l-0.5,2.6L58.2,422.3z M59.2,417.1l0.5-2.6l0.5,0.1l-0.5,2.6
					L59.2,417.1z M60.3,411.9l0.5-2.6l0.5,0.1l-0.5,2.6L60.3,411.9z M61.3,406.6l0.5-2.6l0.5,0.1l-0.5,2.6L61.3,406.6z M62.4,401.4
					l0.5-2.6l0.5,0.1l-0.5,2.6L62.4,401.4z M63.4,396.2l0.5-2.6l0.5,0.1l-0.5,2.6L63.4,396.2z M64.5,391l0.5-2.6l0.5,0.1l-0.5,2.6
					L64.5,391z M65.5,385.8l0.5-2.6l0.5,0.1l-0.5,2.6L65.5,385.8z M66.5,380.6L67,378l0.5,0.1l-0.5,2.6L66.5,380.6z"/>
			</g>
		</g>
		<g>
			<g>
				<g>
					<path class="st1" d="M100.8,378.5c-16.9,1.5-33.7,1-50.4-1.4c-1-0.1-0.6-1.7,0.4-1.5c16.6,2.4,33.3,2.9,50,1.3
						C101.9,376.8,101.9,378.4,100.8,378.5L100.8,378.5z"/>
				</g>
			</g>
		</g>
		<g>
			<path class="st1" d="M14.8,388.2l0.1-2.3c10.6-10.3,12.8-25.3,11-39.8c0-0.1,0-0.1,0-0.2h1.5c0,0.1,0,0.1,0.1,0.2
				C29.5,361.5,26.8,377.6,14.8,388.2z"/>
		</g>
		<g>
			<path class="st1" d="M122.6,348.7c-1.1,13.9,2.3,27.2,9.7,38.7c0,1,0.1,2,0.1,2.9c-8.6-12.2-12.6-26.7-11.4-41.6
				c0-0.1,0-0.2,0.1-0.3h1.5C122.6,348.6,122.6,348.6,122.6,348.7z"/>
		</g>
		<g>
			<g>
				<path class="st2" d="M94.2,150.5c2.8,5.1,6.1,9.8,9.7,14.4c-0.8,1.9-0.9,4.1,0.1,6.7c2.2,5.8,4.3,11.6,6.6,17.3
					c-1.1,2-1.4,4.4-0.4,7.3c0.8,2.4,1.7,4.8,2.7,7.1L6.4,212.8L17,153.1c0,0,12.6-8.4,34.9-7.3c0-11.2,2.3-31.6,2.3-31.6l20.4,10.4
					v20c0,0,8.1-1,18.3,1.3C92.9,147.4,93.3,148.9,94.2,150.5z"/>
			</g>
		</g>
		<g>
			<g>
				<path class="st3" d="M121.9,200.4c0,0,11.2,129.7,12.8,154c-62.3,21.6-123-3.9-123-3.9l3.2-150.2"/>
			</g>
		</g>
		<g>
			<g>
				<path class="st4" d="M98,147.4c24.4,7.3,38,35,45.2,59.1c-8.9,1.9-17.6,4.4-26.1,7.5c-6.2-16.8-12.3-33.6-18.5-50.4"/>
			</g>
		</g>
		<g>
			<g>
				<path class="st3" d="M6.4,212.8L17,153.1c0,0,11.2-7.4,31.1-7.4c0.8,2.6,1.9,5.1,3.5,7.4c2.8,3.8,7.2,6.6,11.9,6.6
					c4.4-0.1,8.5-2.7,10.9-6.4c1.6-2.6,2.4-5.6,2.5-8.7c4.3-0.2,13.8-0.1,23.8,3.9c4.3,6.6,7.5,13.9,9.9,21.5
					c3.4,10.7,5,21.9,6.4,33.1L6.4,212.8z"/>
			</g>
		</g>
		<g class="st5">
			<g>
				<g>
					<path class="st6" d="M74.6,138.1c-7.6,0-15.1-0.9-22.3-3.2c0.7-10.1,1.9-20.7,1.9-20.7l20.4,10.4V138.1z"/>
				</g>
			</g>
		</g>
		<g>
			<g>
				<path class="st7" d="M43.5,38.3c3.6,14.2,0.9,30-7.2,42.1c-0.3,0.5-0.6,0.9-1.1,1.2c-0.6,0.3-1.4,0.2-2,0
					c-2.4-0.5-4.7-1-7.1-1.5c-0.7-0.1-1.4-0.3-2-0.7c-0.8-0.6-1.1-1.6-1.4-2.5C19.2,65.7,20.6,53.4,23,42c0.6-2.8,1.5-5.9,4-7.1
					c-2.6-5.1-1.5-7.8,1.2-12.3c5.4-9,16.3-12.5,25.4-15.7c8.1-2.8,16.5-4.6,25-5.4C85.3,0.9,92.3,0.1,99.1,0
					c9.4-0.2,25.4,0.3,26.9,12.8c0.4,3.7-0.9,7.6-3.5,10.2c4.2,1.2,9.7,3.7,11.1,8.3c1.4,4.7-0.7,10.4-5.1,12.4
					c4.8,4.8,4.4,13.7-0.7,18.2c2.4,3.1,1.9,8-0.8,10.9s-7.1,3.8-10.7,2.5"/>
			</g>
		</g>
		<g>
			<path class="st2" d="M29.3,77.9l1.3-17.3c1.9-24.7,23.4-43.2,48-41.3c24.7,1.9,43.2,23.4,41.3,48L118,92.4
				c-1.5,20.4-19.3,35.7-39.7,34.2l-7.7-0.6C46,124.1,27.5,102.6,29.3,77.9z"/>
		</g>
		<g>
			<g>
				<path class="st7" d="M113.4,26.1c-3.7,3.6-8.7,5.3-13.6,6.7c-19,5.5-39.1,7.8-58.6,4.7c-2.1-0.3-4.3-0.8-6-2.1
					c3.5-8.1,10.9-14.1,19.1-17.2s17.2-3.7,26-3.4c11.6,0.4,23.8,2.8,32.2,10.8"/>
			</g>
		</g>
		<g>
			<g>
				<path class="st7" d="M43.8,30.1c2.5,7.8,2,16.2,0,24.1s-5.4,15.3-8.9,22.7c-2.8-1.4-5.5-2.7-8.3-4.1c-0.7-0.3-1.4-0.7-1.9-1.3
					c-0.6-0.8-0.7-1.9-0.6-2.9c0.1-5.9,1.5-11.7,3-17.4c1-3.8,2-7.6,4-10.9c2.6-4.3,6.8-7.5,11.5-8.9"/>
			</g>
		</g>
		<g>
			<g>
				
					<ellipse transform="matrix(0.7458 -0.6662 0.6662 0.7458 -48.5154 38.2298)" class="st2" cx="25.8" cy="82.7" rx="11.1" ry="16"/>
			</g>
		</g>
		<g>
			<g>
				<g>
					<g>
						<path class="st8" d="M80.1,94.3l2.6,0.2c1.6,0.1,3.3-0.5,4.5-1.6s1.9-2.7,1.9-4.4L89,59.9c0-0.5-0.4-0.9-0.9-0.9
							s-0.9,0.4-0.9,0.9l0.1,28.6c0,1.1-0.5,2.2-1.3,3s-1.9,1.2-3.1,1.1l-2.6-0.2c-0.5,0-1,0.3-1,0.9S79.5,94.2,80.1,94.3z"/>
					</g>
				</g>
			</g>
			<g>
				<g>
					<g>
						
							<ellipse transform="matrix(7.493068e-02 -0.9972 0.9972 7.493068e-02 16.6858 171.9677)" class="st8" cx="101" cy="77" rx="5.5" ry="3.4"/>
					</g>
				</g>
			</g>
			<g>
				<g>
					<g>
						
							<ellipse transform="matrix(7.493068e-02 -0.9972 0.9972 7.493068e-02 -8.1668 139.2418)" class="st8" cx="71" cy="74" rx="5.5" ry="3.4"/>
					</g>
				</g>
			</g>
			<g>
				<g>
					<g>
						<g>
							<path class="st8" d="M83.9,108.3c-5.9,2.7-12.2-0.2-14.3-6.3c-0.4-1.1,1.5-1.5,1.8-0.4c1.6,4.9,6.9,7.1,11.6,5
								C84.1,106.1,85,107.8,83.9,108.3L83.9,108.3z"/>
						</g>
					</g>
				</g>
			</g>
			<g>
				<g>
					<g>
						<g>
							<path class="st8" d="M75.4,56.7c-4.4-0.9-8.5-0.3-12.4,1.9c-2.1,1.2-3.7-2.2-1.6-3.4c4.4-2.5,9.4-3.3,14.3-2.3
								C78.1,53.4,77.8,57.2,75.4,56.7L75.4,56.7z"/>
						</g>
					</g>
				</g>
			</g>
			<g>
				<g>
					<g>
						<g>
							<path class="st8" d="M110,64.5c-2.5-3.2-6-5.1-10.1-5.3c-2.4-0.1-2.1-3.9,0.3-3.7c5,0.3,9.6,2.6,12.6,6.6
								C114.3,63.9,111.5,66.4,110,64.5L110,64.5z"/>
						</g>
					</g>
				</g>
			</g>
		</g>
		<g>
			<g>
				<path class="st9" d="M26.2,74.4c0.2,0.5,0.6,0.8,1.1,0.8c0.1,0,0.3,0,0.5-0.1l14.7-4.6c0,0.3-0.1,0.5-0.1,0.8
					c-0.8,11.2,7.2,20.9,18,21.7s20.2-7.6,21-18.8c0-0.2,0-0.4,0-0.6c1.6-1.5,3.1-2.2,4.5-2.1l0,0c2.2,0.2,3.7,2.2,3.7,2.3
					c0.1,0.1,0.2,0.2,0.3,0.3c0,0.3-0.1,0.5-0.1,0.8C89,86.1,96.7,95.8,107,96.6c10.3,0.8,19.4-7.7,20.2-18.8s-6.9-20.9-17.2-21.7
					c-9.1-0.7-17.3,5.9-19.6,15.1c-0.9-0.9-2.4-1.9-4.3-2c-1.6-0.1-3.3,0.4-4.9,1.4c-1-9.5-8.4-17.3-17.9-18
					c-9.6-0.7-18.1,5.9-20.4,15.3l-15.9,5C26.4,73,26,73.7,26.2,74.4z M92.3,75.1c0.7-9.8,8.6-17.3,17.6-16.6s15.7,9.2,15,19.1
					c-0.7,9.8-8.6,17.3-17.6,16.6C98.2,93.5,91.5,84.9,92.3,75.1z M44.8,71.5c0.7-9.8,9-17.3,18.4-16.5c9.4,0.7,16.5,9.3,15.7,19.1
					c-0.7,9.8-9,17.3-18.4,16.5C51.1,89.9,44.1,81.4,44.8,71.5z"/>
			</g>
		</g>
		<g>
			<g>
				<path class="st4" d="M3.5,187.1c0,0,2.9-38.2,25.2-38.8c3.6,2.5,6.6,7.4,7.6,11.2c1.9,7,0.4,14.3-1.4,21.6
					c0,0.1-0.1,0.1-0.1,0.1s-15.7,60.6,44.1,96.6c-1.8,4.4-18.6,32.4-20.4,36.8c-0.6,1.4,14.3-26.8,13.7-25.3
					C53.7,282.9,2.1,251.9,3.5,187.1z"/>
			</g>
		</g>
		<g>
			<g>
				<g>
					<path class="st10" d="M117.5,219.3h9.4h41.2l-9.3,89.1c-0.6,5.9-5.6,10.3-11.5,10.3h-20.4h-9.4H97.1c-5.9,0-10.9-4.5-11.5-10.3
						l-9.3-89.1L117.5,219.3L117.5,219.3z"/>
				</g>
			</g>
			<g>
				<g>
					<g>
						<path class="st11" d="M128.1,230.4c10.7-26.4,12.3-56.3,4.4-83.7c-0.8-2.7-2.9-6.1-5.5-5.1c-1.1,0.4-1.8,1.5-2.4,2.6
							c-7.5,13.2-10.7,28.5-11,43.7s2.2,30.3,5.7,45.1"/>
					</g>
				</g>
				<g>
					<g>
						<path class="st12" d="M128.2,229c3.3-23.8,13.2-46.7,28.2-65.5c1.4-1.7,3.9-3.6,5.5-2.1c0.6,0.6,0.8,1.4,1,2.2
							c1.2,5.9,0.7,12.1-0.5,18c-4,19.8-15.3,38-31.4,50.2"/>
					</g>
				</g>
				<g>
					<g>
						<path class="st13" d="M141.9,223.4c4.5-8.1,10.3-15.6,17.7-21.3c3.9-2.9,27.9-17.5,23.7-4.2c-2.1,6.9-10.5,13.5-16.1,17.6
							c-8,5.9-17.4,9.7-27.1,11.8"/>
					</g>
				</g>
				<g>
					<g>
						<path class="st12" d="M121.2,229c-3.3-23.8-13.2-46.7-28.2-65.5c-1.4-1.7-3.9-3.6-5.5-2.1c-0.6,0.6-0.8,1.4-1,2.2
							c-1.2,5.9-0.7,12.1,0.5,18c4,19.8,15.3,38,31.4,50.2"/>
					</g>
				</g>
				<g>
					<g>
						<path class="st13" d="M109.4,223.4c-4.5-8.1-10.3-15.6-17.7-21.3c-3.9-2.9-27.9-17.5-23.7-4.2c2.1,6.9,10.5,13.5,16.1,17.6
							c8,5.9,17.4,9.7,27.1,11.8"/>
					</g>
				</g>
			</g>
			<g>
				<g>
					<path class="st14" d="M78.7,217.8h87c4,0,7.2,3.4,6.8,7.2l-1.3,12.6c-0.3,3.4-3.3,5.9-6.8,5.9h-84c-3.4,0-6.3-2.5-6.8-5.8
						l-1.7-12.6C71.4,221.2,74.6,217.8,78.7,217.8z"/>
				</g>
			</g>
		</g>
		<g>
			<g>
				<path class="st2" d="M79.3,277.3c7.4,2,15.2,0.8,22.6-0.7c1-0.2,2.4-0.1,2.6,0.9c0.1,0.8-0.6,1.3-1.3,1.7
					c-2.7,1.6-5.6,2.9-8.5,4c4.5,1.7,8.8,4,12.8,6.8c0.6,0.4,1.3,1.1,1.2,1.8c-0.2,1-1.6,1.2-2.6,1c-3.9-0.6-7.7-2-11.1-4.1
					c2.7,2.2,5.2,4.5,7.5,7c1.5,1.7,3.1,3.5,3.5,5.8c0,0.3,0.1,0.6-0.1,0.8c-0.1,0.2-0.4,0.3-0.6,0.4c-1.4,0.5-3-0.2-4.3-1
					c-3.5-2.1-6.4-4.9-9.4-7.7c3.1,4.4,6.3,9.1,6.4,14.4c0,0.6-0.1,1.4-0.7,1.6c-0.7,0.3-1.4-0.3-1.9-0.9c-3.1-3.8-5.8-8-7.9-12.4
					c0.3,2.1,0.7,4.3,0.9,6.4c0.3,2.5,0.5,5.1-0.6,7.4c-0.2,0.4-0.5,0.9-1,1.1c-0.7,0.3-1.6,0-2.1-0.6s-0.7-1.4-0.9-2.2
					c-0.9-3.7-1.5-7.5-1.9-11.3c-0.1-0.6-0.1-1.2-0.4-1.7c-0.4-0.6-1.1-1-1.7-1.4c-2.7-1.5-5.3-3.2-7.7-5.1"/>
			</g>
		</g>
		<g>
			<g>
				<path class="st2" d="M153.3,295.6c4.8,0.5,20.7,3.9,21.8-4c0.4-2.8-1.4-7.9-2.6-10.5c-3.1-6.7-9.2-11.8-15.5-15.4
					c-0.9-0.5-2.2-1-2.9-0.2c-0.4,0.5-0.4,1.2-0.2,1.8c0.3,1.2,1.1,2.3,1.9,3.2c2.5,3.2,5.1,6.4,7.6,9.6c-3.8-3.7-9-6-14.3-6.1
					c-1.1,0-2.3,0.1-2.8,1.1c-0.8,1.5,1,3,2.6,3.7c4.2,1.9,8.3,3.8,12.5,5.7c-4.9-1.3-10-1.6-15-1.1c-1.4,0.2-3.2,0.8-3.3,2.2
					c-0.1,1.6,1.9,2.4,3.5,2.6c4.9,0.7,9.8,1.2,14.8,1.3c-3.2,0.1-6.4,1-9.3,2.5c-0.6,0.3-1.3,0.8-1.4,1.5
					C150.3,294.8,152,295.5,153.3,295.6z"/>
			</g>
		</g>
		<g>
			<g>
				<polyline class="st4" points="127.5,627.8 162.6,646.9 108,641.8 107,628.5 				"/>
			</g>
		</g>
		<g>
			<g>
				<polyline class="st4" points="21,631.8 57.2,650 0,646.9 1.5,631.8 				"/>
			</g>
		</g>
	</g>
	<path class="st15" d="M82.2,99.3c0,0,14.4-10,21.7,9.8L82.2,99.3z"/>
	<path class="st15" d="M79.3,99.1c0,0-6.6-16.2-23.6-3.6L79.3,99.1z"/>
	<g>
		<g>
			<path class="st16" d="M104.7,42.6c-1.7-1.3-3.3-2.5-5.5-1.7c-0.7,0.3-1.3,0.8-1.9,1.3c-0.8,0.8-1.6,1.5-2.5,2.2
				c-1.9,0.6-3.6,0.3-5-0.8c-2-0.7-2.8-1.3-4.9-0.8c-3.8,0.9-2.7,2-7.9,0c-1.3-0.5-0.7-0.7-2.1-1c-0.5-0.1-0.8,0.7-0.2,0.8
				c2.5,0.6,3.4,2.9,6,2.7c0.8-0.1,1.6-0.5,2.3-0.8c3-1.2,4.6-0.4,7.5,0.5c1.5,0.5,2.2,1.1,3.8,0.6c3.7-1.2,5-5.8,9.9-2.2
				C104.7,43.7,105.2,43,104.7,42.6L104.7,42.6z"/>
		</g>
	</g>
	<g>
		<g>
			<path class="st16" d="M103.8,47.4c-1.7-1.3-3.3-2.5-5.5-1.7C97.6,46,97,46.5,96.4,47c-0.8,0.8-1.6,1.5-2.5,2.2
				c-1.9,0.6-3.6,0.3-5-0.8c-2-0.7-2.8-1.3-4.9-0.8c-3.8,0.9-2.7,2-7.9,0c-1.3-0.5-0.7-0.7-2.1-1c-0.5-0.1-0.8,0.7-0.2,0.8
				c2.5,0.6,3.4,2.9,6,2.7c0.8-0.1,1.6-0.5,2.3-0.8c3-1.2,4.6-0.4,7.5,0.5c1.5,0.5,2.2,1.1,3.8,0.6c3.7-1.2,5-5.8,9.9-2.2
				C103.8,48.5,104.2,47.7,103.8,47.4L103.8,47.4z"/>
		</g>
	</g>
</g>
</svg>
