<?xml version="1.0" encoding="utf-8"?>
<!-- Generator: Adobe Illustrator 21.0.2, SVG Export Plug-In . SVG Version: 6.00 Build 0)  -->
<svg version="1.1" id="Layer_1" xmlns="http://www.w3.org/2000/svg" xmlns:xlink="http://www.w3.org/1999/xlink" x="0px" y="0px"
	 viewBox="0 0 183.3 436.5" style="enable-background:new 0 0 183.3 436.5;" xml:space="preserve">
<style type="text/css">
	.st0{fill:#FF8A64;}
	.st1{opacity:0.22;}
	.st2{fill:#AD4259;}
	.st3{fill:#484F6B;}
	.st4{fill:#C65739;}
	.st5{fill:#FC6262;}
	.st6{fill:#434954;}
	.st7{fill:#292C33;}
	.st8{fill:#BDBFE2;}
</style>
<g>
	<g>
		<g>
			<path class="st0" d="M99.9,278.1c0,0-16.8,56.1-21.9,61.2c-5.1,5.1-66.9,2.5-66.9,2.5L5,370l-4.6-35.8l55.4-9.7
				c1.3-0.2,2.4-1.2,2.7-2.6l12.8-54.1"/>
		</g>
	</g>
	<g>
		<g>
			<path class="st0" d="M153.6,277.6c0,0-5.1,100.9-20.7,142.5c13.4,9.7,16,10.6,21.2,15.8c-27.4-7.1-33.4-10.6-33.4-10.6
				s12.5-100.7,0-150.9"/>
		</g>
	</g>
	<g class="st1">
		<g>
			<g>
				<path class="st0" d="M71.3,267.8l28.6,10.3c0,0-2.6,8.7-6.1,19.6c-9.5-1.7-18.8-4.1-27.9-7.1L71.3,267.8z"/>
			</g>
		</g>
	</g>
	<g class="st1">
		<g>
			<g>
				<path class="st0" d="M153.6,277.6c0,0-0.4,8.7-1.4,22c-9.1,1-18.2,1.4-27.3,1.2c-0.9-9.6-2.2-18.6-4.2-26.3L153.6,277.6z"/>
			</g>
		</g>
	</g>
	<g>
		<g>
			<path class="st2" d="M81.9,5.7c-9,5.8-10.9,17.9-11.6,27.7c-0.9,11.4-6.3,23.1,0.1,34.1c6.8,11.6,17.3,17.1,30.7,17.7
				c10.3,0.4,22.2,0,30.3-7.3c4.5-4,6.8-9.8,7.6-15.7c0.8-5.5-1-10.9-1.1-16.4c-0.1-4.6,1.2-8.4,1.9-12.8c1.3-9.1-2.2-17.8-8.3-24.2
				c-6.4-6.8-16.5-8-25.8-8.8C97.7-0.5,88.8,1.4,81.9,5.7z"/>
		</g>
	</g>
	<g>
		<g>
			<path class="st2" d="M175,145.7c-6.2,3.1-11.6,1.1-17.3-1.8c-6-3.1-11.4-0.6-17.8,0c-8.5,0.8-17.8-0.3-24.8-5.6
				c-6.9-5.3-9.7-13.8-9.8-22.3c-0.1-6.6,2.4-12.5-1.2-18.5c-3.3-5.5-5.9-9.8-0.7-15.3c3.4-3.6,8.3-5.7,13.3-5.6
				c5.8,0.1,9.7,3,13.7,6.7c4.2,3.9,8.9,5.7,14.6,6.6c6.8,1.1,14.3,1.7,19.1,6.6c4.6,4.7,5.3,11.8,5.8,18.3c0.1,0.9,0.2,1.9,0.7,2.7
				c0.9,1.5,2.9,2,4.6,2.7c4.9,2,8.3,7.3,8.2,12.7C183.2,138.2,179.8,143.3,175,145.7z"/>
		</g>
	</g>
	<g>
		<g>
			<path class="st0" d="M103.4,72.5l-0.5,12.3c0,0,17.8-5.1,24.6,8.2c5.2,10.4,10.8,20.6,10.8,20.6L75,129.2c0,0-9.6-22.9-8.1-30.7
				C68.6,90.1,88.6,86,88.6,86l2.4-18.2"/>
		</g>
	</g>
	<g class="st1">
		<g>
			<g>
				<path class="st0" d="M90.9,67.8l12.5,4.7l-0.4,8.3c-4.6-0.2-9.1-1-13.5-2.4L90.9,67.8z"/>
			</g>
		</g>
	</g>
	<g>
		<path class="st0" d="M74.2,41.9l0.9-8.4c1.7-16.6,16.5-28.6,33.1-26.9h0c16.6,1.7,28.6,16.5,26.9,33.1l-1.4,14
			c-1.4,13.5-13.4,23.3-26.9,21.9l-5.6-0.6C84.6,73.3,72.5,58.5,74.2,41.9z"/>
	</g>
	<g>
		<g>
			<path class="st3" d="M82,87.8c4.5,7.8,6.9,16.4,7.3,25.5c0.1,1.5-2.3,1.5-2.4,0c-0.4-8.9-2.9-17.2-7.3-24.8
				C80.6,88.3,81.3,88,82,87.8z"/>
		</g>
	</g>
	<g>
		<g>
			<path class="st3" d="M137.2,143.7l39,132.5c0,0-45.4,23.6-123.2,0C68.3,227,88.5,155.3,88.5,155.3"/>
		</g>
	</g>
	<g>
		<g>
			<path class="st3" d="M120.5,103.6c0.8-0.7,2-0.6,2.8,0.1c2.2,2.2,6.9,6.8,11,10.9c5.6,5.6,3,20.5-0.5,24S88,152.4,88,152.4
				l-10.6-10l-3.3-17.9l13.2-15.7c0.5-0.6,1.4-0.9,2.1-0.6c2.8,0.9,10.1,3.2,18.7,6.9c1,0.4,2.1,0.1,2.7-0.8
				C114.1,109,118.3,105.3,120.5,103.6z"/>
		</g>
	</g>
	<g>
		<g>
			<path class="st3" d="M122.6,109.5c-1.3-9.2-4.6-17.8-9.6-25.5c1,0.1,2,0.2,3.1,0.5c4.6,7.5,7.5,15.6,8.8,24.4
				C125.1,110.4,122.8,111,122.6,109.5z"/>
		</g>
	</g>
	<g>
		<g>
			<g>
				<g>
					
						<ellipse transform="matrix(0.1399 -0.9902 0.9902 0.1399 57.7967 165.9624)" class="st4" cx="124.4" cy="49.7" rx="3.6" ry="2.1"/>
				</g>
			</g>
		</g>
		<g>
			<g>
				<g>
					
						<ellipse transform="matrix(0.1399 -0.9902 0.9902 0.1399 42.9005 141.659)" class="st4" cx="103" cy="46.1" rx="3.6" ry="2.1"/>
				</g>
			</g>
		</g>
		<g>
			<g>
				<g>
					<g>
						<path class="st4" d="M115.7,58.3c-1.4,1.8-4.4,1.7-6.3,1c-2-0.7-3.3-2.7-3.4-4.8c-0.1-0.8,1.1-0.7,1.2,0
							c0.2,1.9,1.4,3.2,3.1,3.8c1.4,0.5,3.7,0.4,4.7-0.9C115.3,56.8,116.2,57.7,115.7,58.3L115.7,58.3z"/>
					</g>
				</g>
			</g>
		</g>
		<g>
			<g>
				<g>
					<g>
						<path class="st4" d="M130.3,40.2c-1-2-2.7-3.5-4.9-4c-1.5-0.4-0.8-2.6,0.6-2.3c2.8,0.7,5.1,2.5,6.3,5.1
							C133,40.3,131,41.5,130.3,40.2L130.3,40.2z"/>
					</g>
				</g>
			</g>
		</g>
		<g>
			<g>
				<g>
					<g>
						<path class="st4" d="M108.5,34.3c-3.1-0.7-6.1-0.2-8.8,1.4c-1.3,0.7-2.5-1.3-1.2-2c3.3-1.9,6.9-2.4,10.6-1.6
							C110.6,32.4,110,34.7,108.5,34.3L108.5,34.3z"/>
					</g>
				</g>
			</g>
		</g>
		<g>
			<g>
				<g>
					<path class="st4" d="M113.1,54.3c0.7,0,1.5-0.2,2.1-0.6c0.9-0.6,1.6-1.5,1.8-2.6l3-14.3c0.1-0.3-0.1-0.6-0.5-0.7
						c-0.3-0.1-0.6,0.1-0.7,0.5l-3,14.3c-0.2,0.8-0.6,1.4-1.3,1.8s-1.5,0.5-2.2,0.3l-1.3-0.3c-0.3-0.1-0.6,0.1-0.7,0.4
						c-0.1,0.3,0.1,0.6,0.4,0.7l1.3,0.3C112.5,54.3,112.8,54.3,113.1,54.3z"/>
				</g>
			</g>
		</g>
	</g>
	<g>
		<g>
			<path class="st2" d="M135.5,43.4c0-3.1,9-24.6-13.8-37.3"/>
		</g>
	</g>
	<g>
		<g>
			<path class="st5" d="M121.1,7.2"/>
		</g>
	</g>
	<g>
		<g>
			<path class="st2" d="M125.7,6.9c0,0-14.9,34.2-54.8,31.5C73.1,22.8,85.5-8.1,125.7,6.9z"/>
		</g>
	</g>
	<g>
		<g>
			<g>
				<path class="st6" d="M133.3,148.1l22.6,2.7c2.6,0.3,5-1.6,5.3-4.2L166,107c0.3-2.6-1.6-5-4.2-5.3L139.2,99
					c-2.6-0.3-5,1.6-5.3,4.2l-4.8,39.6C128.9,145.4,130.7,147.8,133.3,148.1z"/>
			</g>
		</g>
		<g>
			<g>
				<path class="st7" d="M134.2,148.3l23.7,2.9c1.4,0.2,2.7-0.8,2.8-2.2l5-41.2c0.2-1.4-0.8-2.7-2.2-2.8l-23.7-2.9
					c-1.4-0.2-2.7,0.8-2.8,2.2l-5,41.2C131.8,146.8,132.8,148.1,134.2,148.3z"/>
			</g>
		</g>
	</g>
	<g>
		<g>
			<path class="st0" d="M81.5,98.5c0,0,0.3,32.2,7.9,44.5c0,0,13,4.1,45.7-6.5c2.1,5.3,2.4,9.1,2.4,9.1s-33.2,23.5-58.3,15.6
				c-11-7.3-21.4-45.7-11.2-65.3"/>
		</g>
	</g>
	<g>
		<g>
			<path class="st0" d="M134.4,136.8c4.1-2.2,6.3-7.8,9.3-11.5c0.3-0.4,1.6-1.9,2.3-1.5c0.4,0.2,0.3,1.2,0.2,1.5
				c-0.1,0.8-0.4,1.6-0.8,2.4c-0.7,1.5-1.6,3.1-2.7,4.3c1.1-1.2,2.2-2.3,3.5-3.3c0.8-0.7,2.8-2.2,3.9-1.9c0.2,0.1,0.4,0.2,0.5,0.4
				c0.2,0.5-0.7,1.5-0.9,1.9c-0.4,0.6-0.9,1.2-1.4,1.7c-1,1.1-2.1,2-3.3,3c1.6-1.3,5.7-1.7,7.7-1.6c0.7,0,1.5,0.4,1.4,1.1
				c-2.3,2-5.1,2.2-8,3.1c1.9,0.1,3.7,1.3,5.5,2c0.3,0.1,0.7,0.3,0.9,0.5s0.4,0.7,0.2,1c-2.4,0.8-5.4,0.1-7.6-1
				c1.3,1.7,2.1,3.6,2.9,5.6c0.1,0.3,0.2,0.6,0.2,0.9s-0.2,0.6-0.4,0.7c-0.4,0.1-0.7-0.1-1-0.4c-1.1-1-2.2-1.9-3.3-2.9
				c-0.1-0.1-0.2-0.2-0.4-0.2c-0.2,0-0.3,0-0.5,0.1c-1.6,0.7-3.4,1.7-4.6,2.9c-1.3,1.2-3.2,2-4.7,3"/>
		</g>
	</g>
	<g>
		<g>
			<path class="st0" d="M155.2,125.8c2.5,1,5.2,1.7,7.9,2.1c2.5,0.3,3.5-0.7,3.8-3.1c0.4-2.6-0.3-5.7-1.1-8.1
				c-1.2-3.6-3.6-6.9-7.1-8.6c-0.5,0.7-0.1,1.7,0.3,2.6c0.9,1.8,1.9,3.7,2.8,5.5c-1.6-2-3.9-3.6-6.5-4.4c-0.8-0.3-2-0.3-2.3,0.5
				c-0.2,0.4,0.1,0.9,0.4,1.3c1.7,2.5,3.8,4.7,6.3,6.5c-1.7-1.1-3.5-1.9-5.4-2.5c-0.5-0.2-1-0.3-1.5-0.2c-0.5,0.1-1,0.5-1,1
				c0,0.3,0.2,0.6,0.3,0.8c1.3,1.9,3.4,3.4,5.7,4.1c-0.9,0-1.7-0.3-2.6-0.2c-0.9,0.1-1.7,0.7-1.6,1.5
				C153.8,125.1,154.5,125.5,155.2,125.8z"/>
		</g>
	</g>
	<g>
		<g>
			<g>
				<path class="st0" d="M142.7,135.4c-0.8,0-0.8-1.2,0-1.2S143.4,135.4,142.7,135.4L142.7,135.4z"/>
			</g>
		</g>
	</g>
	<g>
		<g>
			<path class="st3" d="M150.7,436.1c-5.5-1.1-11.4-2.6-16.8-4.4c-4.5-1.5-8.8-3.3-13.4-4.8c0-2.6,0.4-5.1,0.5-7.5
				c0-0.1,2.8,0.8,3,0.9c0.9,0.4,1.8,0.9,2.6,1.5c1.6,1.1,3.5,2.1,4.7,3.7c0.6-0.8,1.5-1.2,2.4-1.7c0.7-0.4,1.4-0.7,2.1-0.9
				c0.5-0.2,1.2-0.7,1.7-0.6c0.2,0,0.4,0.1,0.6,0.2c0.6,0.3,1.2,0.6,1.7,0.9c1.1,0.5,1.8,1.3,2.8,2c1.1,0.8,2.2,1.6,3.3,2.5
				c1.6,1.2,3.1,2.4,4.5,3.7c1.3,1.1,3.1,2.4,3.7,4c0.1,0.2,0.1,0.5,0.1,0.7C154.1,436.8,151.3,436.2,150.7,436.1z"/>
		</g>
	</g>
	<g>
		<g>
			<path class="st3" d="M0.2,333.2c2.3-0.3,4.5-0.2,6.7-0.5c-0.1,2.9-1.1,5.7-2.8,8c3,0.9,4.9,5.1,6.3,7.6c0.2,0.3,0.3,0.6,0.4,0.9
				c0,0.3,0,0.6-0.1,0.9c-1.2,5.5-2.4,10.8-3.7,16.2c-0.4,1.9-0.9,3.8-2.1,5.3c-1.5-5.7-2.5-11.5-3-17.4c-0.3-3.6-0.5-7.2-0.9-10.8
				C0.4,340-0.3,336.6,0.2,333.2z"/>
		</g>
	</g>
	<g>
		<g>
			<ellipse transform="matrix(0.7758 -0.6309 0.6309 0.7758 -11.664 54.0942)" class="st0" cx="70.3" cy="43.5" rx="6.8" ry="9.2"/>
		</g>
	</g>
	<g>
		<g>
			<path class="st8" d="M172.8,268.2c0.6-0.2,0.9-0.4,0.9-0.4l-0.1-0.2c0,0-0.3,0.1-0.9,0.4L172.8,268.2z"/>
		</g>
		<g>
			<path class="st8" d="M117.7,276.6c0.7,0,1.3,0,2,0l0,0.2c-0.7,0-1.3,0-2,0V276.6z M113.7,276.7l0-0.2c0.7,0,1.3,0,2,0l0,0.2
				C115.1,276.8,114.4,276.7,113.7,276.7z M121.7,276.5c0.7,0,1.3,0,2-0.1l0,0.2c-0.7,0-1.3,0-2,0.1L121.7,276.5z M109.7,276.6
				l0-0.2c0.7,0,1.3,0,2,0.1l0,0.2C111.1,276.7,110.4,276.6,109.7,276.6z M125.7,276.4c0.7,0,1.3-0.1,2-0.1l0,0.2
				c-0.7,0-1.3,0.1-2,0.1L125.7,276.4z M105.7,276.4l0-0.2c0.7,0,1.3,0.1,2,0.1l0,0.2C107.1,276.5,106.4,276.5,105.7,276.4z
				 M129.7,276.2c0.7,0,1.3-0.1,2-0.1l0,0.2c-0.7,0-1.3,0.1-2,0.1L129.7,276.2z M101.8,276.2l0-0.2c0.7,0,1.3,0.1,2,0.1l0,0.2
				C103.1,276.3,102.4,276.2,101.8,276.2z M133.7,275.9c0.7-0.1,1.3-0.1,2-0.2l0,0.2c-0.7,0.1-1.3,0.1-2,0.2L133.7,275.9z
				 M97.8,275.9l0-0.2c0.7,0.1,1.3,0.1,2,0.2l0,0.2C99.1,276,98.4,275.9,97.8,275.9z M137.7,275.5c0.7-0.1,1.3-0.1,2-0.2l0,0.2
				c-0.7,0.1-1.3,0.1-2,0.2L137.7,275.5z M93.8,275.5l0-0.2c0.7,0.1,1.3,0.1,2,0.2l0,0.2C95.1,275.6,94.5,275.5,93.8,275.5z
				 M141.7,275.1c0.7-0.1,1.3-0.2,2-0.3l0,0.2c-0.7,0.1-1.3,0.2-2,0.3L141.7,275.1z M89.8,275l0-0.2c0.7,0.1,1.3,0.2,2,0.2l0,0.2
				C91.1,275.1,90.5,275.1,89.8,275z M145.6,274.5c0.7-0.1,1.3-0.2,2-0.3l0,0.2c-0.6,0.1-1.3,0.2-2,0.3L145.6,274.5z M85.9,274.4
				l0-0.2c0.7,0.1,1.3,0.2,2,0.3l0,0.2C87.2,274.6,86.5,274.5,85.9,274.4z M81.9,273.8l0-0.2c0.7,0.1,1.3,0.2,2,0.3l0,0.2
				C83.2,274,82.6,273.9,81.9,273.8z M149.6,273.9c0.7-0.1,1.3-0.2,2-0.3l0,0.2c-0.6,0.1-1.3,0.2-2,0.3L149.6,273.9z M78,273.1
				l0-0.2c0.7,0.1,1.3,0.2,2,0.4l0,0.2C79.3,273.4,78.6,273.3,78,273.1z M153.5,273.2c0.7-0.1,1.3-0.3,2-0.4l0,0.2
				c-0.6,0.1-1.3,0.3-2,0.4L153.5,273.2z M74,272.4l0-0.2c0.7,0.1,1.3,0.3,2,0.4l0,0.2C75.3,272.6,74.7,272.5,74,272.4z
				 M157.4,272.4c0.7-0.1,1.3-0.3,1.9-0.4l0,0.2c-0.6,0.1-1.3,0.3-2,0.4L157.4,272.4z M70.1,271.6l0-0.2c0.7,0.1,1.3,0.3,2,0.4
				l0,0.2C71.4,271.8,70.8,271.7,70.1,271.6z M161.3,271.5c0.7-0.2,1.3-0.3,1.9-0.5l0.1,0.2c-0.6,0.2-1.3,0.3-1.9,0.5L161.3,271.5z
				 M66.2,270.7l0-0.2c0.7,0.2,1.3,0.3,1.9,0.5l0,0.2C67.5,271,66.9,270.8,66.2,270.7z M165.2,270.5c0.7-0.2,1.3-0.4,1.9-0.6
				l0.1,0.2c-0.6,0.2-1.3,0.4-1.9,0.6L165.2,270.5z M62.3,269.7l0-0.2c0.6,0.2,1.3,0.3,1.9,0.5l0,0.2C63.6,270,63,269.9,62.3,269.7z
				 M169,269.3c0.7-0.2,1.3-0.4,1.9-0.6l0.1,0.2c-0.6,0.2-1.2,0.4-1.9,0.6L169,269.3z M58.5,268.7l0.1-0.2c0.6,0.2,1.3,0.3,1.9,0.5
				l-0.1,0.2C59.8,269,59.1,268.9,58.5,268.7z"/>
		</g>
		<g>
			<path class="st8" d="M56.5,268.1l0.1-0.2c-0.3-0.1-0.6-0.2-1-0.3l-0.1,0.2C55.9,268,56.2,268.1,56.5,268.1z"/>
		</g>
	</g>
</g>
</svg>
