<?xml version="1.0" encoding="UTF-8"?>
<svg width="144px" height="141px" viewBox="0 0 144 141" version="1.1" xmlns="http://www.w3.org/2000/svg" xmlns:xlink="http://www.w3.org/1999/xlink">
    <!-- Generator: Sketch 52.6 (67491) - http://www.bohemiancoding.com/sketch -->
    <title>Artboard</title>
    <desc>Created with Sketch.</desc>
    <g id="Artboard" stroke="none" stroke-width="1" fill="none" fill-rule="evenodd">
        <path d="M32.6487714,87 L7.24877136,87 L7.24877136,81.25 L22.9987714,59.9 L7.24877136,59.9 L7.24877136,53.65 L32.2987714,53.65 L32.2987714,59.35 L16.5487714,80.75 L32.6487714,80.75 L32.6487714,87 Z M59.4191795,83.95 C57.0858345,86.3833455 53.9858655,87.6 50.1191795,87.6 C46.2524935,87.6 43.1608578,86.3750122 40.8441795,83.925 C38.5275013,81.4749877 37.3691795,78.4666845 37.3691795,74.9 C37.3691795,71.3333155 38.5275013,68.3333455 40.8441795,65.9 C43.1608578,63.4666545 46.2524935,62.25 50.1191795,62.25 C53.9858655,62.25 57.0858345,63.4666545 59.4191795,65.9 C61.7525245,68.3333455 62.9191795,71.3333155 62.9191795,74.9 C62.9191795,78.4666845 61.7525245,81.483321 59.4191795,83.95 Z M45.6191795,79.95 C46.719185,81.28334 48.21917,81.95 50.1191795,81.95 C52.019189,81.95 53.5275073,81.2750068 54.6441795,79.925 C55.7608518,78.5749933 56.3191795,76.90001 56.3191795,74.9 C56.3191795,72.9333235 55.7608518,71.2750067 54.6441795,69.925 C53.5275073,68.5749933 52.019189,67.9 50.1191795,67.9 C48.21917,67.9 46.719185,68.5749933 45.6191795,69.925 C44.519174,71.2750067 43.9691795,72.9333235 43.9691795,74.9 C43.9691795,76.90001 44.519174,78.5833265 45.6191795,79.95 Z M89.1395877,83.95 C86.8062427,86.3833455 83.7062737,87.6 79.8395877,87.6 C75.9729017,87.6 72.8812659,86.3750122 70.5645877,83.925 C68.2479094,81.4749877 67.0895877,78.4666845 67.0895877,74.9 C67.0895877,71.3333155 68.2479094,68.3333455 70.5645877,65.9 C72.8812659,63.4666545 75.9729017,62.25 79.8395877,62.25 C83.7062737,62.25 86.8062427,63.4666545 89.1395877,65.9 C91.4729327,68.3333455 92.6395877,71.3333155 92.6395877,74.9 C92.6395877,78.4666845 91.4729327,81.483321 89.1395877,83.95 Z M75.3395877,79.95 C76.4395932,81.28334 77.9395782,81.95 79.8395877,81.95 C81.7395972,81.95 83.2479154,81.2750068 84.3645877,79.925 C85.4812599,78.5749933 86.0395877,76.90001 86.0395877,74.9 C86.0395877,72.9333235 85.4812599,71.2750067 84.3645877,69.925 C83.2479154,68.5749933 81.7395972,67.9 79.8395877,67.9 C77.9395782,67.9 76.4395932,68.5749933 75.3395877,69.925 C74.2395822,71.2750067 73.6895877,72.9333235 73.6895877,74.9 C73.6895877,76.90001 74.2395822,78.5833265 75.3395877,79.95 Z M134.709996,87 L128.309996,87 L128.309996,71.75 C128.309996,69.1833205 127.110008,67.9 124.709996,67.9 C123.676657,67.9 122.718334,68.1833305 121.834996,68.75 C120.951658,69.3166695 120.243332,69.966663 119.709996,70.7 L119.709996,87 L113.309996,87 L113.309996,71.75 C113.309996,69.1833205 112.110008,67.9 109.709996,67.9 C108.709991,67.9 107.76,68.1833305 106.859996,68.75 C105.959991,69.3166695 105.243332,69.9833295 104.709996,70.75 L104.709996,87 L98.3599958,87 L98.3599958,62.85 L104.709996,62.85 L104.709996,66 C105.309999,65.133329 106.359988,64.2916707 107.859996,63.475 C109.360003,62.6583292 110.943321,62.25 112.609996,62.25 C116.110013,62.25 118.343324,63.716652 119.309996,66.65 C120.076666,65.449994 121.218322,64.416671 122.734996,63.55 C124.25167,62.683329 125.876654,62.25 127.609996,62.25 C129.876674,62.25 131.626656,62.8583273 132.859996,64.075 C134.093335,65.2916728 134.709996,67.1166545 134.709996,69.55 L134.709996,87 Z" id="Zoom" fill="#000000"></path>
        <polygon id="Path-2" fill="#000000" fill-rule="nonzero" points="28 3 28 31.5 25 31.5 25 0 56.5 0 56.5 3"></polygon>
        <polygon id="Path-2-Copy" fill="#000000" fill-rule="nonzero" transform="translate(103.250000, 125.250000) rotate(-180.000000) translate(-103.250000, -125.250000) " points="90.5 112.5 90.5 141 87.5 141 87.5 109.5 119 109.5 119 112.5"></polygon>
    </g>
</svg>