<?xml version="1.0" encoding="UTF-8"?>
<svg width="108px" height="104px" viewBox="0 0 108 104" version="1.1" xmlns="http://www.w3.org/2000/svg" xmlns:xlink="http://www.w3.org/1999/xlink">
    <!-- Generator: Sketch 63.1 (92452) - https://sketch.com -->
    <title>stethoscope</title>
    <desc>Created with Sketch.</desc>
    <g id="Page-1" stroke="none" stroke-width="1" fill="none" fill-rule="evenodd">
        <g id="stethoscope" fill="#1ADD21" fill-rule="nonzero">
            <path d="M95.8674268,9.03764411 L85.4394561,9.03764411 L85.4394561,3.71830929 C85.4394561,1.66473325 83.7679762,0 81.706467,0 C79.6447835,0 77.9734779,1.66473325 77.9734779,3.71830929 L77.9734779,9.03747052 L31.0265221,9.03747052 L31.0265221,3.71830929 C31.0265221,1.66473325 29.3552165,0 27.293533,0 C25.2318495,0 23.5605439,1.66473325 23.5605439,3.71830929 L23.5605439,9.03747052 L13.1323989,9.03747052 C7.54546316,9.03747052 3,13.5650589 3,19.1300243 L3,93.9076198 C3,99.4727588 7.54546316,104 13.1323989,104 L95.8674268,104 C101.454537,104 106,99.4727588 106,93.9076198 L106,19.1300243 C106,13.5652325 101.454537,9.03764411 95.8674268,9.03764411 Z M10.4659781,19.1301979 C10.4659781,17.6631843 11.6597678,16.4742627 13.1323989,16.4742627 L23.5605439,16.4742627 L23.5605439,20.7173362 C23.5605439,22.7709122 25.2318495,24.4356455 27.293533,24.4356455 C29.3552165,24.4356455 31.0265221,22.7709122 31.0265221,20.7173362 L31.0265221,16.4742627 L77.9734779,16.4742627 L77.9734779,20.7173362 C77.9734779,22.7709122 79.6447835,24.4356455 81.706467,24.4356455 C83.7679762,24.4356455 85.4394561,22.7709122 85.4394561,20.7173362 L85.4394561,16.4742627 L95.8674268,16.4742627 C97.3400579,16.4742627 98.5338476,17.6633579 98.5338476,19.1301979 L98.5338476,28.4790899 L10.4659781,28.4790899 L10.4659781,19.1301979 Z M98.5338476,93.9077934 C98.5338476,95.3744598 97.3400579,96.5639022 95.8674268,96.5639022 L13.1323989,96.5639022 C11.6597678,96.5639022 10.4659781,95.3744598 10.4659781,93.9077934 L10.4659781,35.9157084 L98.5338476,35.9157084 L98.5338476,93.9077934 Z" id="Shape"></path>
            <path d="M92.7975514,104 L10.2022746,104 C4.57675709,104 0,99.4411367 0,93.8377867 L0,19.1847975 C0,13.5812741 4.57675709,9.02241085 10.2022746,9.02241085 L20.5256403,9.02241085 L20.5256403,3.7987639 C20.5256403,1.70407141 22.2364003,0 24.3393146,0 C26.4420549,0 28.1529888,1.70407141 28.1529888,3.7987639 L28.1529888,9.02241085 L74.8468372,9.02241085 L74.8468372,3.7987639 C74.8468372,1.70407141 76.5575972,0 78.6605114,0 C80.7634257,0 82.4741857,1.70407141 82.4741857,3.7987639 L82.4741857,9.02258416 L92.7975514,9.02258416 C98.4232429,9.02258416 103,13.5814474 103,19.1849708 L103,93.83796 C103,99.44131 98.4232429,104 92.7975514,104 Z M10.2022746,9.19571213 C4.67262089,9.19571213 0.17398149,13.6767631 0.17398149,19.1847975 L0.17398149,93.8377867 C0.17398149,99.3456477 4.67262089,103.826699 10.2022746,103.826699 L92.7975514,103.826699 C98.3272051,103.826699 102.826019,99.345821 102.826019,93.8377867 L102.826019,19.1847975 C102.826019,13.6767631 98.3273791,9.19571213 92.7975514,9.19571213 L82.3002042,9.19571213 L82.3002042,3.7987639 C82.3002042,1.79956041 80.6673879,0.173301273 78.6605114,0.173301273 C76.6536349,0.173301273 75.0208187,1.79973372 75.0208187,3.7987639 L75.0208187,9.19571213 L27.9791813,9.19571213 L27.9791813,3.7987639 C27.9791813,1.79956041 26.3463651,0.173301273 24.3394886,0.173301273 C22.3324381,0.173301273 20.6997958,1.79973372 20.6997958,3.7987639 L20.6997958,9.19571213 L10.2022746,9.19571213 Z M92.7975514,96.5761201 L10.2022746,96.5761201 C8.68654785,96.5761201 7.45336705,95.3477607 7.45336705,93.8377867 L7.45336705,35.85586 L95.546459,35.85586 L95.546459,93.83796 C95.546459,95.347934 94.3132782,96.5761201 92.7975514,96.5761201 Z M7.62734854,36.0291613 L7.62734854,93.83796 C7.62734854,95.2522717 8.78241165,96.4029921 10.2022746,96.4029921 L92.7975514,96.4029921 C94.2172404,96.4029921 95.3724775,95.2522717 95.3724775,93.83796 L95.3724775,36.0291613 L7.62734854,36.0291613 Z M95.546459,28.6049348 L7.45336705,28.6049348 L7.45336705,19.1849708 C7.45336705,17.6751701 8.68654785,16.4468107 10.2022746,16.4468107 L20.6997958,16.4468107 L20.6997958,20.7694643 C20.6997958,22.7684945 22.3326121,24.3949269 24.3394886,24.3949269 C26.3463651,24.3949269 27.9791813,22.7684945 27.9791813,20.7694643 L27.9791813,16.4468107 L75.0208187,16.4468107 L75.0208187,20.7694643 C75.0208187,22.7684945 76.6536349,24.3949269 78.6605114,24.3949269 C80.6673879,24.3949269 82.3002042,22.7684945 82.3002042,20.7694643 L82.3002042,16.4468107 L92.7975514,16.4468107 C94.3132782,16.4468107 95.546459,17.6751701 95.546459,19.1849708 L95.546459,28.6049348 Z M7.62734854,28.4316335 L95.3724775,28.4316335 L95.3724775,19.1849708 C95.3724775,17.7706591 94.2172404,16.6201119 92.7975514,16.6201119 L82.4741857,16.6201119 L82.4741857,20.7694643 C82.4741857,22.8641568 80.7634257,24.5682282 78.6605114,24.5682282 C76.5575972,24.5682282 74.8468372,22.8641568 74.8468372,20.7694643 L74.8468372,16.6201119 L28.1531628,16.6201119 L28.1531628,20.7694643 C28.1531628,22.8641568 26.4424028,24.5682282 24.3394886,24.5682282 C22.2365743,24.5682282 20.5258143,22.8641568 20.5258143,20.7694643 L20.5258143,16.6201119 L10.2022746,16.6201119 C8.78241165,16.6201119 7.62734854,17.7706591 7.62734854,19.1849708 L7.62734854,28.4316335 Z" id="Shape"></path>
        </g>
    </g>
</svg>